<svg width="1440" height="1024" viewBox="0 0 1440 1024" fill="none" xmlns="http://www.w3.org/2000/svg">
<g clip-path="url(#clip0_59_24)">
<rect width="1440" height="1024" transform="translate(0 0.00292969)" fill="white"/>
<path d="M-0.10022 0.10498H1439.9V1024.1H-0.10022V0.10498Z" fill="#005239"/>
<g opacity="0.6">
<path d="M1531.21 -14.8945L1531.18 10.4572C1530.83 246.038 1339.58 436.751 1104.04 436.406H1101.41L1101.41 436.32L923.56 439.682V439.651L747.136 442.983V442.86H744.422C718.346 442.816 693.177 447.845 669.6 457.766C646.707 467.409 626.109 481.291 608.33 499.004C590.576 516.724 576.641 537.288 566.937 560.153C556.937 583.703 551.842 608.857 551.811 634.943L551.774 659.943H551.595L551.558 684.196C551.212 919.777 359.965 1110.49 124.419 1110.15H121.797V1110.06L-56.052 1113.42L-56.4591 1066.32L123.684 1062.91V1063.03H124.493C175.731 1063.11 225.434 1053.15 272.206 1033.44C317.412 1014.39 358.022 987.095 392.944 952.279C427.841 917.469 455.268 876.921 474.435 831.771C494.292 785.047 504.378 735.368 504.452 684.122L504.489 658.845H504.668L504.705 634.863C504.755 602.465 511.109 571.135 523.588 541.742C535.673 513.269 553.002 487.652 575.08 465.644C597.171 443.618 622.821 426.361 651.327 414.361C680.741 401.96 712.103 395.71 744.496 395.759H749.024V395.833L926.873 392.477V392.508L1103.3 389.17V389.293H1104.11C1155.35 389.367 1205.05 379.416 1251.82 359.697C1297.03 340.651 1337.64 313.356 1372.56 278.54C1407.46 243.73 1434.89 203.182 1454.05 158.032C1473.91 111.308 1484 61.6291 1484.07 10.383L1484.11 -14.8945H1531.22L1531.21 -14.8945Z" fill="#91304F"/>
<path d="M1469.47 -14.8945L1469.43 10.3583C1469.36 59.5623 1459.67 107.236 1440.63 152.066C1422.23 195.39 1395.9 234.309 1362.4 267.73C1328.89 301.158 1289.89 327.367 1246.51 345.648C1201.63 364.553 1153.94 374.097 1104.74 374.029H1101.48V373.955L923.634 377.318V377.269L746.587 380.613V380.495H744.508C710.042 380.44 676.706 387.109 645.405 400.294C615.072 413.066 587.775 431.427 564.296 454.841C540.818 478.255 522.391 505.476 509.529 535.782C496.254 567.057 489.499 600.38 489.443 634.857L489.406 659.943H489.233L489.196 684.098C489.122 733.302 479.437 780.975 460.394 825.805C441.992 869.129 415.669 908.048 382.16 941.47C348.651 974.897 309.651 1001.11 266.278 1019.39C221.393 1038.29 173.701 1047.84 124.505 1047.77H121.247V1047.69L-56.6015 1051.06L-57.0148 1003.94L123.135 1000.53V1000.67H124.579C167.421 1000.73 208.956 992.419 247.993 975.965C285.753 960.065 319.7 937.231 348.916 908.11C378.095 879.001 401.024 845.104 417.051 807.382C433.602 768.389 442.029 726.879 442.091 684.03L442.128 658.845H442.313L442.35 634.776C442.405 593.982 450.425 554.471 466.174 517.372C481.43 481.458 503.249 449.202 531.052 421.481C558.855 393.754 591.168 372.024 627.114 356.871C664.257 341.231 703.775 333.327 744.588 333.377H748.474V333.463L926.323 330.107V330.138L1103.37 326.794V326.929H1104.81C1147.66 326.991 1189.19 318.68 1228.23 302.226C1265.99 286.326 1299.94 263.492 1329.15 234.37C1358.33 205.261 1381.26 171.365 1397.29 133.643C1413.84 94.6498 1422.26 53.1396 1422.33 10.2905L1422.36 -14.8945H1469.47Z" fill="#E07C5E"/>
<path d="M1407.1 -14.8947L1407.06 10.2718C1407.01 51.0663 1398.99 90.5776 1383.24 127.676C1367.98 163.591 1346.17 195.846 1318.36 223.567C1290.56 251.294 1258.25 273.024 1222.3 288.177C1185.16 303.817 1145.64 311.721 1104.83 311.671H1100.94V311.585L923.091 314.941V314.91L746.044 318.254V318.119H744.601C701.758 318.057 660.223 326.368 621.186 342.823C583.426 358.722 549.479 381.556 520.263 410.678C491.084 439.787 468.155 473.683 452.128 511.405C435.577 550.398 427.15 591.909 427.088 634.758L427.051 659.943H426.866L426.829 684.011C426.774 724.805 418.754 764.317 403.005 801.415C387.75 837.33 365.93 869.585 338.127 897.306C310.324 925.033 278.011 946.763 242.065 961.916C204.922 977.556 165.405 985.46 124.591 985.411H120.705V985.324L-57.1438 988.681L-57.5571 941.58L122.593 938.175V938.292H124.672C159.137 938.348 192.474 931.678 223.775 918.493C254.107 905.722 281.404 887.36 304.883 863.946C328.362 840.532 346.788 813.311 359.65 783.005C372.926 751.73 379.681 718.407 379.736 683.931L379.773 658.844H379.946L379.983 634.69C380.057 585.486 389.742 537.812 408.785 492.982C427.187 449.658 453.51 410.739 487.019 377.318C520.528 343.89 559.528 317.68 602.902 299.399C647.786 280.495 695.478 270.951 744.675 271.018H747.932V271.093L925.781 267.73V267.779L1102.83 264.435V264.552H1104.91C1139.37 264.608 1172.71 257.939 1204.01 244.754C1234.34 231.982 1261.64 213.621 1285.12 190.207C1308.6 166.792 1327.02 139.571 1339.89 109.265C1353.16 77.9909 1359.92 44.668 1359.97 10.1913L1360.01 -14.895L1407.1 -14.8947Z" fill="#5B8390"/>
<path d="M1344.75 -14.8949L1344.72 10.1852C1344.67 42.5827 1338.31 73.9128 1325.83 103.306C1313.75 131.779 1296.42 157.396 1274.34 179.404C1252.25 201.43 1226.6 218.686 1198.09 230.687C1168.68 243.088 1137.32 249.338 1104.92 249.289H1100.4V249.215L922.548 252.571V252.528L745.501 255.878V255.755H744.693C693.454 255.681 643.752 265.632 596.979 285.351C551.774 304.397 511.164 331.692 476.242 366.508C441.344 401.318 413.918 441.866 394.751 487.016C374.893 533.74 364.807 583.419 364.733 634.665L364.696 659.943H364.517L364.48 683.924C364.431 716.322 358.077 747.652 345.597 777.045C333.513 805.518 316.184 831.135 294.106 853.143C272.015 875.169 246.365 892.426 217.858 904.426C188.445 916.827 157.083 923.077 124.69 923.028H120.162V922.954L-57.6869 926.31L-58.1002 879.204L122.043 875.804V875.928H124.758C150.834 875.971 176.003 870.942 199.58 861.021C222.473 851.378 243.071 837.496 260.849 819.783C278.603 802.063 292.539 781.499 302.242 758.634C312.242 735.084 317.338 709.93 317.369 683.844L317.406 658.844H317.584L317.622 634.591C317.967 399.01 509.215 208.296 744.761 208.642H747.383L747.389 208.728L925.238 205.366V205.409L1102.28 202.065V202.188H1104.99C1131.07 202.232 1156.24 197.203 1179.81 187.282C1202.71 177.639 1223.31 163.757 1241.08 146.043C1258.84 128.324 1272.77 107.76 1282.48 84.8949C1292.48 61.3449 1297.57 36.1907 1297.6 10.1049L1297.64 -14.895L1344.75 -14.8949Z" fill="#EFD5A3"/>
</g>
</g>
<defs>
<clipPath id="clip0_59_24">
<rect width="1440" height="1024" fill="white" transform="translate(0 0.00292969)"/>
</clipPath>
</defs>
</svg>
