<svg width="78" height="74" viewBox="0 0 78 74" fill="none" xmlns="http://www.w3.org/2000/svg">
<path d="M53.7973 61.897C49.8421 64.4353 45.2898 66.1201 40.4011 66.6901C42.0017 66.2745 43.5658 65.5866 45.0711 64.6291C45.8532 64.1321 46.6129 63.5677 47.3445 62.9387C49.5225 62.6748 51.6782 62.3266 53.7973 61.897Z" fill="#F78F72"/>
<path d="M40.4179 66.8305L40.3674 66.5553C41.9512 66.1454 43.5098 65.4574 44.9982 64.5112C45.7719 64.0198 46.5316 63.4554 47.2548 62.8348L47.294 62.8011H47.3389C49.5001 62.5372 51.6641 62.189 53.7693 61.7622L54.5037 61.6134L53.873 62.0177C51.8716 63.3037 49.7244 64.3623 47.4958 65.1682C45.2141 65.9881 42.8314 66.5497 40.4179 66.8305ZM47.4062 63.0735C46.6801 63.694 45.9205 64.2556 45.1496 64.747C44.1405 65.3872 43.1033 65.9123 42.0437 66.3139C45.9597 65.6484 49.6627 64.2641 53.0769 62.1834C51.21 62.5428 49.3067 62.8433 47.4062 63.0735Z" fill="black"/>
<path d="M46.896 62.9921C44.2806 65.1598 41.3794 66.4655 38.352 66.8108C39.2602 66.4121 40.1404 65.6736 40.9841 64.5982C41.2645 64.2416 41.5392 63.8513 41.8083 63.4273C42.2344 63.4048 42.6604 63.3767 43.0865 63.3459C44.3647 63.2588 45.6346 63.1409 46.896 62.9921Z" fill="#FA919F"/>
<path d="M37.4494 67.0551L38.2987 66.6816C39.1817 66.2942 40.0507 65.5641 40.8776 64.5111C41.1523 64.1601 41.427 63.7698 41.6933 63.3514L41.7326 63.2897L41.8055 63.2869C42.2231 63.2644 42.6548 63.2363 43.0809 63.2054C44.3423 63.1156 45.6206 62.9977 46.882 62.8516L47.3529 62.7983L46.9885 63.1015C45.6738 64.191 44.2778 65.0699 42.8398 65.7157C41.3934 66.3644 39.8909 66.7799 38.3716 66.9512L37.4494 67.0551ZM41.8896 63.5649C41.6317 63.9692 41.3654 64.3455 41.0963 64.688C40.4572 65.4995 39.7928 66.1285 39.1088 66.5637C41.6849 66.1285 44.1433 64.9941 46.4335 63.1858C45.3234 63.3093 44.2022 63.4104 43.0977 63.4862C42.6941 63.5171 42.2876 63.5424 41.8896 63.5649Z" fill="black"/>
<path d="M41.4971 63.4469C41.2645 63.8035 41.029 64.1377 40.7879 64.4437C39.5489 66.019 38.2399 66.8473 36.8971 66.9007V63.5648H36.9364C38.4613 63.5648 39.9834 63.5255 41.4971 63.4469Z" fill="#F78F72"/>
<path d="M36.757 67.0467V63.4245H36.9364C38.4557 63.4245 39.989 63.3852 41.4887 63.3066H41.755L41.6148 63.5228C41.3822 63.8822 41.1411 64.2219 40.8972 64.5308C39.6302 66.1397 38.2875 66.9849 36.9028 67.0411L36.757 67.0467ZM37.0373 63.7053V66.7519C38.2847 66.6452 39.5097 65.8393 40.6786 64.3567C40.8636 64.1208 41.0486 63.8681 41.228 63.6014C39.8433 63.6688 38.4361 63.7025 37.0373 63.7053Z" fill="black"/>
<path d="M36.6421 63.5649V66.9035C35.2994 66.8474 33.9931 66.0218 32.7513 64.4466C32.5074 64.1349 32.2663 63.7979 32.0309 63.4329C33.5698 63.5143 35.1087 63.5593 36.6421 63.5649Z" fill="#F78F72"/>
<path d="M36.7822 67.0467L36.6365 67.0411C35.2517 66.9821 33.909 66.1397 32.642 64.5308C32.3953 64.2163 32.1486 63.8709 31.9132 63.5059L31.773 63.2897H32.0393C33.567 63.3739 35.1143 63.4188 36.6421 63.4245H36.7822V67.0467ZM32.3028 63.5845C32.485 63.8569 32.6728 64.1152 32.8634 64.3567C34.0295 65.8393 35.2545 66.6451 36.5047 66.7518V63.7052C35.1087 63.6968 33.696 63.6575 32.3028 63.5845Z" fill="black"/>
<path d="M35.1844 66.8108C32.1458 66.4654 29.2333 65.1513 26.6096 62.9668C27.3889 63.0566 28.1738 63.1381 28.9642 63.2083C29.8809 63.2897 30.8003 63.3571 31.7169 63.4104C31.9888 63.84 32.2663 64.2388 32.5523 64.5982C33.3988 65.6736 34.279 66.4149 35.1844 66.8108Z" fill="#ECCBC4"/>
<path d="M36.0927 67.0551L35.1704 66.9512C33.6483 66.7771 32.1374 66.3588 30.6854 65.7073C29.2418 65.0587 27.8402 64.1742 26.5227 63.0763L26.1611 62.773L26.6292 62.8264C27.4085 62.9162 28.199 62.9977 28.9811 63.0679C29.8921 63.1493 30.8171 63.2167 31.7281 63.2701L31.801 63.2729L31.8403 63.3346C32.1094 63.7614 32.3869 64.1573 32.6644 64.5111C33.4913 65.5641 34.3603 66.2942 35.2433 66.6817L36.0927 67.0551ZM27.0721 63.1605C29.3707 64.9829 31.8403 66.1257 34.4276 66.5637C33.7464 66.1285 33.0793 65.4995 32.4401 64.688C32.1682 64.3427 31.8991 63.9608 31.6356 63.548C30.7414 63.4947 29.8388 63.4273 28.9502 63.3487C28.3279 63.2925 27.6972 63.2307 27.0721 63.1605Z" fill="black"/>
<path d="M33.1381 66.6901C28.2354 66.1201 23.6719 64.4269 19.7082 61.8745C21.805 62.2985 23.9606 62.6467 26.1639 62.9134C26.9067 63.5508 27.6748 64.1237 28.4681 64.6291C29.9762 65.5866 31.5375 66.2773 33.1381 66.6901Z" fill="#F78F72"/>
<path d="M33.1213 66.8305C30.6994 66.5497 28.3111 65.9853 26.0237 65.157C23.7896 64.3483 21.6368 63.2841 19.6326 61.9924L19.0047 61.5881L19.7363 61.7369C21.819 62.1581 23.9859 62.5091 26.1723 62.773H26.2172L26.2564 62.8067C26.9908 63.4385 27.7589 64.0113 28.5438 64.5111C30.0322 65.4574 31.5908 66.1453 33.1746 66.5553L33.1213 66.8305ZM20.4259 62.1581C23.8513 64.25 27.5655 65.6455 31.4955 66.3138C30.4387 65.9123 29.3987 65.3872 28.3896 64.747C27.6047 64.2472 26.8367 63.6772 26.1022 63.0482C24.1821 62.8123 22.2759 62.5147 20.4259 62.1581Z" fill="black"/>
<path d="M25.8247 62.6158C23.5345 62.3294 21.306 61.9587 19.142 61.501C15.1307 58.797 11.7697 55.2029 9.33659 51.0022C12.3892 51.7575 15.6016 52.3697 18.9962 52.8442C19.7727 54.5963 20.6669 56.2334 21.6733 57.744C22.9291 59.6366 24.3194 61.2652 25.8247 62.6158Z" fill="#ECCBC4"/>
<path d="M26.2508 62.8124L25.8051 62.7562C23.5233 62.4698 21.278 62.0963 19.1252 61.6443H19.0972L19.0607 61.619C17.0537 60.2656 15.198 58.6819 13.5413 56.9101C11.8819 55.1355 10.427 53.1728 9.21046 51.0752L9.04507 50.7888L9.36463 50.8675C12.3892 51.6144 15.6325 52.2349 18.9991 52.7066H19.0803L19.1168 52.7909C19.8876 54.5318 20.7847 56.1716 21.7826 57.6711C23.0272 59.5411 24.4175 61.1697 25.9116 62.5147L26.2508 62.8124ZM19.1981 61.3691C21.1995 61.7903 23.2851 62.1441 25.4042 62.4193C24.0167 61.122 22.7244 59.5776 21.5555 57.8227C20.5632 56.3317 19.669 54.7003 18.8981 52.9734C15.6633 52.5185 12.5462 51.926 9.62533 51.2184C12.0136 55.245 15.3157 58.7493 19.1981 61.3691Z" fill="black"/>
<path d="M31.5543 63.1465C30.6994 63.0931 29.8444 63.0314 28.9867 62.9527C28.0672 62.8713 27.159 62.7758 26.262 62.6691C24.681 61.2933 23.2122 59.5973 21.8835 57.6036C20.9108 56.1407 20.0418 54.5627 19.2878 52.8863C22.0769 53.2682 24.9866 53.5602 28.0308 53.7624C28.3672 55.1607 28.74 56.4805 29.1521 57.716C29.8697 59.8724 30.677 61.692 31.5543 63.1465Z" fill="#F78F72"/>
<path d="M31.815 63.3038L31.5487 63.2869C30.6882 63.2336 29.822 63.169 28.9783 63.0932C28.0728 63.0117 27.1562 62.9163 26.2564 62.8096H26.2116L26.1723 62.7759C24.5745 61.3859 23.0916 59.6703 21.7686 57.6823C20.7987 56.225 19.9213 54.6301 19.1616 52.9453L19.0579 52.7151L19.3074 52.7488C22.0741 53.1278 25.0118 53.4227 28.042 53.622L28.1457 53.6276L28.171 53.7287C28.5045 55.1187 28.8802 56.4468 29.2894 57.6711C30.0014 59.8107 30.8059 61.6302 31.6777 63.0735L31.815 63.3038ZM26.3209 62.5344C27.2067 62.6411 28.1093 62.7337 29.0007 62.8152C29.7575 62.8826 30.5284 62.9415 31.2993 62.9921C30.4667 61.5685 29.7015 59.8107 29.0203 57.7609C28.6194 56.5563 28.2494 55.2562 27.9215 53.8944C25.0146 53.7007 22.1918 53.4199 19.5232 53.0604C20.2521 54.6469 21.0846 56.1492 22.0012 57.5279C23.3019 59.4822 24.7539 61.1669 26.3209 62.5344Z" fill="black"/>
<path d="M36.6421 54.0601V63.3122C35.0583 63.3066 33.4633 63.256 31.8655 63.1662C30.9601 61.7032 30.1332 59.85 29.3959 57.6374C28.9923 56.4271 28.6279 55.1383 28.2999 53.7821C28.5438 53.7989 28.7904 53.813 29.0371 53.827C31.588 53.9758 34.1248 54.0545 36.6421 54.0601Z" fill="#FFAB50"/>
<path d="M36.6421 63.4553C35.0583 63.4497 33.4493 63.3992 31.8571 63.3093L31.7842 63.3065L31.745 63.2447C30.8339 61.7734 29.9986 59.9033 29.2614 57.685C28.8605 56.4833 28.4905 55.1804 28.1625 53.8185L28.1177 53.6332L28.3083 53.6444C28.5634 53.6613 28.8129 53.6753 29.0455 53.6894C31.5796 53.8382 34.1361 53.9196 36.6449 53.9252H36.785V63.4553H36.6421ZM31.9468 63.0285C33.4633 63.1156 34.9938 63.1633 36.5019 63.1717V54.2004C34.0351 54.192 31.5207 54.1134 29.0259 53.9646C28.8493 53.9533 28.6671 53.9421 28.4793 53.9309C28.7961 55.2197 29.1492 56.4496 29.5277 57.5896C30.2481 59.7573 31.061 61.5881 31.9468 63.0285Z" fill="black"/>
<path d="M45.2365 53.7989C44.9085 55.1495 44.5441 56.4327 44.1433 57.6373C43.4032 59.864 42.5707 61.7229 41.6597 63.1886C40.0815 63.2729 38.4921 63.315 36.8971 63.315V54.0629C36.928 54.0629 36.9588 54.0629 36.9925 54.0629C39.7676 54.06 42.5175 53.973 45.2365 53.7989Z" fill="#FA919F"/>
<path d="M36.9728 63.4554C36.9476 63.4554 36.9224 63.4554 36.8971 63.4554H36.757V53.9196H36.8971C36.928 53.9196 36.9588 53.9196 36.9897 53.9196C39.7508 53.9196 42.5231 53.8326 45.2253 53.6585L45.4159 53.6473L45.3711 53.8326C45.0431 55.1888 44.6731 56.4861 44.275 57.6823C43.5322 59.9146 42.6913 61.7903 41.7774 63.2644L41.7382 63.3262L41.6653 63.329C40.1208 63.4132 38.5426 63.4554 36.9728 63.4554ZM37.0373 54.2004V63.1718C38.5538 63.1718 40.0815 63.1296 41.5812 63.051C42.4698 61.6049 43.2883 59.7686 44.0143 57.5896C44.3928 56.4552 44.7432 55.2309 45.0571 53.9505C42.4193 54.1162 39.7255 54.2004 37.0373 54.2004Z" fill="black"/>
<path d="M54.2514 52.8835C53.4974 54.5598 52.6284 56.1407 51.6557 57.6036C50.3186 59.6113 48.8358 61.3185 47.2408 62.7C45.4972 62.9106 43.7396 63.0679 41.9709 63.1689C42.8566 61.7088 43.6668 59.8837 44.3872 57.7159C44.7964 56.4861 45.1692 55.172 45.5028 53.782C48.4573 53.5855 51.3782 53.285 54.2514 52.8835Z" fill="#ECCBC4"/>
<path d="M41.713 63.3262L41.8503 63.0988C42.7277 61.6499 43.5378 59.8247 44.2526 57.6739C44.6591 56.4524 45.0347 55.1327 45.3655 53.7512L45.3907 53.6445H45.4972C48.4377 53.4507 51.3754 53.1475 54.2318 52.7488L54.4841 52.7122L54.3804 52.9453C53.6207 54.6329 52.7434 56.2278 51.7735 57.6879C50.4392 59.6899 48.9479 61.414 47.3333 62.8124L47.294 62.846H47.2492C45.5056 63.0566 43.7312 63.2139 41.9765 63.315L41.713 63.3262ZM45.6149 53.914C45.287 55.2675 44.9198 56.5619 44.5189 57.7609C43.8349 59.8219 43.0641 61.5881 42.2259 63.0145C43.877 62.9134 45.5421 62.7646 47.1819 62.5653C48.7629 61.1894 50.2289 59.4934 51.538 57.525C52.4546 56.1463 53.29 54.6441 54.0188 53.0548C51.2689 53.4367 48.4405 53.7259 45.6149 53.914Z" fill="black"/>
<path d="M64.197 51.0163C61.7611 55.2197 58.3917 58.8167 54.3748 61.5179C52.1687 61.984 49.9374 62.3603 47.6837 62.6467C49.203 61.2876 50.6045 59.6506 51.8688 57.7468C52.8751 56.2362 53.7693 54.5964 54.5486 52.8414C55.3755 52.7235 56.1996 52.5971 57.021 52.4623C59.5354 52.0496 61.9208 51.5694 64.197 51.0163Z" fill="#FFAB50"/>
<path d="M47.252 62.8433L47.5884 62.5428C49.0965 61.195 50.498 59.5552 51.751 57.6711C52.749 56.1716 53.646 54.529 54.4196 52.7881L54.4561 52.7038H54.5374C55.3615 52.5859 56.1884 52.4596 56.9957 52.3276C59.5017 51.9148 61.9152 51.4291 64.1662 50.8815L64.4857 50.8029L64.3204 51.0865C63.1038 53.1868 61.6433 55.1495 59.9811 56.927C58.3216 58.6988 56.4631 60.2824 54.4533 61.6359L54.4308 61.6499L54.4056 61.6555C52.2079 62.1216 49.9514 62.5007 47.7005 62.7871L47.252 62.8433ZM54.6439 52.9706C53.873 54.7003 52.9788 56.3317 51.9837 57.8255C50.8092 59.5917 49.5029 61.1473 48.1041 62.4501C50.1925 62.175 52.2808 61.8184 54.3187 61.3859C58.2067 58.7661 61.5172 55.259 63.9111 51.2297C61.7471 51.7463 59.4373 52.2068 57.0434 52.6027C56.2529 52.7319 55.4456 52.8555 54.6439 52.9706Z" fill="black"/>
<path d="M46.7979 44.3671C46.4671 47.6411 45.9625 50.7327 45.2982 53.5406C42.5287 53.7203 39.7255 53.8102 36.8971 53.8073V44.5552H36.9897C40.2974 44.5524 43.5714 44.4906 46.7979 44.3671Z" fill="#ECCBC4"/>
<path d="M37.0009 53.9449C36.9672 53.9449 36.9308 53.9449 36.8971 53.9449H36.757V44.412H36.9897C40.2806 44.412 43.5771 44.3502 46.7923 44.2267H46.952L46.938 44.3811C46.6073 47.672 46.1027 50.7635 45.4355 53.5715L45.4103 53.6725L45.3066 53.6782C42.5819 53.8551 39.7872 53.9449 37.0009 53.9449ZM37.0373 44.6928V53.6641C39.7732 53.6641 42.5119 53.5771 45.1861 53.4058C45.828 50.6821 46.3157 47.6917 46.6409 44.5131C43.4902 44.631 40.2609 44.6928 37.0373 44.6928Z" fill="black"/>
<path d="M67.5804 42.5812C66.8824 45.4622 65.7948 48.1943 64.3708 50.713C62.0302 51.2886 59.5746 51.7856 56.9761 52.2152C56.2108 52.3416 55.44 52.4595 54.6663 52.5718C55.3531 50.991 55.9445 49.3174 56.4379 47.5625C56.7911 46.3102 57.0882 45.0325 57.3293 43.7325C61.007 43.4208 64.4016 43.0389 67.5804 42.5812Z" fill="#FA919F"/>
<path d="M54.4392 52.7431L54.5402 52.5129C55.2241 50.9376 55.8184 49.2585 56.3062 47.5204C56.6565 46.2793 56.9537 44.9933 57.1947 43.7016L57.2172 43.5865H57.3293C61.0323 43.2748 64.3792 42.9014 67.5636 42.4409L67.7682 42.41L67.7206 42.6121C67.031 45.4678 65.9462 48.214 64.4969 50.7776L64.4661 50.8309L64.4072 50.845C62.0806 51.4178 59.5914 51.9232 57.0013 52.3472C56.2473 52.4708 55.468 52.5915 54.6887 52.7038L54.4392 52.7431ZM57.4498 43.8589C57.2116 45.1224 56.9172 46.3804 56.5752 47.5962C56.1071 49.2613 55.5409 50.8759 54.8962 52.3921C55.5914 52.2911 56.2809 52.1844 56.9537 52.072C59.5129 51.6509 61.9769 51.151 64.2783 50.5866C65.6659 48.1213 66.7142 45.4846 67.3954 42.7469C64.2951 43.1934 61.0379 43.5556 57.4498 43.8589Z" fill="black"/>
<path d="M57.0714 43.7494C56.4856 46.8914 55.5773 49.8762 54.3748 52.6112C51.4819 53.0183 48.5414 53.3244 45.5645 53.5237C46.0018 51.6621 46.3718 49.6628 46.6717 47.5429C46.8175 46.4983 46.9464 45.4369 47.0558 44.3587C50.4195 44.2267 53.73 44.0273 56.9789 43.7578C57.0069 43.755 57.0406 43.7522 57.0714 43.7494Z" fill="#FA919F"/>
<path d="M45.3823 53.6754L45.4271 53.49C45.8616 51.6368 46.2344 49.6291 46.5316 47.5204C46.6773 46.4787 46.8063 45.4088 46.9156 44.3418L46.9268 44.2211L47.0473 44.2155C50.3971 44.0835 53.7357 43.8813 56.9649 43.6174C56.9985 43.6146 57.0294 43.6118 57.0602 43.609L57.2452 43.5921L57.2116 43.7746C56.6229 46.9335 55.7119 49.924 54.5037 52.6673L54.4673 52.7516H54.386C51.5044 53.1587 48.5414 53.4648 45.5757 53.6641L45.3823 53.6754ZM47.1791 44.4935C47.0754 45.524 46.9492 46.5545 46.8063 47.5625C46.5175 49.6067 46.1615 51.561 45.7411 53.3721C48.6143 53.1756 51.4819 52.8779 54.2767 52.4848C55.4372 49.8341 56.3174 46.9504 56.9004 43.9066C53.7329 44.1621 50.4644 44.3615 47.1791 44.4935Z" fill="black"/>
<path d="M36.6421 44.5524V53.8045C34.1304 53.7989 31.5964 53.7203 29.0511 53.5687C28.7792 53.5518 28.5073 53.535 28.2382 53.5181C27.5739 50.713 27.0721 47.6243 26.7413 44.3559C27.4926 44.3839 28.255 44.4092 29.0287 44.4317C31.5824 44.5103 34.122 44.5496 36.6421 44.5524Z" fill="#F78F72"/>
<path d="M36.7822 53.9449H36.6421C34.1389 53.9393 31.5824 53.8607 29.0427 53.7091C28.768 53.6922 28.4961 53.6754 28.227 53.6585L28.1233 53.6529L28.0981 53.5518C27.4337 50.7439 26.9292 47.6552 26.5984 44.3727L26.5816 44.2183H26.7413C27.4898 44.2463 28.2579 44.2716 29.0259 44.2941C31.574 44.3699 34.1361 44.4092 36.6365 44.412H36.7766V53.9449H36.7822ZM28.3475 53.3862C28.5802 53.4002 28.8185 53.417 29.0567 53.4311C31.5431 53.5771 34.0463 53.6557 36.4991 53.6641V44.6928C34.0407 44.6872 31.5235 44.6479 29.0203 44.5749C28.3083 44.5552 27.5935 44.53 26.8927 44.5047C27.2207 47.6776 27.7084 50.6653 28.3475 53.3862Z" fill="black"/>
<path d="M27.9719 53.5041C24.9053 53.2991 21.9732 53.0043 19.1672 52.614C17.9647 49.8819 17.0565 46.9027 16.4706 43.7606C19.6213 44.0189 22.9459 44.2127 26.4863 44.3503C26.5956 45.4313 26.7217 46.4955 26.8703 47.5429C27.1674 49.6516 27.5346 51.6452 27.9719 53.5041Z" fill="#FFAB50"/>
<path d="M28.1485 53.6445H27.9607C24.9025 53.4423 21.9424 53.1418 19.156 52.7543H19.0747L19.0383 52.6701C17.8329 49.9296 16.9219 46.9419 16.3305 43.7858L16.2968 43.6061L16.479 43.6202C19.641 43.8785 22.915 44.0722 26.4891 44.207L26.6096 44.2126L26.6208 44.3334C26.7273 45.406 26.8563 46.4786 27.0048 47.5204C27.2992 49.6179 27.6692 51.6171 28.1037 53.4704L28.1485 53.6445ZM19.2625 52.4848C21.9648 52.8582 24.8324 53.1503 27.7897 53.3496C27.3721 51.5413 27.0161 49.5954 26.7301 47.5597C26.59 46.5544 26.4638 45.5183 26.3573 44.4822C22.8954 44.3474 19.7139 44.1621 16.6388 43.9122C17.2219 46.9532 18.1048 49.8369 19.2625 52.4848Z" fill="black"/>
<path d="M18.8757 52.5718C15.4615 52.0889 12.2294 51.4655 9.1628 50.6961C7.74161 48.1802 6.65398 45.4509 5.9588 42.57C9.19364 43.0473 12.5882 43.4348 16.2127 43.7381C16.4538 45.0325 16.7509 46.3073 17.1041 47.5569C17.5947 49.3146 18.1861 50.9882 18.8757 52.5718Z" fill="#FA919F"/>
<path d="M19.1028 52.7459L18.8561 52.7123C15.4559 52.2321 12.1846 51.6003 9.12917 50.8338L9.0703 50.8197L9.03946 50.7664C7.59304 48.2027 6.50822 45.4566 5.82145 42.6037L5.7738 42.4016L5.97843 42.4324C9.23849 42.9154 12.5882 43.2973 16.2211 43.6005L16.3276 43.609L16.3473 43.7129C16.5883 44.9989 16.8855 46.2793 17.2331 47.5204C17.7236 49.2613 18.3179 50.9433 19.0019 52.5157L19.1028 52.7459ZM9.2525 50.5754C12.207 51.3139 15.3662 51.926 18.6459 52.3978C17.9983 50.8787 17.4321 49.2641 16.964 47.5962C16.622 46.3832 16.3276 45.128 16.0922 43.8701C12.5714 43.5753 9.31137 43.2046 6.14381 42.7413C6.82217 45.4762 7.86775 48.1101 9.2525 50.5754Z" fill="black"/>
<path d="M16.1623 43.4798C12.5322 43.1765 9.13197 42.7862 5.89433 42.3061C5.35613 39.9867 5.07021 37.5719 5.07021 35.0925C5.07021 35.0785 5.07021 35.0616 5.07021 35.0476H15.425V35.0925C15.425 37.9538 15.6717 40.7617 16.1623 43.4798Z" fill="#ECCBC4"/>
<path d="M16.3333 43.6342L16.1511 43.6202C12.5042 43.3141 9.14318 42.9294 5.87471 42.4437L5.7794 42.4296L5.75698 42.3369C5.20756 39.9755 4.93005 37.5382 4.93005 35.0925C4.93005 35.0757 4.93005 35.0588 4.93005 35.0448L4.93285 34.9072H15.5652V35.0925C15.5652 37.9369 15.8119 40.7533 16.2996 43.4545L16.3333 43.6342ZM6.00926 42.1797C9.18803 42.6514 12.4565 43.0249 15.9941 43.3253C15.5288 40.6915 15.2933 37.9538 15.2877 35.188H5.21037C5.21597 37.5438 5.48507 39.8969 6.00926 42.1797Z" fill="black"/>
<path d="M26.461 44.0919C22.9122 43.9543 19.5793 43.7606 16.423 43.4994C15.9324 40.7926 15.6801 37.9706 15.6801 35.0897V35.0448H26.035V35.0897C26.0321 38.17 26.1779 41.1857 26.461 44.0919Z" fill="#FA919F"/>
<path d="M26.6152 44.2379L26.4554 44.2323C22.8618 44.0947 19.5765 43.901 16.4117 43.6398L16.3052 43.6314L16.2856 43.5247C15.7922 40.7926 15.54 37.9566 15.54 35.0897V34.9044H26.1751V35.0897C26.1751 38.1559 26.3181 41.1801 26.6012 44.0779L26.6152 44.2379ZM16.5407 43.3703C19.6213 43.623 22.8197 43.8111 26.3069 43.9459C26.035 41.1183 25.8976 38.1728 25.8948 35.1852H15.8203C15.8259 37.965 16.067 40.7168 16.5407 43.3703Z" fill="black"/>
<path d="M36.6421 35.0448V44.2969C34.1248 44.2941 31.588 44.2548 29.0343 44.179C28.2494 44.1565 27.4786 44.1284 26.7161 44.1003C26.4358 41.211 26.29 38.184 26.29 35.0897V35.0448H36.6421Z" fill="#ECCBC4"/>
<path d="M36.7822 44.4373H36.6421C34.1445 44.4345 31.5824 44.3951 29.0287 44.3193C28.2382 44.2969 27.459 44.2688 26.7105 44.2407H26.5872L26.5732 44.1144C26.29 41.1997 26.1443 38.1644 26.1443 35.0897V34.9044H36.7794V44.4373H36.7822ZM26.8423 43.9655C27.5515 43.9908 28.2887 44.0161 29.0371 44.0385C31.5403 44.1115 34.0492 44.1509 36.5019 44.1565V35.1852H26.4274C26.4302 38.1756 26.5704 41.1295 26.8423 43.9655Z" fill="black"/>
<path d="M47.252 35.0448V35.0897C47.252 38.1868 47.1062 41.2166 46.8231 44.1088C43.5574 44.2351 40.2441 44.2969 36.8971 44.2969V35.0448L47.252 35.0448Z" fill="#FFAB50"/>
<path d="M36.984 44.4373C36.956 44.4373 36.9252 44.4373 36.8971 44.4373H36.757V34.9044H47.3921V35.0897C47.3921 38.1672 47.2492 41.2053 46.9633 44.1228L46.952 44.2491H46.8287C43.6023 44.3755 40.2918 44.4373 36.984 44.4373ZM37.0373 35.1852V44.1565C40.2805 44.1565 43.5294 44.0947 46.697 43.974C46.9689 41.1323 47.109 38.1784 47.1118 35.1852H37.0373Z" fill="black"/>
<path d="M57.8591 35.0448V35.0897C57.8591 37.9678 57.6068 40.7842 57.1191 43.4882C57.063 43.4938 57.0097 43.4966 56.9537 43.5022C53.7188 43.769 50.4223 43.9684 47.0782 44.1003C47.3613 41.1913 47.5071 38.1728 47.5071 35.0897V35.0448H57.8591Z" fill="#FFAB50"/>
<path d="M46.924 44.2463L46.9408 44.0863C47.2239 41.1857 47.3669 38.1587 47.3669 35.0897V34.9044H58.002V35.0897C58.002 37.951 57.7526 40.787 57.2592 43.5135L57.2396 43.6202L57.1331 43.6286C57.077 43.6342 57.0237 43.637 56.9677 43.6426C53.7469 43.9066 50.4223 44.1087 47.0838 44.2407L46.924 44.2463ZM47.6472 35.1852C47.6444 38.1728 47.5043 41.1239 47.2352 43.9543C50.5148 43.8223 53.7805 43.623 56.9453 43.3646C56.9649 43.3618 56.9845 43.3618 57.0041 43.359C57.4751 40.7111 57.7189 37.9622 57.7245 35.1852H47.6472Z" fill="black"/>
<path d="M68.469 35.0897C68.469 37.5719 68.1831 39.9895 67.6421 42.3117C64.4605 42.775 61.0603 43.1569 57.3769 43.4657C57.8647 40.7533 58.1114 37.9482 58.1114 35.0897V35.0448H68.469C68.469 35.0588 68.469 35.0757 68.469 35.0897Z" fill="#ECCBC4"/>
<path d="M57.2088 43.623L57.2424 43.4433C57.7301 40.7449 57.9768 37.9341 57.9768 35.0925V34.9072H68.6092L68.612 35.0448C68.612 35.0616 68.612 35.0785 68.612 35.0925C68.612 37.541 68.3316 39.9811 67.7822 42.3482L67.7598 42.4408L67.6645 42.4549C64.4661 42.921 61.1051 43.2973 57.391 43.6089L57.2088 43.623ZM58.2543 35.1852C58.2487 37.9482 58.0105 40.6803 57.5479 43.3113C61.1472 43.0052 64.4156 42.6374 67.5271 42.1881C68.0513 39.9025 68.3204 37.5494 68.326 35.1852H58.2543Z" fill="black"/>
<path d="M68.469 34.7892H58.1142C58.0974 31.9111 57.8283 29.0892 57.3153 26.3627C60.9902 26.6715 64.382 27.0506 67.558 27.5111C68.1298 29.8473 68.4438 32.2846 68.469 34.7892Z" fill="#FFAB50"/>
<path d="M68.6092 34.9296H57.974V34.7892C57.9572 31.928 57.6881 29.1004 57.1779 26.3851L57.1443 26.2026L57.3265 26.2166C61.0295 26.5255 64.382 26.9018 67.5776 27.3651L67.6701 27.3791L67.6925 27.4718C68.2756 29.8529 68.5839 32.3126 68.6064 34.7836L68.6092 34.9296ZM58.2543 34.6488H68.326C68.2924 32.2789 67.9981 29.9203 67.4431 27.6346C64.3344 27.1854 61.0715 26.8203 57.4835 26.5171C57.9712 29.1481 58.2291 31.883 58.2543 34.6488Z" fill="black"/>
<path d="M57.8591 34.7892H47.5043C47.4958 31.6865 47.3389 28.6539 47.0417 25.7337C50.3999 25.8657 53.7076 26.065 56.9537 26.3318C56.9873 26.3346 57.0209 26.3374 57.0546 26.3402C57.5676 29.0555 57.8423 31.8915 57.8591 34.7892Z" fill="#ECCBC4"/>
<path d="M57.9992 34.9296H47.3641V34.7892C47.3557 31.7033 47.1987 28.6595 46.9016 25.7449L46.8848 25.5849L47.0473 25.5905C50.3999 25.7224 53.7357 25.9246 56.9649 26.1886L57.0602 26.197H57.1695L57.1919 26.3121C57.7105 29.0526 57.9824 31.9055 57.9992 34.7864V34.9296ZM47.6444 34.6488H57.7161C57.6909 31.869 57.4274 29.1172 56.934 26.4693C53.7637 26.2082 50.4896 26.0088 47.1959 25.8769C47.4818 28.7101 47.6332 31.6584 47.6444 34.6488Z" fill="black"/>
<path d="M47.252 34.7892H36.8971V25.5371C40.2329 25.5371 43.535 25.5989 46.7895 25.7225C47.0838 28.6259 47.2408 31.6725 47.252 34.7892Z" fill="#FA919F"/>
<path d="M47.3921 34.9296H36.757V25.3967H36.8971C36.9196 25.3967 36.942 25.3967 36.9644 25.3967C40.2749 25.3967 43.5827 25.4585 46.7951 25.582L46.9156 25.5877L46.9268 25.7084C47.224 28.6343 47.3809 31.6893 47.3893 34.7892L47.3921 34.9296ZM37.0373 34.6488H47.109C47.095 31.65 46.9436 28.6932 46.6605 25.8572C43.5154 25.7365 40.2777 25.6775 37.0373 25.6747V34.6488Z" fill="black"/>
<path d="M36.6421 25.5371V34.7892H26.2872C26.2956 31.6753 26.4526 28.6315 26.7498 25.7309C27.501 25.7028 28.2635 25.6775 29.0343 25.6551C31.588 25.5793 34.1248 25.5399 36.6421 25.5371Z" fill="#F78F72"/>
<path d="M36.7822 34.9296H26.1471V34.7892C26.1555 31.6921 26.3125 28.6399 26.6096 25.7168L26.6208 25.5961L26.7413 25.5905C27.4786 25.5624 28.2466 25.5371 29.0259 25.5147C31.574 25.4388 34.136 25.3995 36.6393 25.3967H36.7794V34.9296H36.7822ZM26.4302 34.6488H36.5047V25.6775C34.0492 25.6831 31.5403 25.7224 29.0399 25.7954C28.3027 25.8179 27.5767 25.8404 26.8787 25.8656C26.5928 28.6988 26.4414 31.6528 26.4302 34.6488Z" fill="black"/>
<path d="M26.4947 25.7421C26.1975 28.6623 26.0434 31.6921 26.0321 34.792H15.6801C15.6969 31.8915 15.9716 29.0498 16.4874 26.3318C19.6354 26.0706 22.9571 25.8769 26.4947 25.7421Z" fill="#FFAB50"/>
<path d="M26.1723 34.9296H15.54V34.7892C15.5568 31.9027 15.8287 29.047 16.3501 26.3037L16.3697 26.1998L16.4762 26.1914C19.6354 25.933 22.9122 25.7393 26.4919 25.6017L26.6516 25.5961L26.6348 25.7561C26.3377 28.668 26.1835 31.7061 26.1751 34.792L26.1723 34.9296ZM15.8203 34.6488H25.892C25.906 31.6612 26.0546 28.7157 26.3377 25.8881C22.8674 26.0229 19.6802 26.211 16.6024 26.4609C16.109 29.1088 15.8455 31.8634 15.8203 34.6488Z" fill="black"/>
<path d="M16.2267 26.3514C15.711 29.0835 15.4419 31.9083 15.425 34.792H5.07021C5.09263 32.2902 5.40658 29.8557 5.97843 27.5195C9.21046 27.0394 12.6051 26.6519 16.2267 26.3514Z" fill="#FA919F"/>
<path d="M15.5652 34.9296H4.93005V34.7893C4.95248 32.3211 5.26082 29.8642 5.84107 27.4858L5.8635 27.3932L5.956 27.3791C9.21606 26.8962 12.5686 26.5143 16.2127 26.211L16.3949 26.197L16.3613 26.3795C15.8483 29.0976 15.5792 31.928 15.5624 34.7949L15.5652 34.9296ZM5.21317 34.6489H15.2849C15.3101 31.8774 15.568 29.1397 16.0529 26.5059C12.521 26.8035 9.26091 27.177 6.09055 27.6431C5.54114 29.9259 5.24681 32.2818 5.21317 34.6489Z" fill="black"/>
<path d="M19.0383 17.2397C18.2814 18.9301 17.6339 20.73 17.1013 22.6225C16.7818 23.7597 16.507 24.9166 16.2772 26.0903C12.6611 26.3907 9.27493 26.7754 6.0457 27.25C6.78293 24.3466 7.9182 21.6032 9.39266 19.0789C12.4397 18.3264 15.6465 17.7142 19.0383 17.2397Z" fill="#ECCBC4"/>
<path d="M5.85789 27.4213L5.90835 27.2163C6.63716 24.341 7.76964 21.578 9.26932 19.0087L9.30856 18.9385H9.37304C12.4004 18.1916 15.6437 17.5711 19.0131 17.0993H19.2485L19.1616 17.2959C18.4104 18.9778 17.7601 20.7805 17.2303 22.659C16.9135 23.7878 16.636 24.9503 16.4089 26.1156L16.3893 26.2195L16.2828 26.2279C12.6583 26.5283 9.31417 26.9074 6.05972 27.3876L5.85789 27.4213ZM9.48516 19.2025C8.04715 21.6734 6.95672 24.3241 6.23632 27.0815C9.39827 26.621 12.6499 26.2532 16.1623 25.9611C16.3865 24.8239 16.6584 23.6895 16.9668 22.586C17.4741 20.7805 18.0936 19.0424 18.8084 17.4138C15.5512 17.8771 12.4145 18.478 9.48516 19.2025Z" fill="black"/>
<path d="M28.056 16.3272C27.5823 18.2843 27.187 20.3958 26.8703 22.6394C26.7385 23.5744 26.6236 24.5235 26.5227 25.4838C22.9935 25.6186 19.6802 25.8123 16.5379 26.0679C17.1546 22.9146 18.0936 19.9269 19.3326 17.1976C22.1133 16.8157 25.0174 16.5265 28.056 16.3272Z" fill="#FA919F"/>
<path d="M16.3641 26.2251L16.4005 26.0426C17.02 22.8724 17.9647 19.8764 19.2065 17.1414L19.2429 17.06H19.3242C22.0937 16.6809 25.0286 16.3861 28.0476 16.1896L28.2382 16.1783L28.1934 16.3637C27.7224 18.3095 27.3244 20.4295 27.0104 22.6646C26.8787 23.5969 26.761 24.5544 26.6629 25.5034L26.6488 25.6242L26.5283 25.6298C22.9655 25.7646 19.6998 25.9555 16.5491 26.2139L16.3641 26.2251ZM19.4279 17.3268C18.2338 19.9718 17.32 22.8584 16.7117 25.9134C19.7727 25.6663 22.9459 25.481 26.3966 25.349C26.4947 24.4336 26.6068 23.5182 26.7329 22.6197C27.0385 20.4492 27.4225 18.3826 27.8766 16.4788C24.9529 16.6753 22.1133 16.9617 19.4279 17.3268Z" fill="black"/>
<path d="M36.6421 16.0295V25.2816C34.122 25.2844 31.5824 25.3237 29.0259 25.3995C28.2663 25.422 27.515 25.4473 26.775 25.4754C27.117 22.1985 27.6384 19.107 28.3195 16.3103C28.5606 16.2934 28.8045 16.2794 29.0483 16.2654C31.5992 16.1137 34.1304 16.0351 36.6421 16.0295Z" fill="#FFAB50"/>
<path d="M26.7778 25.6157H26.6208L26.6376 25.4613C26.9824 22.1676 27.5038 19.0789 28.185 16.2766L28.2102 16.1699H28.3167C28.5718 16.153 28.8101 16.139 29.0427 16.125C31.574 15.9761 34.1304 15.8975 36.6421 15.8891H36.7822V25.422H36.6421C34.1304 25.4248 31.5684 25.4641 29.0315 25.5399C28.2747 25.5624 27.5178 25.5877 26.7778 25.6157ZM28.4316 16.4422C27.7757 19.1575 27.2711 22.1479 26.932 25.3293C27.6159 25.3041 28.3195 25.2816 29.0231 25.2591C31.5179 25.1861 34.0323 25.1468 36.5019 25.1412V16.1699C34.0407 16.1783 31.5347 16.2569 29.0595 16.4029C28.8549 16.417 28.6503 16.4282 28.4316 16.4422Z" fill="black"/>
<path d="M46.7614 25.4669C43.5154 25.3434 40.2245 25.2816 36.8971 25.2816V16.0295C36.928 16.0295 36.9588 16.0295 36.9925 16.0295C39.7592 16.0295 42.5034 16.1165 45.2141 16.2906C45.8981 19.0901 46.4194 22.1845 46.7614 25.4669Z" fill="#FFAB50"/>
<path d="M46.9184 25.6129L46.7558 25.6073C43.5546 25.4838 40.2693 25.422 36.984 25.422C36.956 25.422 36.9252 25.422 36.8971 25.422H36.757V15.8891H36.8971C36.928 15.8891 36.9616 15.8891 36.9925 15.8891C39.748 15.8891 42.5175 15.9761 45.2253 16.1502L45.329 16.1558L45.3542 16.2569C46.0382 19.0592 46.5596 22.1536 46.9044 25.4529L46.9184 25.6129ZM37.0373 25.1412C40.2525 25.1412 43.4705 25.203 46.6073 25.3209C46.2681 22.1339 45.7607 19.1407 45.1048 16.4226C42.453 16.2541 39.7395 16.1699 37.0401 16.1671V25.1412H37.0373Z" fill="black"/>
<path d="M57.0041 26.079C56.9929 26.079 56.9845 26.0762 56.9733 26.0762C53.7132 25.8095 50.3887 25.6073 47.0165 25.4753C46.9156 24.5178 46.8007 23.5716 46.6689 22.6393C46.3522 20.3874 45.9541 18.2674 45.4804 16.3075C48.4293 16.504 51.3418 16.8017 54.2094 17.2032C55.4484 19.9353 56.3902 22.9257 57.0041 26.079Z" fill="#ECCBC4"/>
<path d="M57.1779 26.2363L56.9621 26.2166C53.7188 25.9499 50.3691 25.7477 47.0109 25.6157L46.8904 25.6101L46.8763 25.4894C46.7754 24.5319 46.6605 23.58 46.5288 22.659C46.2148 20.4183 45.814 18.2927 45.343 16.3384L45.2982 16.153L45.4888 16.1643C48.4321 16.358 51.3726 16.6613 54.229 17.06L54.3047 17.0712L54.3355 17.1414C55.5773 19.8792 56.522 22.878 57.1415 26.051L57.1779 26.2363ZM47.1426 25.3406C50.4111 25.4697 53.6712 25.6663 56.8303 25.9246C56.2192 22.8668 55.3054 19.9774 54.1113 17.3296C51.3474 16.9449 48.505 16.6529 45.6598 16.4591C46.1139 18.3713 46.5007 20.4407 46.8063 22.6197C46.9324 23.507 47.0445 24.4224 47.1426 25.3406Z" fill="black"/>
<path d="M67.4907 27.2415C64.3176 26.7838 60.9313 26.4076 57.2648 26.1015C57.035 24.9222 56.7603 23.7625 56.4407 22.6225C55.9081 20.73 55.2606 18.9329 54.5065 17.2425C55.3335 17.3605 56.1576 17.4868 56.9789 17.6216C59.4905 18.0344 61.8732 18.5145 64.1438 19.0677C65.6154 21.592 66.7535 24.3382 67.4907 27.2415Z" fill="#F78F72"/>
<path d="M67.6785 27.41L67.4711 27.3791C64.2895 26.9214 60.9454 26.548 57.2536 26.2391L57.1471 26.2307L57.1275 26.1268C56.9004 24.9587 56.6229 23.7906 56.3061 22.659C55.7791 20.7833 55.1288 18.9806 54.3776 17.2987L54.2879 17.1021H54.5233C55.3362 17.2172 56.1688 17.3464 56.9985 17.4812C59.5045 17.8939 61.918 18.3797 64.1718 18.9273L64.2306 18.9413L64.2615 18.9918C65.764 21.5639 66.8964 24.3269 67.6281 27.2022L67.6785 27.41ZM57.3825 25.9695C60.9594 26.27 64.2082 26.6322 67.3029 27.0731C66.5825 24.3129 65.4865 21.6622 64.0484 19.1912C61.8171 18.6521 59.4288 18.1691 56.9537 17.762C56.2108 17.6384 55.4652 17.5233 54.7364 17.4194C55.4512 19.048 56.0679 20.7833 56.5752 22.586C56.8864 23.6895 57.1583 24.8295 57.3825 25.9695Z" fill="black"/>
<path d="M63.9587 18.7616C61.7555 18.2337 59.4485 17.7704 57.0181 17.3717C56.1436 17.2285 55.2634 17.0937 54.3804 16.9674C53.6432 15.3528 52.8022 13.8393 51.8688 12.4326C50.4728 10.3378 48.9142 8.56323 47.2155 7.13119C49.3628 7.38952 51.4903 7.73209 53.5927 8.15609C57.8227 10.8236 61.3826 14.4655 63.9587 18.7616Z" fill="#FFAB50"/>
<path d="M64.2503 18.975L63.9251 18.8964C61.7443 18.3741 59.412 17.9052 56.9929 17.5065C56.1183 17.3633 55.2353 17.2285 54.3692 17.1049H54.2879L54.2514 17.0235C53.517 15.4202 52.6761 13.9011 51.751 12.5084C50.3691 10.4305 48.8133 8.65589 47.1258 7.23508L46.767 6.93183L47.2324 6.98798C49.374 7.24631 51.524 7.59169 53.6207 8.01569L53.646 8.0213L53.6684 8.03534C55.782 9.36911 57.7442 10.9556 59.4961 12.7498C61.2481 14.5441 62.7898 16.5434 64.0793 18.6886L64.2503 18.975ZM54.4757 16.841C55.3222 16.9617 56.1856 17.0937 57.0406 17.2341C59.3448 17.6132 61.5733 18.0568 63.6644 18.5482C61.1276 14.4206 57.6348 10.877 53.5423 8.28805C51.6109 7.89775 49.6347 7.57484 47.6584 7.32774C49.2282 8.71205 50.683 10.4024 51.9837 12.3567C52.9059 13.741 53.7413 15.2489 54.4757 16.841Z" fill="black"/>
<path d="M52.9788 7.77702C50.9661 7.38952 48.9227 7.07784 46.8623 6.83917C46.2821 6.37025 45.685 5.94344 45.0739 5.55314C43.5658 4.59564 42.0045 3.9077 40.4039 3.49212C44.9562 4.02282 49.2198 5.51944 52.9788 7.77702Z" fill="#F78F72"/>
<path d="M53.73 8.0634L52.9508 7.91458C50.9549 7.52989 48.903 7.2154 46.8511 6.97673H46.8091L46.7698 6.94584C46.1952 6.48253 45.5981 6.05292 44.9954 5.66824C43.507 4.72196 41.9484 4.03402 40.3674 3.62407L40.4179 3.34889C42.6688 3.61003 44.8945 4.11545 47.0333 4.85113C49.1245 5.56996 51.1483 6.51342 53.0517 7.65344L53.73 8.0634ZM46.9184 6.70155C48.6928 6.90653 50.47 7.17048 52.2079 7.48777C49.032 5.6907 45.6233 4.47487 42.0437 3.86555C43.1005 4.26708 44.1405 4.79216 45.1468 5.42956C45.7495 5.81706 46.3466 6.24386 46.9184 6.70155Z" fill="black"/>
<path d="M54.0833 16.928C51.2353 16.5349 48.3452 16.2401 45.4159 16.0491C45.1048 14.7884 44.76 13.5922 44.3872 12.4662C43.6051 10.116 42.7193 8.16729 41.7466 6.65382C43.4285 6.74648 45.102 6.88968 46.7614 7.08062C48.5386 8.5267 50.1841 10.3715 51.6557 12.5785C52.5583 13.932 53.3685 15.3865 54.0833 16.928Z" fill="#F78F72"/>
<path d="M54.3187 17.1021L54.0636 17.0656C51.2352 16.6753 48.3228 16.3777 45.4075 16.1867L45.3066 16.1811L45.2814 16.08C44.973 14.8305 44.6282 13.6259 44.2554 12.5083C43.4789 10.175 42.5959 8.22906 41.6317 6.72682L41.4831 6.49657L41.7578 6.51061C43.4341 6.60327 45.1244 6.74648 46.781 6.93742L46.8231 6.94303L46.8539 6.9683C48.6535 8.43404 50.3102 10.2957 51.7762 12.4971C52.6733 13.8477 53.4946 15.3163 54.215 16.8662L54.3187 17.1021ZM45.528 15.9144C48.3284 16.0997 51.1231 16.3833 53.8478 16.7539C53.161 15.3022 52.3845 13.9235 51.5408 12.6544C50.1 10.4866 48.4713 8.65587 46.7082 7.21259C45.158 7.0357 43.5798 6.89811 42.0129 6.80825C42.9351 8.29645 43.7789 10.1834 44.5217 12.4213C44.8833 13.5164 45.2225 14.6929 45.528 15.9144Z" fill="black"/>
<path d="M46.3942 6.7858C45.2982 6.66506 44.1937 6.56678 43.0893 6.48816C42.5847 6.45165 42.083 6.42077 41.5756 6.39549C41.3822 6.10909 41.186 5.83672 40.9869 5.584C40.1404 4.50857 39.2602 3.77008 38.352 3.37136C41.1888 3.69146 43.9106 4.85675 46.3942 6.7858Z" fill="#ECCBC4"/>
<path d="M46.8736 6.97957L46.3802 6.92622C45.2954 6.80548 44.1853 6.7072 43.0809 6.62858C42.5511 6.59208 42.0577 6.56119 41.57 6.53592L41.4999 6.53311L41.4607 6.47414C41.2701 6.19054 41.0738 5.92098 40.8776 5.67108C40.0507 4.6181 39.1817 3.88804 38.2987 3.50055L37.4494 3.1271L38.3716 3.23099C41.228 3.55671 43.9583 4.71357 46.4839 6.67631L46.8736 6.97957ZM41.6541 6.25512C42.1194 6.2804 42.5931 6.30848 43.1005 6.34498C44.0396 6.41237 44.9814 6.4938 45.9065 6.58927C43.7677 5.01402 41.4859 4.01721 39.1116 3.61568C39.7928 4.0509 40.4599 4.67988 41.0991 5.49137C41.2841 5.73285 41.4719 5.98837 41.6541 6.25512Z" fill="black"/>
<path d="M45.1496 16.0295C42.4278 15.8554 39.6751 15.7712 36.8971 15.774V6.52188C38.4165 6.51907 39.9273 6.55838 41.4326 6.63419C42.4334 8.15047 43.3444 10.1329 44.1461 12.5449C44.5105 13.6428 44.8469 14.8081 45.1496 16.0295Z" fill="#FA919F"/>
<path d="M45.3318 16.1839L45.1412 16.1727C42.467 16.0014 39.7283 15.9172 37.0009 15.9172C36.9672 15.9172 36.9308 15.9172 36.8971 15.9172H36.757V6.38146H36.8971C38.4109 6.37865 39.9386 6.41796 41.4383 6.49378L41.5083 6.49659L41.5476 6.55555C42.5539 8.08026 43.4733 10.0795 44.2778 12.4999C44.6423 13.5922 44.9814 14.7687 45.287 15.9958L45.3318 16.1839ZM37.0373 15.6336C39.6919 15.6336 42.3605 15.7178 44.9674 15.8779C44.6759 14.7238 44.3535 13.6203 44.0115 12.5898C43.2239 10.2255 42.3297 8.26839 41.3514 6.77176C39.9245 6.69876 38.4725 6.66225 37.0345 6.66225V15.6336H37.0373Z" fill="black"/>
<path d="M41.256 6.37586C39.8096 6.30566 38.3548 6.26916 36.8971 6.26916V3.28152C38.2399 3.33768 39.5461 4.16321 40.7879 5.74127C40.9449 5.94063 41.1019 6.15403 41.256 6.37586Z" fill="#F78F72"/>
<path d="M41.5336 6.53028L41.2504 6.51624C39.8124 6.44605 38.3492 6.40954 36.8971 6.40954H36.757V3.13269L36.9028 3.13831C38.2875 3.19728 39.6302 4.03965 40.8972 5.6514C41.057 5.85638 41.2168 6.07259 41.371 6.29723L41.5336 6.53028ZM37.0373 6.12875C38.3492 6.13156 39.6723 6.16244 40.9757 6.22141C40.8776 6.08382 40.7767 5.95185 40.6758 5.82549C39.5069 4.34291 38.2847 3.53703 37.0345 3.43033V6.12875H37.0373Z" fill="black"/>
<path d="M36.6421 3.28152V6.27196C35.1872 6.27758 33.7296 6.31689 32.272 6.3927C32.4289 6.16245 32.5915 5.94624 32.7513 5.73846C33.9931 4.16321 35.2994 3.33487 36.6421 3.28152Z" fill="#FA919F"/>
<path d="M31.9944 6.54713L32.157 6.31126C32.3168 6.08101 32.4794 5.85638 32.642 5.6514C33.909 4.04246 35.2517 3.19728 36.6365 3.13831L36.7822 3.13269V6.40954H36.6421C35.1984 6.41516 33.7296 6.45447 32.2776 6.53028L31.9944 6.54713ZM36.5019 3.43033C35.2545 3.53703 34.0295 4.34291 32.8606 5.82549C32.7569 5.95747 32.6532 6.09505 32.5495 6.23826C33.8669 6.17368 35.1928 6.13717 36.4991 6.13156V3.43033H36.5019Z" fill="black"/>
<path d="M36.6421 6.52186V15.774C34.1248 15.7796 31.588 15.8582 29.0343 16.0098C28.8157 16.0211 28.5998 16.0351 28.384 16.0492C28.6895 14.8193 29.0259 13.6484 29.3931 12.5449C30.192 10.1441 31.0974 8.17012 32.0926 6.65664C33.6175 6.5724 35.134 6.52748 36.6421 6.52186Z" fill="#ECCBC4"/>
<path d="M28.2018 16.2008L28.2494 16.0154C28.555 14.7828 28.897 13.6006 29.2614 12.4999C30.0631 10.0935 30.9769 8.0999 31.9776 6.578L32.0169 6.51903L32.0869 6.51623C33.6006 6.43199 35.134 6.38706 36.6421 6.38145H36.7822V15.9144H36.6421C34.1304 15.92 31.574 15.9986 29.0427 16.1502C28.8241 16.1615 28.6082 16.1755 28.3924 16.1895L28.2018 16.2008ZM32.171 6.7914C31.1983 8.28522 30.3098 10.2367 29.5249 12.5898C29.1801 13.6259 28.8577 14.7378 28.5634 15.8975C28.7176 15.8891 28.8689 15.8779 29.0231 15.8694C31.5123 15.7234 34.0267 15.642 36.4991 15.6336V6.66224C35.0667 6.67066 33.6119 6.71559 32.171 6.7914Z" fill="black"/>
<path d="M31.7786 6.67351C30.8115 8.18417 29.9313 10.1245 29.152 12.4635C28.7764 13.595 28.4288 14.7968 28.1177 16.066C25.1043 16.2626 22.2199 16.549 19.456 16.9224C20.1708 15.3837 20.9809 13.9292 21.8807 12.573C23.3383 10.38 24.9726 8.5492 26.7357 7.10593C27.4786 7.02169 28.2298 6.94307 28.9867 6.87568C29.9201 6.79706 30.8508 6.72686 31.7786 6.67351Z" fill="#F78F72"/>
<path d="M19.2233 17.0965L19.3326 16.8635C20.0502 15.3135 20.8716 13.845 21.7686 12.4971C23.2234 10.3098 24.866 8.45935 26.6516 6.99923L26.6825 6.97396L26.7245 6.96834C27.4561 6.8841 28.213 6.80829 28.9783 6.73809C29.9145 6.65385 30.8536 6.58646 31.773 6.53311L32.0477 6.51626L31.8991 6.74932C30.9405 8.24875 30.0603 10.1862 29.2894 12.5084C28.9166 13.6287 28.569 14.839 28.2578 16.0997L28.2326 16.2008L28.1317 16.2064C25.1323 16.403 22.2227 16.6894 19.4812 17.0628L19.2233 17.0965ZM26.7946 7.24352C25.0454 8.68117 23.4308 10.5035 22.0012 12.6544C21.1575 13.9236 20.381 15.3023 19.6942 16.7512C22.3348 16.4002 25.1295 16.125 28.0084 15.934C28.3139 14.7014 28.6559 13.5192 29.0203 12.4213C29.7603 10.1946 30.5985 8.31614 31.5151 6.83075C30.6854 6.88129 29.8416 6.94588 29.0007 7.01888C28.2522 7.08627 27.5122 7.16209 26.7946 7.24352Z" fill="black"/>
<path d="M35.1872 3.36858C34.279 3.76731 33.3988 4.50579 32.5523 5.58123C32.3476 5.83956 32.1486 6.11473 31.9524 6.40956C30.9573 6.46572 29.9594 6.53592 28.967 6.62578C28.3447 6.68193 27.7281 6.74371 27.1114 6.8111C29.6034 4.86801 32.3392 3.69149 35.1872 3.36858Z" fill="#F78F72"/>
<path d="M26.6348 7.00483L27.0245 6.69877C29.5585 4.72199 32.3 3.55389 35.1704 3.22817L36.0926 3.12428L35.2433 3.49773C34.3603 3.88522 33.4913 4.61529 32.6644 5.66826C32.4626 5.92378 32.2635 6.19895 32.0701 6.48817L32.0281 6.54995H31.958C30.9685 6.60611 29.965 6.67911 28.9811 6.76616C28.3672 6.81951 27.7449 6.88409 27.1282 6.95148L26.6348 7.00483ZM34.4276 3.61847C32.0393 4.02281 29.7463 5.02805 27.5963 6.61734C28.0504 6.5696 28.5017 6.52468 28.953 6.48536C29.9201 6.39832 30.904 6.32812 31.8739 6.27196C32.0589 5.99679 32.2495 5.73565 32.4401 5.49136C33.0821 4.68268 33.7464 4.0537 34.4276 3.61847Z" fill="black"/>
<path d="M33.1353 3.49212C31.5347 3.9077 29.9734 4.59564 28.4653 5.55314C27.843 5.94906 27.2347 6.38709 26.6432 6.86444C24.5577 7.10592 22.5114 7.4176 20.5184 7.79948C24.2914 5.53068 28.5662 4.02282 33.1353 3.49212Z" fill="#FA919F"/>
<path d="M19.7727 8.08586L20.4483 7.67871C22.3544 6.53027 24.3867 5.584 26.4835 4.85955C28.6279 4.12107 30.862 3.61283 33.1185 3.34889L33.169 3.62407C31.5852 4.03402 30.0294 4.72196 28.541 5.66824C27.9243 6.05854 27.316 6.49657 26.7329 6.97111L26.7021 6.99638L26.6629 7.002C24.5885 7.24067 22.531 7.55516 20.5492 7.93704L19.7727 8.08586ZM31.4955 3.86836C27.9018 4.48048 24.4764 5.70193 21.2892 7.51585C23.0188 7.20136 24.7988 6.94023 26.59 6.72963C27.173 6.26071 27.7785 5.82267 28.3924 5.43518C29.3987 4.79216 30.4387 4.26989 31.4955 3.86836Z" fill="black"/>
<path d="M26.2844 7.16208C24.5997 8.5885 23.0552 10.3547 21.6704 12.4354C20.737 13.8393 19.8989 15.3528 19.1588 16.9674C15.7922 17.4335 12.6023 18.0344 9.57206 18.7757C12.1425 14.4852 15.6941 10.8461 19.9129 8.17855C21.9816 7.76016 24.1064 7.42321 26.2844 7.16208Z" fill="#FFAB50"/>
<path d="M9.28054 18.9891L9.45433 18.6999C10.7382 16.5546 12.2771 14.561 14.0263 12.7667C15.7754 10.9752 17.732 9.38877 19.84 8.05501L19.8736 8.03254H19.9017C21.962 7.61978 24.1036 7.28002 26.2704 7.02169L26.7329 6.96553L26.3769 7.26879C24.7063 8.68398 23.1617 10.4502 21.791 12.5112C20.866 13.9039 20.025 15.4202 19.2906 17.0235L19.2541 17.1049H19.1728C15.8315 17.5683 12.6163 18.1748 9.60851 18.9076L9.28054 18.9891ZM19.9689 8.30772C15.8848 10.8966 12.4004 14.4346 9.8692 18.5566C12.7705 17.8603 15.8623 17.2818 19.0663 16.8354C19.7979 15.2461 20.6333 13.7382 21.5555 12.3539C22.8478 10.4137 24.2886 8.73452 25.8471 7.35583C23.8485 7.60854 21.8723 7.92584 19.9689 8.30772Z" fill="black"/>
<path d="M8.1817 56.5254C8.15928 57.2948 8.20132 59.6225 9.94488 61.7678C12.5574 64.9801 16.7481 65.0194 17.2499 65.0166C16.6808 64.9688 13.6114 64.7638 11.0157 66.8614C7.87896 69.3997 8.14526 73.1174 8.1817 73.5077C8.19291 73.0135 8.20132 69.4447 5.09543 66.9653C2.63988 65.0053 -0.17168 64.9969 -0.889286 65.0137C-0.401539 65.0306 3.57332 65.0952 6.23071 62.0823C8.25178 59.7938 8.21254 57.1909 8.1817 56.5254Z" fill="#FFAB50"/>
<path d="M8.04154 73.5218C8.03033 73.4123 8.01632 73.1904 8.02192 72.8844C7.92661 71.6264 7.42485 69.0066 5.00854 67.0776C3.00989 65.4827 0.744949 65.1879 -0.460405 65.157C-0.651019 65.1626 -0.796783 65.1598 -0.89209 65.157V64.8762C-0.768751 64.8734 -0.622988 64.8734 -0.457602 64.8762C0.792602 64.8425 3.91811 64.4971 6.12699 61.9924C7.69676 60.2122 8.01351 58.2214 8.04715 57.0758C8.03874 56.8708 8.03874 56.6855 8.04435 56.5198L8.32466 56.517C8.33307 56.6686 8.33587 56.8539 8.33027 57.0729C8.38072 58.2382 8.7115 60.0241 10.0598 61.6779C12.1005 64.1882 15.1027 64.733 16.5463 64.8481C16.7958 64.8481 17.034 64.8565 17.2667 64.8762L17.2555 65.157C17.135 65.157 16.8967 65.1542 16.5715 65.1289C15.3437 65.1289 13.0732 65.3816 11.111 66.9709C9.82154 68.0154 8.95817 69.3801 8.55171 71.0255C8.36951 71.7612 8.31625 72.407 8.30784 72.8619C8.33027 73.1511 8.33027 73.3729 8.32746 73.5105L8.04154 73.5218ZM0.980414 65.0166C2.2138 65.2272 3.76394 65.7242 5.18233 66.8558C6.51102 67.9144 7.43887 69.2902 7.94063 70.9385C8.01632 71.1912 8.07798 71.4327 8.12844 71.6629C8.16488 71.4383 8.21254 71.1996 8.27421 70.9525C8.69748 69.2453 9.59168 67.8329 10.9316 66.7491C12.0444 65.8477 13.3703 65.258 14.8728 64.9913C14.9849 64.9716 15.0999 64.9548 15.2148 64.938C14.9429 64.8846 14.6542 64.8144 14.3542 64.7302C12.4733 64.191 10.954 63.2251 9.83836 61.852C8.86287 60.6531 8.40315 59.3895 8.19572 58.3253C7.98828 59.4597 7.48652 60.8721 6.33723 62.175C4.67777 64.0563 2.52775 64.761 0.980414 65.0166Z" fill="black"/>
<path d="M25.3089 49.733C25.2809 50.727 25.337 53.7371 27.5879 56.5085C30.9657 60.6614 36.3814 60.712 37.0317 60.7092C36.2973 60.6474 32.328 60.3807 28.9755 63.0931C24.9193 66.3728 25.2641 71.1799 25.3089 71.6826C25.323 71.0452 25.3342 66.4317 21.3201 63.2279C18.1469 60.6951 14.5112 60.6839 13.5862 60.7064C14.2169 60.726 19.3551 60.8103 22.7889 56.9185C25.4014 53.9589 25.351 50.595 25.3089 49.733Z" fill="#FFAB50"/>
<path d="M25.1688 71.6994C25.1548 71.559 25.1379 71.2726 25.1435 70.8767C25.0202 69.2425 24.3699 65.8449 21.2332 63.343C18.6318 61.268 15.6801 60.8889 14.1216 60.8524C13.8749 60.858 13.6899 60.8552 13.5806 60.8524V60.5716C13.7403 60.5688 13.9254 60.566 14.1384 60.5716C15.7614 60.5295 19.812 60.0802 22.6796 56.8315C24.7175 54.5205 25.1267 51.9344 25.1716 50.4491C25.1604 50.1851 25.1604 49.9436 25.166 49.733L25.4463 49.7302C25.4575 49.9717 25.4603 50.216 25.4519 50.4631C25.5192 51.9766 25.9537 54.2847 27.6944 56.4243C30.3434 59.6815 34.237 60.3891 36.1095 60.5351C36.429 60.5351 36.7402 60.5463 37.0401 60.5716L37.0289 60.8524C36.8719 60.8524 36.5636 60.8496 36.1459 60.8187C34.5537 60.8187 31.6076 61.1444 29.0595 63.2083C27.3833 64.5645 26.2648 66.3335 25.7378 68.4703C25.4995 69.425 25.4323 70.2646 25.4211 70.8571C25.4491 71.2277 25.4491 71.5169 25.4463 71.6938L25.1688 71.6994ZM15.7306 60.7092C17.3564 60.9535 19.4756 61.5797 21.407 63.1212C23.1169 64.4859 24.3138 66.2549 24.9585 68.3805C25.0819 68.7904 25.1772 69.1807 25.2473 69.5401C25.2977 69.1863 25.3678 68.8017 25.4687 68.3973C25.7098 67.4258 26.077 66.5104 26.5647 65.6792C27.1646 64.6544 27.9439 63.7474 28.8886 62.9864C30.3238 61.8268 32.0309 61.0658 33.9622 60.7233C34.1921 60.6839 34.422 60.6502 34.6574 60.6222C34.2342 60.5435 33.7772 60.4425 33.2979 60.3049C32.2243 59.9988 31.2264 59.572 30.3294 59.0413C29.2249 58.3871 28.2691 57.5643 27.4842 56.6012C26.1611 54.9754 25.5724 53.257 25.3286 51.8418C25.2893 52.0861 25.2417 52.3332 25.1856 52.5747C24.7932 54.2454 24.0251 55.7392 22.8982 57.0168C22.0993 57.9209 21.1463 58.6847 20.0642 59.2828C19.1841 59.7714 18.2114 60.1532 17.177 60.42C16.6584 60.552 16.1735 60.6446 15.7306 60.7092Z" fill="black"/>
<path d="M66.9721 58.4629C66.9581 58.9851 66.9862 60.5632 68.1663 62.0149C69.9379 64.1938 72.7775 64.2191 73.1166 64.2163C72.7326 64.1826 70.6499 64.045 68.8923 65.4658C66.7647 67.1871 66.9469 69.7058 66.9693 69.9697C66.9749 69.6356 66.9834 67.2152 64.8782 65.536C63.2159 64.2079 61.3098 64.2023 60.8248 64.2135C61.1556 64.2247 63.8494 64.2697 65.649 62.2283C67.0198 60.6783 66.9946 58.9121 66.9721 58.4629Z" fill="#FFAB50"/>
<path d="M66.832 69.9838C66.8264 69.908 66.8151 69.7563 66.818 69.5485C66.7535 68.7034 66.4171 66.9428 64.7941 65.6483C63.4514 64.5757 61.9265 64.3792 61.1164 64.3567C60.9874 64.3595 60.8865 64.3595 60.822 64.3567V64.0759C60.9061 64.0731 61.0042 64.0731 61.1164 64.0759C61.9573 64.0534 64.0597 63.8204 65.5425 62.1384C66.5965 60.9451 66.8095 59.6057 66.832 58.8363C66.8264 58.6959 66.8264 58.5695 66.8292 58.46L67.1095 58.4572C67.1151 58.5611 67.1179 58.6875 67.1123 58.8335C67.1459 59.6169 67.3702 60.8159 68.2728 61.925C69.6491 63.6182 71.6814 63.9832 72.6485 64.0562C72.8531 64.0562 73.0157 64.0647 73.1278 64.0759L73.1166 64.3567C73.0213 64.3567 72.8559 64.3539 72.6401 64.3398C71.8104 64.3426 70.2939 64.5139 68.9792 65.5781C67.3393 66.9035 67.1095 68.7342 67.0955 69.557C67.1095 69.7479 67.1095 69.8939 67.1067 69.9781L66.832 69.9838ZM62.3413 64.2163C63.1374 64.382 64.0905 64.7245 64.9707 65.4265C66.1648 66.3784 66.6974 67.569 66.9329 68.504C66.9497 68.4141 66.9721 68.3243 66.9945 68.2288C67.2833 67.0635 67.8944 66.0948 68.811 65.3563C69.7024 64.6347 70.6807 64.3033 71.4964 64.1601C70.4312 63.913 69.0801 63.3543 68.0626 62.1019C67.4599 61.3606 67.1459 60.5828 66.9861 59.9033C66.8236 60.639 66.476 61.5123 65.7612 62.3209C64.7072 63.5115 63.3701 64.0113 62.3413 64.2163Z" fill="black"/>
<path d="M71.5188 2.21169C71.5048 2.73397 71.5329 4.31202 72.713 5.76372C74.4846 7.94267 77.3242 7.96794 77.6633 7.96513C77.2793 7.93143 75.1966 7.79385 73.439 9.21466C71.3114 10.9359 71.4936 13.4546 71.516 13.7186C71.5216 13.3844 71.5301 10.964 69.4249 9.28485C67.7626 7.95671 65.8565 7.95109 65.3715 7.96232C65.7023 7.97355 68.3961 8.01848 70.1957 5.97712C71.5665 4.42715 71.5385 2.66377 71.5188 2.21169Z" fill="#FFAB50"/>
<path d="M71.3787 13.7326C71.3731 13.6568 71.3619 13.5052 71.3647 13.2974C71.3002 12.4522 70.9638 10.6916 69.3408 9.39718C67.9981 8.32455 66.4732 8.128 65.6631 8.10554C65.5341 8.10834 65.4332 8.10834 65.3687 8.10554V7.82474C65.4528 7.82193 65.5509 7.82193 65.6631 7.82474C66.5068 7.80228 68.6064 7.56922 70.0892 5.88727C71.1432 4.69391 71.3563 3.35452 71.3787 2.58515C71.3731 2.44476 71.3731 2.3184 71.3759 2.20608L71.6562 2.20328C71.6618 2.30717 71.6646 2.43353 71.659 2.58235C71.6926 3.36576 71.9169 4.56193 72.8195 5.67387C74.1958 7.36705 76.2253 7.73208 77.1952 7.80509C77.3998 7.80509 77.5624 7.81351 77.6746 7.82474L77.6633 8.10554C77.568 8.10554 77.4026 8.10273 77.1868 8.08869C76.3571 8.0915 74.8406 8.26278 73.5259 9.32698C71.8861 10.6551 71.6562 12.4831 71.6422 13.3058C71.6562 13.4968 71.6562 13.6428 71.6534 13.7242L71.3787 13.7326ZM66.8852 7.96795C67.6813 8.13362 68.6344 8.47618 69.5146 9.17816C70.7087 10.1301 71.2413 11.3206 71.4768 12.2556C71.4936 12.1658 71.516 12.0759 71.5385 11.9805C71.8272 10.8152 72.4383 9.84645 73.3549 9.10797C74.2463 8.38633 75.2246 8.05499 76.0403 7.91179C74.9751 7.66469 73.624 7.10591 72.6065 5.85358C72.0038 5.11229 71.6898 4.33449 71.5301 3.65497C71.3675 4.39065 71.0199 5.26391 70.3051 6.0726C69.2539 7.26035 67.9168 7.76016 66.8852 7.96795Z" fill="black"/>
<path d="M9.04787 0.108551C9.03386 0.630826 9.06189 2.20888 10.242 3.66058C12.0136 5.83953 14.8532 5.8648 15.1924 5.86199C14.8083 5.8283 12.7256 5.69071 10.968 7.11152C8.84044 8.83278 9.02264 11.3515 9.04507 11.6154C9.05068 11.2813 9.05909 8.86085 6.95392 7.18171C5.29165 5.85357 3.38551 5.84795 2.90057 5.85918C3.23134 5.87041 5.92517 5.91534 7.72479 3.87398C9.09553 2.3212 9.0703 0.557819 9.04787 0.108551Z" fill="#FFAB50"/>
<path d="M8.91052 11.6267C8.90491 11.5509 8.8937 11.3992 8.8965 11.1914C8.83203 10.3463 8.49565 8.58569 6.87263 7.29123C5.52992 6.21861 4.00501 6.02205 3.1949 5.99959C3.06595 6.0024 2.96504 6.0024 2.90057 5.99959V5.71879C2.98466 5.71599 3.08277 5.71599 3.1949 5.71879C4.03584 5.69633 6.1382 5.46327 7.62107 3.78133C8.67505 2.58796 8.88809 1.24858 8.91052 0.479206C8.90491 0.338809 8.90491 0.212453 8.90771 0.102944L9.18803 0.100136C9.19364 0.204029 9.19644 0.330386 9.19083 0.476398C9.22447 1.25981 9.44872 2.45879 10.3513 3.56792C11.7277 5.2611 13.7572 5.62613 14.7271 5.69914C14.9317 5.69914 15.0943 5.70756 15.2064 5.71879L15.1952 5.99959C15.0999 5.99959 14.9345 5.99678 14.7186 5.98274C13.8889 5.98555 12.3724 6.15683 11.0577 7.22104C9.41789 8.54638 9.18803 10.3771 9.17401 11.1999C9.18803 11.3908 9.18803 11.5368 9.18522 11.6211L8.91052 11.6267ZM4.41707 5.862C5.21317 6.02767 6.16624 6.37023 7.04642 7.07222C8.24057 8.0241 8.77316 9.21466 9.00863 10.1497C9.02545 10.0598 9.04787 9.96999 9.0703 9.87453C9.35902 8.70924 9.97011 7.7405 10.8867 7.00202C11.7781 6.28038 12.7564 5.94905 13.5722 5.80584C12.507 5.55874 11.1558 4.99997 10.1383 3.74763C9.53562 3.00634 9.22167 2.22854 9.06189 1.54903C8.89931 2.2847 8.55171 3.15797 7.83691 3.96665C6.78573 5.15721 5.44863 5.65702 4.41707 5.862Z" fill="black"/>
</svg>
