<svg width="54" height="37" viewBox="0 0 54 37" fill="none" xmlns="http://www.w3.org/2000/svg">
<path d="M2.08052 35.4094L26.0893 19.2694C26.2111 19.1876 26.3064 19.082 26.3754 18.9526C26.4444 18.8233 26.4789 18.6853 26.4789 18.5388C26.4789 18.3922 26.4444 18.2542 26.3754 18.1249C26.3065 17.9955 26.2111 17.8899 26.0893 17.8081L1.53057 1.29826C1.35476 1.18007 1.1733 1.17068 0.986194 1.27009C0.799086 1.36949 0.705518 1.52501 0.705492 1.73662V34.6787C0.705493 34.8415 0.74747 34.9927 0.83142 35.1323C0.91537 35.2718 1.02931 35.3798 1.17325 35.4563C1.31718 35.5328 1.47057 35.5668 1.6334 35.5584C1.79623 35.55 1.94527 35.5003 2.08052 35.4094Z" fill="#F7E6D4"/>
<path d="M1.5882 36.2645C1.37758 36.2645 1.17498 36.2243 0.980389 36.1438C0.785799 36.0634 0.614039 35.9488 0.46511 35.8001C0.316181 35.6514 0.201423 35.4799 0.120837 35.2856C0.0402501 35.0914 -2.86309e-05 34.8891 3.0564e-07 34.6788V1.73711C-0.000154526 1.50913 0.0585169 1.2974 0.176015 1.10192C0.293512 0.906434 0.453046 0.755133 0.654617 0.648015C0.856187 0.540896 1.07099 0.493267 1.29903 0.505126C1.52707 0.516985 1.73575 0.586638 1.92508 0.714085L26.4838 17.2233C26.5917 17.296 26.6891 17.3806 26.7761 17.4771C26.8632 17.5736 26.9372 17.6792 26.9983 17.7939C27.0594 17.9086 27.1056 18.0289 27.1371 18.1549C27.1686 18.2809 27.1843 18.4089 27.1843 18.5388C27.1843 18.6686 27.1686 18.7966 27.1371 18.9226C27.1056 19.0486 27.0594 19.169 26.9983 19.2836C26.9372 19.3983 26.8632 19.5039 26.7761 19.6004C26.6891 19.697 26.5917 19.7815 26.4838 19.8542L2.47579 35.9942C2.20747 36.1745 1.9116 36.2645 1.5882 36.2645ZM1.41155 2.06824V34.6788C1.40923 34.7507 1.4405 34.8024 1.50537 34.8338C1.56761 34.8714 1.62791 34.8685 1.68625 34.8251V34.8243L25.6945 18.6841C25.6945 18.6841 25.6953 18.3933 25.6945 18.3933L1.41155 2.06824Z" fill="#F99285"/>
<path d="M51.9192 35.3321L27.9104 19.192C27.7886 19.1102 27.6933 19.0046 27.6243 18.8752C27.5553 18.7458 27.5208 18.6079 27.5208 18.4613C27.5208 18.3148 27.5553 18.1768 27.6243 18.0474C27.6933 17.9181 27.7886 17.8125 27.9104 17.7306L52.4691 1.22092C52.645 1.10273 52.8264 1.09334 53.0135 1.19275C53.2006 1.29216 53.2942 1.44767 53.2942 1.65928V34.6014C53.2942 34.7642 53.2522 34.9154 53.1683 35.0549C53.0843 35.1945 52.9704 35.3025 52.8265 35.379C52.6825 35.4555 52.5291 35.4895 52.3663 35.4811C52.2035 35.4726 52.0544 35.423 51.9192 35.3321Z" fill="#F7E6D4"/>
<path d="M52.412 36.187C52.0886 36.187 51.7927 36.097 51.5243 35.9169L27.5162 19.7767C27.4083 19.704 27.3109 19.6195 27.2239 19.5229C27.1368 19.4264 27.0628 19.3208 27.0017 19.2062C26.9406 19.0915 26.8944 18.9711 26.8629 18.8451C26.8314 18.7191 26.8157 18.5911 26.8157 18.4613C26.8157 18.3314 26.8314 18.2034 26.8629 18.0774C26.8944 17.9514 26.9406 17.8311 27.0017 17.7164C27.0628 17.6017 27.1368 17.4961 27.2239 17.3996C27.3109 17.3031 27.4083 17.2185 27.5162 17.1459L52.0749 0.635832C52.2644 0.508629 52.4731 0.439182 52.7011 0.427491C52.9291 0.415801 53.1438 0.463535 53.3453 0.570692C53.5468 0.67785 53.7063 0.829144 53.8238 1.02457C53.9413 1.22 54 1.43168 54 1.65962V34.6014C54.0001 34.8117 53.9598 35.0139 53.8792 35.2082C53.7987 35.4025 53.6839 35.574 53.535 35.7227C53.3861 35.8713 53.2144 35.9859 53.0198 36.0664C52.8252 36.1468 52.6226 36.187 52.412 36.187ZM52.5885 1.99086L28.3055 18.3159C28.3055 18.3159 28.3047 18.6067 28.3055 18.6067L52.3137 34.7468V34.7476C52.3721 34.7907 52.4324 34.7936 52.4946 34.7563C52.5595 34.725 52.5908 34.6733 52.5885 34.6014V1.99086Z" fill="#F99285"/>
<path d="M1.74864 34.8474L23.2931 9.26709C23.5204 8.99715 23.7743 8.75493 24.0547 8.54044C24.3351 8.32595 24.6354 8.14426 24.9556 7.99537C25.2758 7.84648 25.6084 7.73391 25.9533 7.65766C26.2982 7.58142 26.6472 7.54329 27.0005 7.54329C27.3537 7.54329 27.7028 7.58142 28.0477 7.65766C28.3926 7.73391 28.7251 7.84648 29.0454 7.99537C29.3656 8.14426 29.6659 8.32595 29.9463 8.54044C30.2267 8.75493 30.4806 8.99715 30.7079 9.26709L52.2513 34.8474C52.3617 34.9784 52.4282 35.1288 52.4508 35.2986C52.4734 35.4684 52.4484 35.6309 52.376 35.7862C52.3036 35.9415 52.1951 36.0651 52.0504 36.1572C51.9057 36.2492 51.7476 36.2952 51.5761 36.2952H2.42392C2.25238 36.2952 2.09429 36.2492 1.94964 36.1571C1.80498 36.0651 1.69645 35.9414 1.62404 35.7862C1.55163 35.6309 1.52669 35.4684 1.54922 35.2986C1.57175 35.1289 1.63822 34.9784 1.74864 34.8474Z" fill="#F7E6D4"/>
<path d="M51.5759 37H2.42384C2.11506 37.0001 1.83046 36.9173 1.57005 36.7516C1.30964 36.5859 1.11425 36.3634 0.983875 36.0839C0.853501 35.8044 0.808586 35.5119 0.84913 35.2063C0.889674 34.9007 1.00932 34.6299 1.20807 34.3939L22.7518 8.81398C23.0123 8.50465 23.3032 8.2271 23.6245 7.98131C23.9458 7.73553 24.2899 7.52733 24.6568 7.35672C25.0238 7.18611 25.4048 7.05711 25.8 6.96974C26.1952 6.88237 26.5952 6.83868 27 6.83868C27.4047 6.83868 27.8047 6.88237 28.1999 6.96974C28.5951 7.05711 28.9762 7.18611 29.3431 7.35672C29.71 7.52733 30.0542 7.73553 30.3755 7.98131C30.6967 8.2271 30.9876 8.50465 31.2481 8.81398L52.7917 34.3939C52.9904 34.6299 53.11 34.9006 53.1505 35.2062C53.1911 35.5118 53.1461 35.8044 53.0158 36.0838C52.8854 36.3633 52.69 36.5858 52.4296 36.7515C52.1692 36.9171 51.8847 37.0001 51.5759 37ZM2.28839 35.3008C2.24021 35.3582 2.23196 35.4209 2.26362 35.4888C2.29528 35.5567 2.34861 35.5907 2.42362 35.5908H51.5759C51.651 35.5908 51.7044 35.5568 51.736 35.4888C51.7677 35.4209 51.7594 35.3582 51.7111 35.3008L30.1675 9.72065C28.5906 7.8488 25.4092 7.8488 23.8323 9.72065L2.28839 35.3008Z" fill="#F99285"/>
<path d="M52.2535 1.65061L28.6255 20.0067C28.3931 20.1872 28.1377 20.3252 27.8592 20.4206C27.5808 20.516 27.2943 20.5638 26.9999 20.5638C26.7055 20.5638 26.419 20.516 26.1405 20.4206C25.8621 20.3252 25.6067 20.1872 25.3743 20.0067L1.74652 1.65061C1.65725 1.58129 1.59648 1.49252 1.56419 1.38432C1.53191 1.27611 1.53412 1.16861 1.57083 1.06182C1.60755 0.955028 1.67192 0.868831 1.76396 0.80323C1.85601 0.737629 1.95857 0.704839 2.07166 0.704861H51.9284C52.0414 0.704839 52.144 0.737629 52.236 0.80323C52.3281 0.868831 52.3925 0.955028 52.4292 1.06182C52.4659 1.16861 52.4681 1.27611 52.4358 1.38432C52.4035 1.49252 52.3428 1.58129 52.2535 1.65061Z" fill="#F7E6D4"/>
<path d="M27 21.2694C26.2323 21.2695 25.5458 21.0338 24.9406 20.5622L1.31317 2.20684C1.10276 2.04654 0.959761 1.83976 0.88418 1.58651C0.8086 1.33327 0.814914 1.08207 0.903125 0.832931C0.986791 0.582296 1.1363 0.380226 1.35167 0.22672C1.56703 0.0732147 1.80701 -0.00234028 2.07161 5.5212e-05H51.9285C52.1931 -0.00227158 52.4331 0.0733113 52.6484 0.226804C52.8637 0.380296 53.0133 0.582339 53.097 0.832931C53.1851 1.08204 53.1914 1.3332 53.1159 1.58641C53.0404 1.83961 52.8975 2.04642 52.6873 2.20684L29.0593 20.563C28.454 21.0341 27.7675 21.2696 27 21.2694ZM2.5859 1.40924L25.8073 19.4498C25.9776 19.5826 26.1649 19.6842 26.3692 19.7545C26.5735 19.8247 26.7837 19.8599 26.9998 19.86C27.2159 19.86 27.4262 19.825 27.6305 19.7549C27.8349 19.6847 28.0222 19.5833 28.1926 19.4505L51.414 1.40924H2.5859ZM51.8198 1.09363C51.8198 1.09439 51.8189 1.09439 51.8189 1.09439L51.8198 1.09363Z" fill="#F99285"/>
</svg>
