<svg width="732" height="559" viewBox="0 0 732 559" fill="none" xmlns="http://www.w3.org/2000/svg">
<mask id="mask0_61_25" style="mask-type:luminance" maskUnits="userSpaceOnUse" x="19" y="44" width="713" height="515">
<path d="M19.9438 44.3199H731.28V558.432H19.9438V44.3199Z" fill="white"/>
</mask>
<g mask="url(#mask0_61_25)">
<mask id="mask1_61_25" style="mask-type:luminance" maskUnits="userSpaceOnUse" x="-77" y="-98" width="851" height="796">
<path d="M59.6673 -97.6079L773.557 53.0541L637.654 697.018L-76.2358 546.356L59.6673 -97.6079Z" fill="white"/>
</mask>
<g mask="url(#mask1_61_25)">
<mask id="mask2_61_25" style="mask-type:luminance" maskUnits="userSpaceOnUse" x="-77" y="-98" width="851" height="796">
<path d="M59.6673 -97.6079L773.557 53.0541L637.654 697.018L-76.2358 546.356L59.6673 -97.6079Z" fill="white"/>
</mask>
<g mask="url(#mask2_61_25)">
<path d="M47.4793 402.593C7.40086 208.962 10.1882 165.767 99.3302 157.89C216.112 147.563 283.838 172.138 367.596 140.266C414.513 122.417 436.933 56.1877 486.412 47.7478C558.986 35.3694 646.7 63.1386 695.806 117.985C728.709 154.748 734.647 213.896 727.116 262.657C718.988 315.269 690.699 369.752 647.808 401.278C497.838 491.433 347.15 425.048 207.724 528.325C150.376 569.226 38.6759 570.248 21.9347 506.979C17.3123 485.252 51.9806 424.347 47.4793 402.593Z" fill="#FFD3DB"/>
</g>
</g>
</g>
<mask id="mask3_61_25" style="mask-type:luminance" maskUnits="userSpaceOnUse" x="0" y="0" width="716" height="521">
<path d="M0 0H715.768V520.76H0V0Z" fill="white"/>
</mask>
<g mask="url(#mask3_61_25)">
<mask id="mask4_61_25" style="mask-type:luminance" maskUnits="userSpaceOnUse" x="-77" y="-98" width="851" height="796">
<path d="M59.6675 -97.6078L773.557 53.0542L637.654 697.019L-76.2356 546.357L59.6675 -97.6078Z" fill="white"/>
</mask>
<g mask="url(#mask4_61_25)">
<mask id="mask5_61_25" style="mask-type:luminance" maskUnits="userSpaceOnUse" x="-77" y="-98" width="851" height="796">
<path d="M59.6675 -97.6078L773.557 53.0542L637.654 697.019L-76.2356 546.357L59.6675 -97.6078Z" fill="white"/>
</mask>
<g mask="url(#mask5_61_25)">
<path d="M553.377 7.16737C524.439 1.15994 494.783 0.164465 467.204 4.87347C441.434 9.27084 423.057 28.531 405.355 48.4231C387.661 68.3151 370.513 88.917 347.912 97.5213C306.457 113.293 269.019 115.111 227.123 114.245C185.235 113.38 138.941 109.805 80.3299 114.981C57.841 116.972 40.5285 121.17 27.7865 129.74C15.0358 138.31 7.15862 151.294 3.6615 169.749C-3.35007 206.659 6.1545 265.885 26.2024 362.749C27.1459 367.319 26.0033 375.015 23.5016 383.983C20.9913 392.942 17.2432 403.234 13.4863 413.561C9.72087 423.897 5.9381 434.267 3.36719 443.52C0.796281 452.774 -0.683939 460.85 0.65778 467.152L0.666436 467.212L0.683749 467.273C5.05516 483.772 15.7023 496.159 29.8813 504.599C44.0602 513.03 61.7536 517.618 80.6502 518.908C118.452 521.487 161.127 510.952 190.429 490.048L190.446 490.039L190.463 490.022C259.618 438.794 331.491 429.636 405.294 422.061C479.106 414.487 554.796 408.523 630.348 363.112L630.452 363.052L630.547 362.983C674.14 330.937 702.645 275.918 710.869 222.691C718.477 173.419 712.643 113.587 678.936 75.924C647.79 41.1345 601.592 17.1827 553.377 7.16737ZM552.295 12.2572C599.541 22.1081 644.891 45.5578 675.127 79.3345C707.233 115.197 713.275 173.653 705.822 221.912C697.798 273.866 669.751 327.778 627.595 358.802C553.212 403.476 478.63 409.397 404.784 416.98C330.894 424.572 257.705 433.86 187.434 485.919C159.387 505.897 117.569 516.311 81.0051 513.809C62.7144 512.563 45.7655 508.096 32.4955 500.201C19.2514 492.324 9.66894 481.132 5.65244 466.027C4.70025 461.456 5.81691 453.804 8.29259 444.888C10.7856 435.929 14.5251 425.645 18.2906 415.318C22.056 404.983 25.8388 394.612 28.427 385.359C31.0153 376.097 32.5128 368.029 31.2057 361.719C11.1838 264.951 2.03412 205.768 8.68213 170.701C12.0148 153.172 19.0437 141.781 30.6344 133.981C42.2338 126.182 58.6979 122.027 80.78 120.071C138.95 114.929 184.915 118.478 227.027 119.352C269.131 120.227 307.444 118.392 349.738 102.291C374.045 93.046 391.574 71.6132 409.181 51.8163C426.788 32.0281 444.36 13.9539 468.069 9.9114C494.921 5.32359 523.954 6.34503 552.295 12.2572Z" fill="#FFBD59"/>
</g>
</g>
</g>
<mask id="mask6_61_25" style="mask-type:luminance" maskUnits="userSpaceOnUse" x="436" y="170" width="232" height="198">
<path d="M436.552 170.632H667.016V367.856H436.552V170.632Z" fill="white"/>
</mask>
<g mask="url(#mask6_61_25)">
<mask id="mask7_61_25" style="mask-type:luminance" maskUnits="userSpaceOnUse" x="421" y="162" width="251" height="211">
<path d="M421.031 183.539L654.43 162.504L671.431 351.21L438.032 372.245L421.031 183.539Z" fill="white"/>
</mask>
<g mask="url(#mask7_61_25)">
<mask id="mask8_61_25" style="mask-type:luminance" maskUnits="userSpaceOnUse" x="421" y="162" width="251" height="211">
<path d="M421.031 183.539L654.43 162.504L671.431 351.21L438.032 372.245L421.031 183.539Z" fill="white"/>
</mask>
<g mask="url(#mask8_61_25)">
<path fill-rule="evenodd" clip-rule="evenodd" d="M515.012 365.207C487.338 367.7 461.058 366.783 437.954 363.078C453.709 364.039 470.441 363.814 487.719 362.256C574.316 354.448 641.645 316.152 638.087 276.714C635.672 249.889 601.064 229.443 551.914 221.566C615.139 225.374 662.541 248.097 665.38 279.684C668.938 319.104 601.609 357.399 515.012 365.207ZM504.313 213.913L504.261 213.333C538.834 210.217 540.834 204.383 537.995 172.891L538.575 172.839C541.414 204.331 544.444 209.706 579.017 206.599L579.069 207.17C544.495 210.286 542.47 216.112 545.309 247.595L544.729 247.647C541.899 216.164 538.886 210.797 504.313 213.913Z" fill="#DA7073"/>
</g>
</g>
</g>
<mask id="mask9_61_25" style="mask-type:luminance" maskUnits="userSpaceOnUse" x="30" y="162" width="117" height="117">
<path d="M30.6084 162.452H146.256V278.792H30.6084V162.452Z" fill="white"/>
</mask>
<g mask="url(#mask9_61_25)">
<path d="M92.5266 221.938C100.767 221.912 109.017 221.799 117.257 221.583C126.892 221.314 136.518 220.942 146.143 220.224C136.518 219.505 126.892 219.133 117.257 218.865C109.017 218.648 100.767 218.536 92.5266 218.501C98.3349 212.649 104.083 206.746 109.761 200.756C116.375 193.762 122.927 186.689 129.22 179.375C121.906 185.677 114.834 192.221 107.839 198.834C101.858 204.513 95.9458 210.26 90.0941 216.069C90.0682 207.828 89.9556 199.579 89.7306 191.338C89.4622 181.712 89.09 172.086 88.3802 162.452C87.6617 172.086 87.2895 181.712 87.0212 191.338C86.8048 199.579 86.6922 207.828 86.6576 216.069C80.806 210.26 74.9024 204.513 68.9123 198.834C61.9181 192.212 54.8459 185.668 47.5314 179.375C53.8245 186.689 60.3686 193.762 66.9906 200.764C72.6605 206.746 78.4169 212.649 84.2252 218.501C75.9758 218.527 67.7351 218.64 59.4943 218.856C49.8686 219.124 40.2341 219.497 30.6084 220.224C40.2341 220.942 49.8686 221.314 59.4943 221.583C67.7351 221.799 75.9758 221.912 84.2252 221.946C78.4169 227.789 72.6605 233.701 66.9906 239.683C60.3686 246.677 53.8245 253.749 47.5314 261.073C54.8459 254.771 61.9181 248.227 68.9123 241.613C74.9024 235.935 80.806 230.187 86.6576 224.379C86.6836 232.619 86.7961 240.86 87.0125 249.11C87.2809 258.735 87.6531 268.361 88.3802 277.987C89.0987 268.361 89.4709 258.735 89.7392 249.11C89.9556 240.86 90.0682 232.619 90.0941 224.37C95.9458 230.178 101.858 235.935 107.839 241.605C114.834 248.227 121.906 254.771 129.22 261.073C122.927 253.758 116.375 246.686 109.761 239.683C104.083 233.701 98.3349 227.789 92.5266 221.938Z" fill="#DA7073"/>
</g>
<mask id="mask10_61_25" style="mask-type:luminance" maskUnits="userSpaceOnUse" x="257" y="135" width="127" height="138">
<path d="M257.056 135.176H383.368V272.568H257.056V135.176Z" fill="white"/>
</mask>
<g mask="url(#mask10_61_25)">
<mask id="mask11_61_25" style="mask-type:luminance" maskUnits="userSpaceOnUse" x="224" y="104" width="198" height="196">
<path d="M224.941 160.669L365.19 104.048L421.187 242.747L280.939 299.368L224.941 160.669Z" fill="white"/>
</mask>
<g mask="url(#mask11_61_25)">
<mask id="mask12_61_25" style="mask-type:luminance" maskUnits="userSpaceOnUse" x="224" y="104" width="198" height="196">
<path d="M224.941 160.669L365.19 104.048L421.187 242.747L280.939 299.368L224.941 160.669Z" fill="white"/>
</mask>
<g mask="url(#mask12_61_25)">
<mask id="mask13_61_25" style="mask-type:luminance" maskUnits="userSpaceOnUse" x="224" y="104" width="198" height="196">
<path d="M224.941 160.669L365.19 104.048L421.187 242.747L280.939 299.368L224.941 160.669Z" fill="white"/>
</mask>
<g mask="url(#mask13_61_25)">
<path d="M376.72 209.455C376.062 210.07 375.136 210.399 374.158 210.226L300.32 197.077C299.125 196.861 298.182 195.943 297.94 194.757L287.855 144.845C287.639 143.789 288.019 142.768 288.747 142.101C288.937 141.919 289.231 142.11 289.162 142.361C289.041 142.794 289.015 143.261 289.11 143.737L299.195 193.649C299.437 194.835 300.372 195.753 301.567 195.96L375.413 209.109C375.794 209.178 376.175 209.17 376.53 209.092C376.746 209.049 376.876 209.308 376.72 209.455ZM367.761 137.011L290.218 135.895C286.548 135.843 283.769 139.201 284.522 142.776L297.005 201.812L297.083 201.829L296.961 201.864L260.008 239.242C258.06 241.215 258.831 244.531 261.453 245.422L334.053 270.205C339.758 272.153 346.077 270.015 349.436 265.003L381.533 217.116L381.42 217.099L381.576 217.073L378.694 147.607C378.443 141.746 373.656 137.098 367.761 137.011Z" fill="#F79798"/>
</g>
</g>
</g>
</g>
<mask id="mask14_61_25" style="mask-type:luminance" maskUnits="userSpaceOnUse" x="288" y="139" width="91" height="72">
<path d="M288.08 139.608H378.936V210.52H288.08V139.608Z" fill="white"/>
</mask>
<g mask="url(#mask14_61_25)">
<mask id="mask15_61_25" style="mask-type:luminance" maskUnits="userSpaceOnUse" x="224" y="104" width="198" height="196">
<path d="M224.941 160.669L365.19 104.048L421.187 242.747L280.939 299.368L224.941 160.669Z" fill="white"/>
</mask>
<g mask="url(#mask15_61_25)">
<mask id="mask16_61_25" style="mask-type:luminance" maskUnits="userSpaceOnUse" x="224" y="104" width="198" height="196">
<path d="M224.941 160.669L365.19 104.048L421.187 242.747L280.939 299.368L224.941 160.669Z" fill="white"/>
</mask>
<g mask="url(#mask16_61_25)">
<mask id="mask17_61_25" style="mask-type:luminance" maskUnits="userSpaceOnUse" x="224" y="104" width="198" height="196">
<path d="M224.941 160.669L365.19 104.048L421.187 242.747L280.939 299.368L224.941 160.669Z" fill="white"/>
</mask>
<g mask="url(#mask17_61_25)">
<path d="M374.478 150.117L377.646 207.144C377.707 208.183 377.222 209.1 376.469 209.672C376.556 209.602 376.633 209.533 376.72 209.455C376.876 209.308 376.746 209.048 376.53 209.092C376.175 209.17 375.794 209.178 375.413 209.109L301.566 195.96C300.372 195.752 299.437 194.835 299.195 193.649L289.11 143.737C289.015 143.261 289.041 142.793 289.162 142.361C289.231 142.11 288.937 141.928 288.747 142.092C289.292 141.59 290.036 141.279 290.859 141.305L367.839 143.659C371.405 143.772 374.288 146.568 374.478 150.117Z" fill="#FBCC91"/>
</g>
</g>
</g>
</g>
<mask id="mask18_61_25" style="mask-type:luminance" maskUnits="userSpaceOnUse" x="259" y="132" width="125" height="143">
<path d="M259.272 132.96H383.368V274.784H259.272V132.96Z" fill="white"/>
</mask>
<g mask="url(#mask18_61_25)">
<mask id="mask19_61_25" style="mask-type:luminance" maskUnits="userSpaceOnUse" x="224" y="104" width="198" height="196">
<path d="M224.941 160.669L365.19 104.048L421.187 242.747L280.939 299.368L224.941 160.669Z" fill="white"/>
</mask>
<g mask="url(#mask19_61_25)">
<mask id="mask20_61_25" style="mask-type:luminance" maskUnits="userSpaceOnUse" x="224" y="104" width="198" height="196">
<path d="M224.941 160.669L365.19 104.048L421.187 242.747L280.939 299.368L224.941 160.669Z" fill="white"/>
</mask>
<g mask="url(#mask20_61_25)">
<mask id="mask21_61_25" style="mask-type:luminance" maskUnits="userSpaceOnUse" x="224" y="104" width="198" height="196">
<path d="M224.941 160.669L365.19 104.048L421.187 242.747L280.939 299.368L224.941 160.669Z" fill="white"/>
</mask>
<g mask="url(#mask21_61_25)">
<path d="M369.128 135.713L291.586 134.613C290.002 134.587 288.582 135.202 287.543 136.197L287.509 136.232C287.509 136.232 286.868 136.829 286.418 137.262C287.431 136.405 288.747 135.886 290.209 135.903L367.743 137.002C373.647 137.089 378.434 141.737 378.685 147.606L381.576 217.064L381.42 217.09L381.533 217.107L349.444 265.002C346.094 270.014 339.766 272.152 334.062 270.205L261.462 245.431C260.527 245.119 259.835 244.487 259.411 243.734C259.411 243.734 259.411 243.734 259.402 243.734L260.233 245.863C260.605 246.85 261.393 247.69 262.527 248.071L335.127 272.845C340.831 274.793 347.159 272.655 350.518 267.643L382.944 218.414L380.061 146.308C379.819 140.439 375.023 135.799 369.128 135.713ZM288.738 142.101C288.011 142.776 287.63 143.789 287.846 144.854L297.939 194.766C298.182 195.952 299.125 196.86 300.311 197.077L374.158 210.217C375.136 210.39 376.062 210.061 376.72 209.447C376.876 209.299 376.746 209.04 376.53 209.083C376.175 209.161 375.794 209.17 375.413 209.1L301.566 195.969C300.372 195.752 299.437 194.835 299.195 193.658L289.101 143.746C288.998 143.261 289.024 142.793 289.153 142.361C289.223 142.118 288.92 141.928 288.738 142.101ZM327.431 236.013L338.312 238.904C340.918 235.415 345.133 229.668 348.726 224.768L291.378 211.533L276.507 226.551L322.584 238.627L320.065 241.553L333.37 245.171L335.854 242.107C335.888 242.115 336.52 241.302 337.525 239.951L328.894 237.718L327.137 239.821L325.034 239.267L327.431 236.013ZM350.864 225.244L338.07 242.687L356.508 247.517L369.232 229.33C365.666 228.551 355.356 226.248 350.864 225.244ZM370.262 227.867L372.011 225.365L353.608 221.513L351.937 223.781L370.262 227.867ZM334.798 217.566L333.196 219.73L349.799 223.305C350.379 222.518 350.933 221.764 351.444 221.055L334.798 217.566ZM332.184 217.021L316.282 213.688L314.836 215.774L330.383 219.124L332.184 217.021ZM313.902 213.195L293.888 208.996L292.036 210.858L312.118 215.186C312.17 215.203 313.071 214.164 313.902 213.195ZM291.421 235.554L304.605 239.319C305.237 239.492 305.462 240.263 305.038 240.756L296.78 250.33C295.983 251.256 294.693 251.585 293.551 251.161L282.393 247.006C281.804 246.79 281.622 246.054 282.029 245.586L290.486 235.831C290.72 235.571 291.084 235.459 291.421 235.554Z" fill="#F57672"/>
</g>
</g>
</g>
</g>
<mask id="mask22_61_25" style="mask-type:luminance" maskUnits="userSpaceOnUse" x="301" y="144" width="74" height="56">
<path d="M301.376 144.04H374.504V199.44H301.376V144.04Z" fill="white"/>
</mask>
<g mask="url(#mask22_61_25)">
<mask id="mask23_61_25" style="mask-type:luminance" maskUnits="userSpaceOnUse" x="224" y="104" width="198" height="196">
<path d="M224.941 160.669L365.19 104.048L421.187 242.747L280.939 299.368L224.941 160.669Z" fill="white"/>
</mask>
<g mask="url(#mask23_61_25)">
<mask id="mask24_61_25" style="mask-type:luminance" maskUnits="userSpaceOnUse" x="224" y="104" width="198" height="196">
<path d="M224.941 160.669L365.19 104.048L421.187 242.747L280.939 299.368L224.941 160.669Z" fill="white"/>
</mask>
<g mask="url(#mask24_61_25)">
<mask id="mask25_61_25" style="mask-type:luminance" maskUnits="userSpaceOnUse" x="224" y="104" width="198" height="196">
<path d="M224.941 160.669L365.19 104.048L421.187 242.747L280.939 299.368L224.941 160.669Z" fill="white"/>
</mask>
<g mask="url(#mask25_61_25)">
<path d="M332.608 198.722L373.067 165.005L372.756 157.7L325.527 197.743L332.608 198.722ZM303.583 194.16L360.55 145.745C360.55 145.745 372.756 144.871 372.193 152.385L318.992 196.28L303.583 194.16Z" fill="#FDDEBD"/>
</g>
</g>
</g>
</g>
<mask id="mask26_61_25" style="mask-type:luminance" maskUnits="userSpaceOnUse" x="257" y="132" width="127" height="143">
<path d="M257.056 132.96H383.368V274.784H257.056V132.96Z" fill="white"/>
</mask>
<g mask="url(#mask26_61_25)">
<mask id="mask27_61_25" style="mask-type:luminance" maskUnits="userSpaceOnUse" x="224" y="104" width="198" height="196">
<path d="M224.941 160.669L365.19 104.048L421.187 242.747L280.939 299.368L224.941 160.669Z" fill="white"/>
</mask>
<g mask="url(#mask27_61_25)">
<mask id="mask28_61_25" style="mask-type:luminance" maskUnits="userSpaceOnUse" x="224" y="104" width="198" height="196">
<path d="M224.941 160.669L365.19 104.048L421.187 242.747L280.939 299.368L224.941 160.669Z" fill="white"/>
</mask>
<g mask="url(#mask28_61_25)">
<mask id="mask29_61_25" style="mask-type:luminance" maskUnits="userSpaceOnUse" x="224" y="104" width="198" height="196">
<path d="M224.941 160.669L365.19 104.048L421.187 242.747L280.939 299.368L224.941 160.669Z" fill="white"/>
</mask>
<g mask="url(#mask29_61_25)">
<mask id="mask30_61_25" style="mask-type:luminance" maskUnits="userSpaceOnUse" x="225" y="104" width="195" height="195">
<path d="M225.4 160.487L364.22 104.438L419.941 242.453L281.12 298.502L225.4 160.487Z" fill="white"/>
</mask>
<g mask="url(#mask30_61_25)">
<path d="M279.779 223.721L282.28 224.387C281.328 225.4 280.09 226.699 279.709 227.045L277.156 226.378L279.779 223.721ZM293.949 212.468L291.568 214.883L289.093 214.311L291.482 211.896L293.949 212.468ZM346.371 227.426L338.857 225.703L340.494 223.21L348.163 224.985C347.54 225.824 346.942 226.638 346.371 227.426ZM338.182 238.523L327.431 235.675L329.976 232.472L340.71 235.112C339.732 236.437 338.883 237.579 338.182 238.523ZM329.015 238.09L332.512 238.999C332.166 239.492 331.785 240.046 331.404 240.592L327.734 239.631L329.015 238.09ZM335.75 241.734L332.097 240.774C332.426 240.306 332.789 239.778 333.196 239.181L336.962 240.15C336.217 241.137 335.888 241.553 335.75 241.734ZM329.907 243.881C330.236 243.457 330.773 242.695 331.69 241.362L335.274 242.297L333.248 244.79L329.907 243.881ZM327.05 240.142L330.998 241.18C330.21 242.314 329.491 243.327 329.214 243.699L324.878 242.513L326.557 240.012L327.05 240.142ZM322.696 239.008L324.947 239.596L325.873 239.839L324.202 242.332L320.662 241.371L322.696 239.008ZM285.613 225.27C284.565 226.439 283.483 227.607 283.137 227.945L280.471 227.244C280.913 226.811 281.666 226.015 283.016 224.578L285.613 225.27ZM289.655 222.544L287.223 225.002L280.324 223.175L282.652 220.821L289.655 222.544ZM290.72 218.648L287.881 221.418L283.198 220.267L285.959 217.48C286.487 217.609 288.201 218.025 290.72 218.648ZM292.425 215.766L290.331 217.869C289.621 217.696 288.98 217.532 288.435 217.393L286.591 216.943C286.556 216.934 286.539 216.934 286.504 216.926L288.539 214.874L292.425 215.766ZM294.858 215.636L292.33 215.056L294.711 212.641L297.022 213.177C296.104 214.242 295.169 215.307 294.858 215.636ZM298.883 216.553L295.611 215.809C296 215.385 296.65 214.64 297.758 213.342L300.978 214.086L298.883 216.553ZM302.198 217.315L299.61 216.718L301.714 214.259L304.449 214.891L302.138 217.255L302.198 217.315ZM306.102 218.207L302.865 217.471L305.211 215.065L308.223 215.766L306.102 218.207ZM309.686 219.029L306.838 218.371L308.959 215.93L311.781 216.579L309.686 219.029ZM313.59 219.921L310.422 219.194L312.517 216.752L315.754 217.497L313.59 219.921ZM317.615 220.838L314.334 220.094L316.498 217.67L319.571 218.38L317.615 220.838ZM321.51 221.73L318.334 221.003L320.29 218.544L323.311 219.245L321.51 221.73ZM325.388 222.621L322.22 221.894L324.021 219.41L327.449 220.198L325.388 222.621ZM329.327 223.522L326.124 222.786L328.184 220.371L331.283 221.089L329.327 223.522ZM333.915 224.569L330.045 223.686L332.01 221.254L335.603 222.085L333.915 224.569ZM334.616 224.734L336.295 222.241L339.801 223.054L338.165 225.547L334.616 224.734ZM337.793 229.616C336.633 229.33 335.334 229.01 333.932 228.663L336.321 225.807L339.784 226.603L337.793 229.616ZM338.477 229.789L340.485 226.759L345.938 228.006C345.142 229.088 344.389 230.118 343.688 231.079C343.073 230.923 341.195 230.464 338.477 229.789ZM334.348 229.451C338.788 230.551 342.069 231.364 343.255 231.659C342.493 232.689 341.792 233.649 341.143 234.532L332.192 232.325C332.642 231.693 333.629 230.395 334.348 229.451ZM327.942 231.278L330.314 228.447C331.474 228.741 332.59 229.018 333.646 229.278C332.954 230.187 331.898 231.572 331.491 232.152L327.942 231.278ZM326.73 235.485L323.043 234.506L325.362 231.33L329.266 232.29L326.73 235.485ZM323.674 235.363L326.869 236.212L324.904 238.887L321.753 238.064L323.674 235.363ZM319.571 234.273L322.982 235.182L321.06 237.882L317.58 236.973L319.571 234.273ZM315.399 233.173L318.87 234.091L316.879 236.792L313.244 235.831L315.399 233.173ZM293.603 227.391L306.379 230.776L314.689 232.983L312.534 235.649L291.361 230.1C291.759 229.659 292.417 228.845 293.603 227.391ZM293.222 223.426L290.841 225.963L287.967 225.201L290.408 222.734L293.222 223.426ZM293.655 219.375C293.854 219.427 294.061 219.479 294.278 219.531L291.447 222.301L288.643 221.609L291.49 218.839C292.166 219.003 292.884 219.185 293.655 219.375ZM300.978 220.501C300.086 220.276 299.221 220.068 298.381 219.86L300.554 217.618L303.35 218.259L300.978 220.501ZM312.759 228.231L314.906 228.759L316.152 229.07L314.153 232.152L310.733 231.243L312.759 228.231ZM309.141 227.339L310.491 227.677L312.066 228.066L310.049 231.061L307.037 230.265C307.401 229.789 308.024 228.923 309.141 227.339ZM304.96 226.318L308.448 227.175C307.686 228.239 306.691 229.624 306.345 230.074L302.856 229.148L304.96 226.318ZM301.376 225.435L304.258 226.136L302.155 228.966L299.108 228.161L301.376 225.435ZM297.316 224.431L300.657 225.253L298.398 227.971L294.988 227.062L297.316 224.431ZM325.536 227.27L322.982 230.057L319.944 229.313L322.411 226.491C323.467 226.759 324.514 227.019 325.536 227.27ZM321.675 226.309L319.216 229.131L315.607 228.248C315.988 227.781 316.646 226.915 317.823 225.357C319.121 225.677 320.411 225.997 321.675 226.309ZM317.113 225.184C316.299 226.257 315.235 227.651 314.88 228.066L311.218 227.166C311.642 226.707 312.369 225.868 313.676 224.327C314.819 224.612 315.97 224.898 317.113 225.184ZM312.949 224.154C312.032 225.218 310.846 226.595 310.482 226.984L307.496 226.248L309.946 223.409C310.941 223.652 311.945 223.903 312.949 224.154ZM309.218 223.227L306.769 226.067L303.531 225.27L305.92 222.414C307.002 222.682 308.102 222.95 309.218 223.227ZM305.202 222.232L302.813 225.097L299.74 224.344L302.345 221.522C303.28 221.756 304.232 221.99 305.202 222.232ZM301.61 221.34L299.004 224.154L296.078 223.435L298.727 220.63C299.662 220.864 300.623 221.098 301.61 221.34ZM297.983 220.449L295.334 223.253L292.209 222.483L295.04 219.722C295.966 219.947 296.961 220.189 297.983 220.449ZM291.568 226.162L293.966 223.608L296.589 224.249L294.269 226.872L291.568 226.162ZM314.828 232.325L316.836 229.235L320.679 230.178L318.1 233.199L314.828 232.325ZM318.818 233.381L321.406 230.36L324.661 231.165L322.35 234.325L318.818 233.381ZM323.718 230.239L326.28 227.452C327.414 227.737 328.522 228.006 329.595 228.274L327.223 231.105L323.718 230.239ZM335.585 225.642L333.214 228.482C332.088 228.205 330.902 227.91 329.673 227.607L331.855 224.785L335.585 225.642ZM331.136 224.621L328.963 227.426C327.89 227.166 326.791 226.889 325.665 226.612L327.752 223.842L331.136 224.621ZM327.042 223.686L324.964 226.439C323.856 226.162 322.722 225.885 321.58 225.599L323.787 222.942L327.042 223.686ZM323.06 222.769L320.861 225.417C319.649 225.123 318.42 224.82 317.191 224.508L319.519 221.964L323.06 222.769ZM318.775 221.79L316.455 224.327C315.944 224.206 315.434 224.076 314.923 223.954C314.274 223.79 313.625 223.626 312.975 223.47L315.139 220.959L318.775 221.79ZM314.404 220.795L312.248 223.288C311.27 223.046 310.301 222.803 309.34 222.569L311.538 220.137L314.404 220.795ZM310.794 219.964L308.604 222.388C307.522 222.119 306.448 221.851 305.401 221.591L307.539 219.22L310.794 219.964ZM306.795 219.046L304.665 221.41C303.67 221.167 302.7 220.925 301.748 220.691L304.129 218.44L306.795 219.046ZM299.792 217.445L297.636 219.67C296.719 219.445 295.836 219.228 294.996 219.02C294.806 218.968 294.624 218.925 294.434 218.882C294.849 218.501 295.533 217.843 296.693 216.735L299.792 217.445ZM295.905 216.562C295.048 217.376 293.992 218.38 293.655 218.683C292.728 218.458 291.871 218.25 291.092 218.051L293.187 215.939L295.905 216.562ZM289.404 226.274L287.058 228.975L283.89 228.144C284.314 227.703 285.05 226.906 286.34 225.461L289.404 226.274ZM287.786 229.166L290.123 226.465L292.893 227.201C292.062 228.213 290.997 229.512 290.642 229.91L287.786 229.166ZM279.701 227.737L283.137 228.638L290.659 230.602L321.978 238.817L319.467 241.734L329.24 244.401C329.249 244.401 329.249 244.401 329.249 244.401L333.491 245.552L336.113 242.314C336.347 242.089 336.771 241.518 337.793 240.15L338.096 239.752L328.773 237.337L327.016 239.441L325.596 239.068L327.561 236.402L338.442 239.285L338.58 239.103C340.727 236.22 344.233 231.468 349.003 224.967L349.297 224.56L291.274 211.161L275.866 226.733L279.701 227.737ZM366.618 232.481L362.662 231.598C363.675 230.161 364.428 229.088 364.722 228.681C366.272 229.018 367.657 229.33 368.67 229.546L366.618 232.481ZM352.379 246.089C352.699 245.673 353.218 244.946 354.118 243.682C355.01 242.427 356.118 240.869 357.278 239.224C358.646 239.57 359.97 239.908 361.199 240.228L356.369 247.136L352.379 246.089ZM340.745 239.596L348.527 241.838L346.596 244.574L338.624 242.488L340.745 239.596ZM358.732 227.348L356.681 230.256L348.881 228.508L351.002 225.616C352.283 225.911 355.382 226.595 358.732 227.348ZM357.391 230.412L359.442 227.504C360.983 227.85 362.558 228.196 364.013 228.516C363.433 229.339 362.731 230.334 361.961 231.442L357.391 230.412ZM359.624 234.749L354.975 233.84L356.966 231.009L361.537 232.031C360.931 232.896 360.282 233.814 359.624 234.749ZM358.507 237.493C359.832 235.614 361.156 233.736 362.247 232.187L366.211 233.078L361.606 239.64C360.948 239.475 359.503 239.103 357.693 238.635C357.962 238.263 358.23 237.882 358.507 237.493ZM352.517 237.328L354.551 234.437L359.2 235.346C358.464 236.394 357.719 237.441 357.001 238.462C355.616 238.107 354.067 237.718 352.517 237.328ZM351.418 237.735L348.933 241.258L341.169 239.025L343.515 235.831C344.302 235.969 347.54 236.766 351.418 237.735ZM346.233 232.117L348.449 229.096L356.265 230.845L354.257 233.693L346.233 232.117ZM353.841 234.299L351.825 237.147C348.466 236.307 345.246 235.511 343.939 235.242L345.8 232.715L353.841 234.299ZM353.98 242.721L349.609 241.457L352.11 237.908C353.564 238.281 355.088 238.661 356.585 239.042C355.642 240.384 354.75 241.648 353.98 242.721ZM347.289 244.755L349.202 242.037L353.573 243.293C352.647 244.6 351.954 245.552 351.686 245.907L347.289 244.755ZM350.942 224.924L350.725 224.872L337.507 242.886L351.721 246.608L356.421 247.837L356.646 247.898L369.795 229.114L369.31 229.001C365.372 228.144 353.313 225.452 350.942 224.924ZM356.776 222.518L355.555 224.249L352.508 223.565L353.746 221.877L356.776 222.518ZM370.115 227.486L365.995 226.569L367.371 224.734L371.448 225.591L370.115 227.486ZM362.048 223.617L366.653 224.586L365.276 226.413L360.905 225.435L362.048 223.617ZM360.212 225.279L356.265 224.405L357.486 222.665L361.346 223.47L360.212 225.279ZM370.41 228.239L372.574 225.14L353.461 221.141L351.366 223.998L370.41 228.239ZM337.931 218.562L336.667 220.137L333.768 219.514L334.936 217.938L337.931 218.562ZM349.66 222.933L346.371 222.223L347.644 220.605L350.872 221.28L349.66 222.933ZM342.978 219.626L346.916 220.449L345.644 222.067L341.749 221.228L342.978 219.626ZM341.022 221.072L337.395 220.293L338.658 218.717L342.259 219.471L341.022 221.072ZM349.937 223.677L352.024 220.838L334.659 217.203L332.616 219.947L349.937 223.677ZM319.052 214.614L317.849 216.086L315.399 215.549L316.429 214.06L319.052 214.614ZM330.262 218.752L326.54 217.956L327.674 216.415L331.56 217.229L330.262 218.752ZM323.354 215.515L326.955 216.268L325.821 217.8L322.108 217.004L323.354 215.515ZM321.372 216.839L318.585 216.242L319.788 214.762L322.618 215.359L321.372 216.839ZM330.504 219.497L332.807 216.813L316.351 213.359L316.126 213.316L314.282 215.999L330.504 219.497ZM293.992 209.36L296.745 209.931C296.061 210.633 295.68 211.022 295.464 211.256L292.702 210.667L293.992 209.36ZM306.293 211.94L309.071 212.52L307.73 213.905L305.228 213.368L306.293 211.94ZM303.263 211.299L305.574 211.784L304.518 213.212L302.042 212.675L303.263 211.299ZM298.537 211.922L296.225 211.42C296.58 211.057 297.1 210.52 297.515 210.096L299.757 210.563L298.537 211.922ZM300.51 210.728L302.51 211.143L301.298 212.511L299.29 212.087L300.51 210.728ZM312.023 214.831L308.5 214.069L309.842 212.684L313.287 213.403C312.491 214.32 312.162 214.684 312.023 214.831ZM312.222 215.515C312.421 215.437 312.776 215.03 314.161 213.403L314.525 212.978L293.958 208.668L293.776 208.633L291.369 211.057L312.049 215.515C312.11 215.532 312.162 215.541 312.222 215.515ZM282.159 246.305C282.116 246.123 282.159 245.941 282.28 245.803L283.622 244.253L290.357 246.27L287.855 248.685L282.505 246.694C282.332 246.625 282.211 246.487 282.159 246.305ZM290.746 236.047C290.807 235.987 290.876 235.935 290.962 235.9C291.075 235.848 291.205 235.84 291.326 235.874L304.509 239.64C304.7 239.692 304.838 239.83 304.899 240.012C304.951 240.202 304.908 240.393 304.778 240.54L298.372 247.976L284.107 243.699L290.746 236.047ZM296.528 250.114C295.827 250.927 294.676 251.222 293.663 250.849L288.547 248.945L291.092 246.487L297.896 248.53L296.528 250.114ZM293.429 251.473C294.209 251.758 295.048 251.732 295.793 251.438C296.26 251.248 296.693 250.945 297.039 250.546L305.289 240.973C305.566 240.652 305.661 240.228 305.54 239.821C305.418 239.423 305.107 239.112 304.7 238.99L291.516 235.234C291.049 235.104 290.547 235.251 290.235 235.614L281.778 245.361C281.51 245.664 281.415 246.08 281.51 246.469C281.614 246.859 281.891 247.179 282.272 247.318L293.429 251.473ZM379.741 146.334L382.598 218.328L350.223 267.461C346.951 272.343 340.788 274.429 335.222 272.525L262.631 247.751C261.644 247.413 260.908 246.703 260.536 245.734L260.354 245.24C260.648 245.448 260.986 245.621 261.341 245.742L333.941 270.516C337.126 271.607 340.502 271.451 343.48 270.248C345.956 269.253 348.154 267.521 349.721 265.184L381.723 217.436L381.931 217.471L381.914 217.151L382.095 216.874L381.896 216.839L379.022 147.598C378.771 141.564 373.829 136.769 367.761 136.674L290.227 135.566C289.699 135.557 289.188 135.617 288.695 135.739C289.56 135.202 290.556 134.925 291.594 134.942L369.137 136.05C374.842 136.137 379.499 140.655 379.741 146.334ZM259.341 242.661C259.073 241.509 259.41 240.323 260.241 239.475L297.074 202.219L311.417 204.807C311.46 205.274 311.711 205.543 311.729 205.56L311.807 205.629L318.567 206.988C318.662 207.014 318.766 206.997 318.853 206.962C318.922 206.936 318.991 206.893 319.043 206.832C319.165 206.703 319.199 206.512 319.147 206.339C319.13 206.287 319.121 206.244 319.113 206.192L354.872 212.649C354.82 213.273 355.166 213.628 355.183 213.654L355.252 213.723L362.013 215.082C362.117 215.099 362.221 215.09 362.307 215.056C362.377 215.03 362.437 214.987 362.489 214.926C362.61 214.788 362.654 214.597 362.593 214.433C362.55 214.285 362.532 214.156 362.532 214.026L380.97 217.35L349.158 264.821C345.886 269.703 339.723 271.789 334.157 269.893L261.566 245.11C260.441 244.729 259.61 243.812 259.341 242.661ZM355.91 211.862C355.954 211.801 356.031 211.775 356.109 211.784L362.151 213.048C361.97 213.351 361.788 213.809 361.892 214.372L355.616 213.108C355.529 212.961 355.4 212.546 355.91 211.862ZM312.456 203.768C312.499 203.708 312.577 203.682 312.664 203.699L318.706 204.954C318.515 205.257 318.334 205.716 318.437 206.287L312.162 205.015C312.075 204.867 311.954 204.452 312.456 203.768ZM284.851 142.707C284.514 141.106 284.92 139.461 285.968 138.188C286.046 138.093 286.132 138.007 286.219 137.911L286.66 137.496C287.647 136.665 288.894 136.215 290.209 136.232L367.752 137.349C373.465 137.427 378.122 141.945 378.356 147.624L381.221 216.666L362.749 213.351C362.775 213.316 362.801 213.273 362.827 213.247C362.939 213.108 362.965 212.926 362.905 212.762C362.844 212.597 362.705 212.476 362.541 212.442L356.248 211.135C355.91 211.065 355.564 211.195 355.365 211.472C355.235 211.645 355.14 211.81 355.062 211.974L319.165 205.525C319.216 205.378 319.294 205.248 319.381 205.153C319.485 205.015 319.511 204.833 319.459 204.668C319.398 204.504 319.26 204.383 319.087 204.348L312.802 203.041C312.465 202.972 312.118 203.102 311.911 203.379C311.72 203.638 311.599 203.872 311.521 204.097L297.282 201.526L284.851 142.707ZM369.146 135.384L291.603 134.267C290.002 134.25 288.478 134.847 287.318 135.955L286.219 136.994C286.054 137.132 285.899 137.279 285.751 137.435H285.743C285.648 137.548 285.544 137.652 285.457 137.764C284.271 139.192 283.812 141.045 284.193 142.845L296.641 201.708L259.765 239.008C258.77 240.02 258.372 241.44 258.692 242.816C258.779 243.189 258.917 243.535 259.09 243.864L259.912 245.976C260.345 247.11 261.254 247.984 262.414 248.382L335.005 273.157C338.191 274.247 341.567 274.091 344.545 272.888C347.02 271.893 349.219 270.162 350.786 267.824L383.281 218.518L380.407 146.308C380.156 140.266 375.214 135.47 369.146 135.384ZM298.268 194.696L288.184 144.776C288.166 144.681 288.149 144.577 288.141 144.481C288.141 144.438 288.141 144.395 288.141 144.36C288.132 144.3 288.132 144.239 288.132 144.187C288.132 144.127 288.141 144.075 288.149 144.023C288.149 143.979 288.149 143.936 288.158 143.893C288.166 143.832 288.175 143.772 288.192 143.72C288.201 143.676 288.201 143.642 288.218 143.607C288.227 143.547 288.253 143.495 288.27 143.434C288.279 143.399 288.288 143.356 288.305 143.322C288.322 143.27 288.348 143.226 288.374 143.166C288.392 143.131 288.409 143.096 288.426 143.053C288.452 143.01 288.478 142.975 288.504 142.932C288.53 142.889 288.556 142.837 288.582 142.793C288.599 142.768 288.625 142.742 288.651 142.707C288.686 142.655 288.72 142.603 288.764 142.56C288.764 142.551 288.772 142.551 288.772 142.551C288.695 142.967 288.695 143.382 288.781 143.806L298.866 193.718C299.134 195.043 300.173 196.055 301.506 196.289L375.352 209.438C375.621 209.49 375.889 209.499 376.149 209.481V209.49C376.045 209.559 375.932 209.611 375.828 209.672C375.785 209.689 375.742 209.715 375.69 209.732C375.655 209.75 375.621 209.758 375.595 209.767C375.534 209.793 375.482 209.81 375.43 209.827C375.396 209.836 375.361 209.845 375.326 209.853C375.274 209.862 375.214 209.879 375.153 209.888C375.119 209.897 375.093 209.897 375.058 209.905C374.997 209.914 374.937 209.923 374.876 209.923C374.842 209.931 374.807 209.931 374.781 209.931C374.712 209.931 374.642 209.931 374.582 209.931C374.556 209.931 374.521 209.931 374.495 209.923C374.409 209.923 374.313 209.905 374.218 209.888L300.372 196.748C299.307 196.557 298.485 195.752 298.268 194.696ZM290.85 141.634L367.821 143.988C371.241 144.101 373.959 146.741 374.149 150.134L377.317 207.161C377.343 207.759 377.179 208.347 376.832 208.823C376.72 208.763 376.59 208.745 376.46 208.771C376.131 208.841 375.802 208.841 375.473 208.78L301.627 195.631C300.562 195.441 299.74 194.636 299.523 193.58L289.439 143.668C289.352 143.261 289.37 142.845 289.482 142.447C289.526 142.291 289.5 142.136 289.422 142.006C289.846 141.755 290.339 141.616 290.85 141.634ZM374.097 210.546C374.72 210.658 375.344 210.598 375.906 210.364C375.906 210.364 375.906 210.364 375.915 210.364C376.261 210.226 376.581 210.027 376.867 209.767C376.893 209.75 376.91 209.724 376.936 209.706L376.945 209.698C376.945 209.698 376.945 209.698 376.954 209.689C377.663 209.022 378.036 208.096 377.984 207.118L374.816 150.099C374.608 146.351 371.613 143.443 367.847 143.322L290.876 140.967C289.863 140.941 288.902 141.365 288.244 142.136C288.236 142.144 288.236 142.153 288.227 142.162C288.21 142.179 288.192 142.205 288.175 142.231C288.115 142.309 288.054 142.395 287.993 142.473C287.967 142.516 287.941 142.568 287.915 142.612C287.872 142.681 287.838 142.75 287.803 142.819C287.777 142.871 287.751 142.923 287.725 142.975C287.699 143.045 287.673 143.114 287.647 143.183C287.63 143.235 287.612 143.287 287.595 143.347C287.578 143.417 287.552 143.486 287.543 143.555C287.526 143.616 287.517 143.668 287.509 143.728C287.491 143.806 287.483 143.884 287.483 143.953C287.474 144.005 287.465 144.066 287.465 144.118C287.465 144.204 287.465 144.291 287.465 144.378C287.465 144.421 287.465 144.473 287.474 144.516C287.483 144.646 287.5 144.784 287.526 144.914L297.61 194.826C297.879 196.151 298.918 197.163 300.259 197.397L374.097 210.546Z" fill="#EF5048"/>
</g>
</g>
</g>
</g>
</g>
<mask id="mask31_61_25" style="mask-type:luminance" maskUnits="userSpaceOnUse" x="30" y="249" width="59" height="59">
<path d="M30.6084 249.118H88.6399V307.288H30.6084V249.118Z" fill="white"/>
</mask>
<g mask="url(#mask31_61_25)">
<path d="M61.5631 278.861C65.6835 278.844 69.8039 278.783 73.9243 278.679C78.7372 278.541 83.55 278.359 88.3629 277.995C83.55 277.641 78.7372 277.45 73.9243 277.32C69.8039 277.208 65.6835 277.156 61.5631 277.138C64.463 274.213 67.3369 271.261 70.1761 268.266C73.4828 264.769 76.7549 261.237 79.9057 257.575C76.2441 260.726 72.7124 263.998 69.2153 267.314C66.2202 270.144 63.2684 273.018 60.3426 275.927C60.334 271.806 60.2734 267.686 60.1608 263.557C60.031 258.744 59.8406 253.931 59.4856 249.118C59.1307 253.931 58.9403 258.744 58.8105 263.557C58.6979 267.677 58.646 271.806 58.6287 275.927C55.7029 273.018 52.7511 270.144 49.756 267.305C46.2589 263.998 42.7271 260.726 39.0656 257.575C42.2164 261.237 45.4885 264.777 48.7952 268.274C51.6344 271.261 54.5083 274.213 57.4081 277.138C53.2878 277.156 49.1674 277.208 45.047 277.32C40.2341 277.45 35.4213 277.641 30.6084 277.995C35.4213 278.359 40.2341 278.549 45.047 278.679C49.1674 278.792 53.2878 278.844 57.4081 278.861C54.5083 281.787 51.6344 284.739 48.7952 287.725C45.4885 291.222 42.2164 294.763 39.0656 298.416C42.7271 295.273 46.2589 292.001 49.756 288.695C52.7511 285.855 55.7029 282.981 58.6287 280.073C58.6373 284.193 58.6979 288.314 58.8018 292.434C58.9403 297.247 59.1221 302.06 59.4856 306.873C59.8492 302.06 60.031 297.247 60.1695 292.434C60.2734 288.314 60.334 284.193 60.3426 280.073C63.2684 282.981 66.2202 285.855 69.2153 288.686C72.7124 292.001 76.2441 295.265 79.9057 298.416C76.7549 294.763 73.4828 291.231 70.1761 287.725C67.3369 284.739 64.463 281.787 61.5631 278.861Z" fill="#DA7073"/>
</g>
<path d="M71.8685 364.375L66.467 350.317H69.8949L71.7647 355.303L73.4613 359.77L76.993 350.317H80.4209L75.0194 364.375H71.8685Z" fill="#2B4743"/>
<path d="M90.863 364.375V350.317H94.0485V364.375H90.863Z" fill="#2B4743"/>
<path d="M106.007 364.375V350.317H111.997C113.079 350.317 114.014 350.516 114.802 350.906C115.581 351.304 116.187 351.858 116.602 352.568C117.035 353.286 117.26 354.152 117.26 355.165C117.26 356.186 117.026 357.069 116.568 357.831C116.1 358.575 115.442 359.129 114.594 359.493L117.503 364.375H113.798L111.305 360.012H109.193V364.375H106.007ZM109.158 357.311H111.582C112.361 357.311 112.967 357.13 113.382 356.757C113.815 356.394 114.04 355.857 114.04 355.165C114.04 354.498 113.815 353.979 113.382 353.607C112.967 353.243 112.361 353.053 111.582 353.053H109.158V357.311Z" fill="#2B4743"/>
<path d="M132.077 364.375V353.295H127.611V350.317H139.73V353.295H135.263V364.375H132.077Z" fill="#2B4743"/>
<path d="M156.355 364.652C155.126 364.652 154.079 364.41 153.205 363.925C152.322 363.44 151.646 362.748 151.162 361.847C150.694 360.93 150.469 359.839 150.469 358.593V350.317H153.655V358.385C153.655 360.557 154.555 361.64 156.355 361.64C158.13 361.64 159.022 360.557 159.022 358.385V350.317H162.242V358.593C162.242 359.839 161.999 360.93 161.515 361.847C161.03 362.748 160.346 363.44 159.472 363.925C158.589 364.41 157.55 364.652 156.355 364.652Z" fill="#2B4743"/>
<path d="M172.519 364.375L178.093 350.317H181.244L186.819 364.375H183.426L182.456 361.951H176.882L175.947 364.375H172.519ZM177.713 359.424H181.66L179.686 354.299L177.713 359.424Z" fill="#2B4743"/>
<path d="M197.276 364.375V350.317H200.462V361.397H206.59V364.375H197.276Z" fill="#2B4743"/>
<path d="M229.192 364.375L234.767 350.317H237.918L243.493 364.375H240.099L239.13 361.951H233.555L232.62 364.375H229.192ZM234.386 359.424H238.333L236.36 354.299L234.386 359.424Z" fill="#2B4743"/>
<path d="M258.832 364.652C257.654 364.652 256.633 364.453 255.785 364.063C254.954 363.674 254.304 363.12 253.846 362.401C253.378 361.691 253.153 360.86 253.153 359.908H256.269C256.269 360.583 256.494 361.103 256.962 361.466C257.421 361.839 258.044 362.02 258.832 362.02C259.498 362.02 260.017 361.899 260.39 361.64C260.779 361.389 260.978 361.016 260.978 360.532C260.978 360.047 260.745 359.657 260.286 359.354C259.818 359.034 259.091 358.766 258.104 358.558C256.442 358.212 255.213 357.684 254.434 356.965C253.646 356.255 253.257 355.329 253.257 354.195C253.257 352.905 253.716 351.893 254.642 351.148C255.585 350.412 256.867 350.04 258.485 350.04C259.611 350.04 260.58 350.239 261.394 350.629C262.199 351.001 262.822 351.529 263.264 352.222C263.722 352.914 263.956 353.736 263.956 354.68H260.874C260.874 354.057 260.667 353.563 260.251 353.191C259.836 352.827 259.264 352.637 258.555 352.637C257.879 352.637 257.351 352.776 256.962 353.053C256.564 353.312 256.373 353.667 256.373 354.126C256.373 354.567 256.581 354.94 256.996 355.234C257.429 355.511 258.182 355.779 259.247 356.03C260.996 356.446 262.268 357.017 263.056 357.727C263.835 358.419 264.233 359.32 264.233 360.428C264.233 361.743 263.748 362.782 262.779 363.544C261.827 364.288 260.511 364.652 258.832 364.652Z" fill="#2B4743"/>
<path d="M280.279 364.652C279.102 364.652 278.08 364.453 277.232 364.063C276.401 363.674 275.752 363.12 275.293 362.401C274.825 361.691 274.6 360.86 274.6 359.908H277.717C277.717 360.583 277.942 361.103 278.409 361.466C278.868 361.839 279.491 362.02 280.279 362.02C280.945 362.02 281.465 361.899 281.837 361.64C282.226 361.389 282.426 361.016 282.426 360.532C282.426 360.047 282.192 359.657 281.733 359.354C281.266 359.034 280.539 358.766 279.552 358.558C277.89 358.212 276.661 357.684 275.881 356.965C275.094 356.255 274.704 355.329 274.704 354.195C274.704 352.905 275.163 351.893 276.089 351.148C277.033 350.412 278.314 350.04 279.933 350.04C281.058 350.04 282.027 350.239 282.841 350.629C283.646 351.001 284.269 351.529 284.711 352.222C285.17 352.914 285.403 353.736 285.403 354.68H282.322C282.322 354.057 282.114 353.563 281.698 353.191C281.283 352.827 280.712 352.637 280.002 352.637C279.327 352.637 278.799 352.776 278.409 353.053C278.011 353.312 277.82 353.667 277.82 354.126C277.82 354.567 278.028 354.94 278.444 355.234C278.877 355.511 279.63 355.779 280.694 356.03C282.443 356.446 283.715 357.017 284.503 357.727C285.282 358.419 285.68 359.32 285.68 360.428C285.68 361.743 285.196 362.782 284.226 363.544C283.274 364.288 281.958 364.652 280.279 364.652Z" fill="#2B4743"/>
<path d="M296.844 364.375V350.317H300.029V364.375H296.844Z" fill="#2B4743"/>
<path d="M316.87 364.652C315.693 364.652 314.671 364.453 313.823 364.063C312.992 363.674 312.343 363.12 311.884 362.401C311.417 361.691 311.192 360.86 311.192 359.908H314.308C314.308 360.583 314.533 361.103 315 361.466C315.459 361.839 316.082 362.02 316.87 362.02C317.537 362.02 318.056 361.899 318.428 361.64C318.818 361.389 319.017 361.016 319.017 360.532C319.017 360.047 318.783 359.657 318.324 359.354C317.857 359.034 317.13 358.766 316.143 358.558C314.481 358.212 313.252 357.684 312.473 356.965C311.685 356.255 311.296 355.329 311.296 354.195C311.296 352.905 311.754 351.893 312.681 351.148C313.624 350.412 314.905 350.04 316.524 350.04C317.649 350.04 318.619 350.239 319.432 350.629C320.237 351.001 320.861 351.529 321.302 352.222C321.761 352.914 321.995 353.736 321.995 354.68H318.913C318.913 354.057 318.705 353.563 318.29 353.191C317.874 352.827 317.303 352.637 316.593 352.637C315.918 352.637 315.39 352.776 315 353.053C314.602 353.312 314.412 353.667 314.412 354.126C314.412 354.567 314.62 354.94 315.035 355.234C315.468 355.511 316.221 355.779 317.286 356.03C319.034 356.446 320.307 357.017 321.094 357.727C321.873 358.419 322.272 359.32 322.272 360.428C322.272 361.743 321.787 362.782 320.817 363.544C319.865 364.288 318.549 364.652 316.87 364.652Z" fill="#2B4743"/>
<path d="M336.794 364.375V353.295H332.327V350.317H344.446V353.295H339.979V364.375H336.794Z" fill="#2B4743"/>
<path d="M353.801 364.375L359.375 350.317H362.526L368.101 364.375H364.707L363.738 361.951H358.163L357.228 364.375H353.801ZM358.994 359.424H362.942L360.968 354.299L358.994 359.424Z" fill="#2B4743"/>
<path d="M378.558 364.375V350.317H381.259L387.456 358.87V350.317H390.642V364.375H387.941L381.709 355.753V364.375H378.558Z" fill="#2B4743"/>
<path d="M405.953 364.375V353.295H401.487V350.317H413.605V353.295H409.139V364.375H405.953Z" fill="#2B4743"/>
<path d="M118.096 316.718C122.597 315.429 126.561 313.377 130.007 310.555C133.443 307.742 136.447 304.046 139.009 299.475C139.632 298.35 140.377 297.692 141.26 297.502C142.134 297.294 142.93 297.424 143.649 297.882C144.359 298.324 144.774 299.016 144.895 299.96C145.008 300.912 144.584 302.003 143.614 303.249C141.277 306.279 138.368 308.962 134.889 311.317C131.426 313.671 127.687 315.593 123.67 317.065C119.654 318.545 115.611 319.523 111.551 320.008C107.483 320.493 103.657 320.389 100.056 319.696C96.4722 319.021 93.4166 317.723 90.8803 315.784C88.37 313.845 86.6214 311.178 85.6519 307.785C84.6824 304.253 84.6045 300.67 85.4095 297.017C86.1973 293.372 87.6775 289.771 89.8415 286.214C92.0056 282.665 94.7064 279.289 97.9438 276.103C101.199 272.918 104.8 270.027 108.747 267.412C112.694 264.781 116.832 262.556 121.177 260.73C126.691 258.401 131.617 257.016 135.962 256.575C140.325 256.116 143.978 256.428 146.938 257.51C149.89 258.6 151.967 260.271 153.171 262.53C154.53 265.049 154.798 267.482 153.967 269.836C153.153 272.191 151.69 274.389 149.57 276.415C147.466 278.423 145.112 280.206 142.506 281.747C140.169 283.115 137.52 284.344 134.542 285.452C131.582 286.56 128.431 287.114 125.09 287.114C123.653 287.114 122.614 286.733 121.974 285.971C121.324 285.192 121.039 284.327 121.108 283.375C121.194 282.405 121.662 281.609 122.493 280.985C123.324 280.345 124.501 280.189 126.025 280.535C129.21 281.159 132.101 281.609 134.716 281.886C137.347 282.145 139.71 281.609 141.814 280.293C144.211 278.752 145.865 277.142 146.765 275.48C147.665 273.801 148.063 272.156 147.977 270.563C147.908 268.971 147.561 267.551 146.938 266.304C145.458 263.396 143.346 261.448 140.602 260.453C137.875 259.466 134.793 259.224 131.357 259.726C127.912 260.236 124.371 261.37 120.727 263.119C115.828 265.456 111.629 268.235 108.124 271.464C104.635 274.675 101.822 278.077 99.675 281.678C97.5456 285.262 96.0567 288.863 95.2084 292.481C94.3514 296.082 94.1004 299.475 94.4467 302.661C94.9054 306.288 96.0914 309.404 98.013 312.009C99.952 314.598 102.618 316.372 106.011 317.342C109.405 318.311 113.43 318.103 118.096 316.718Z" fill="#2B4743"/>
<path d="M151.046 317.584C149.661 316.225 149.219 314.632 149.73 312.806C150.258 310.988 151.92 308.85 154.716 306.4C156.465 304.877 158.196 303.345 159.91 301.795C161.615 300.254 162.922 298.679 163.823 297.086C164.394 296.143 164.394 295.303 163.823 294.558C163.269 293.797 162.541 293.277 161.641 293C160.758 292.723 160.066 292.845 159.564 293.347C158.776 294.091 157.668 295.182 156.24 296.636C154.803 298.09 153.262 299.683 151.6 301.414C149.955 303.145 148.38 304.868 146.856 306.573L146.337 305.985L157.59 293.104C158.118 292.464 158.3 291.745 158.144 290.957C158.006 290.152 157.798 289.278 157.521 288.326C157.244 287.356 157.105 286.335 157.105 285.244C157.105 284.327 157.382 283.6 157.936 283.063C158.508 282.535 159.191 282.223 159.979 282.128C160.784 282.042 161.511 282.223 162.161 282.682C162.827 283.15 163.243 283.885 163.407 284.898C163.52 285.755 163.372 286.482 162.957 287.079C162.559 287.685 162.308 288.603 162.195 289.849C162.195 290.36 162.446 290.845 162.957 291.304C163.485 291.771 164.082 292.256 164.757 292.758C165.45 293.269 166.047 293.823 166.558 294.42C167.06 295.026 167.294 295.753 167.25 296.601C167.181 298.012 166.696 299.406 165.796 300.791C164.896 302.159 163.831 303.448 162.611 304.669C161.381 305.898 160.204 307.015 159.079 308.028C157.971 309.049 157.157 309.984 156.655 310.832C156.144 311.689 156.144 312.425 156.655 313.048C157.85 314.433 159.884 314.381 162.749 312.875C165.632 311.352 169.406 308.088 174.072 303.076L174.66 303.319C171.769 307.197 168.783 310.486 165.692 313.187C162.619 315.887 159.789 317.688 157.209 318.588C154.621 319.462 152.569 319.125 151.046 317.584Z" fill="#2B4743"/>
<path d="M172.534 318.276C170.595 316.961 169.504 315.299 169.279 313.29C169.071 311.265 169.435 309.118 170.387 306.85C171.356 304.565 172.724 302.401 174.507 300.341C176.325 298.177 178.359 296.35 180.601 294.87C182.835 293.398 185.007 292.472 187.111 292.1C189.232 291.736 190.92 292.091 192.166 293.173C193.014 293.918 193.378 295 193.239 296.428C193.101 297.839 192.521 299.363 191.508 300.999C190.513 302.617 189.162 304.149 187.457 305.604C185.769 307.058 183.726 308.157 181.328 308.893C180.238 309.222 179.363 309.17 178.697 308.755C178.048 308.322 177.658 307.733 177.52 306.989C177.381 306.253 177.502 305.595 177.901 305.015C178.316 304.418 179.026 304.115 180.047 304.115C182.765 304.115 184.973 303.699 186.661 302.868C188.34 302.037 189.587 301.016 190.4 299.787C191.231 298.566 191.647 297.389 191.647 296.255C191.647 295.104 191.335 294.247 190.712 293.693C189.967 292.957 188.998 292.784 187.803 293.173C186.626 293.572 185.345 294.316 183.96 295.424C182.592 296.532 181.294 297.839 180.047 299.337C178.844 300.704 177.831 302.193 177 303.803C176.187 305.422 175.728 307.006 175.615 308.547C175.494 310.07 175.866 311.473 176.723 312.736C177.918 314.329 179.528 315.048 181.536 314.883C183.562 314.701 185.864 313.793 188.427 312.148C190.989 310.486 193.655 308.261 196.425 305.465L196.944 305.985C195.507 307.854 193.768 309.759 191.716 311.698C189.682 313.637 187.509 315.316 185.206 316.718C182.895 318.103 180.636 318.986 178.42 319.384C176.204 319.774 174.239 319.402 172.534 318.276Z" fill="#2B4743"/>
<path d="M196.165 317.826C194.573 316.537 193.941 314.883 194.261 312.875C194.564 310.849 195.559 308.677 197.239 306.365C198.918 304.063 200.926 301.795 203.263 299.579C205.592 297.415 207.92 295.692 210.258 294.42C212.586 293.13 214.69 292.334 216.559 292.031C218.446 291.71 219.849 291.918 220.749 292.654C221.485 293.234 221.857 294.03 221.857 295.043C222.039 294.766 222.212 294.489 222.376 294.212C222.558 293.918 222.757 293.649 222.965 293.416C223.493 292.68 224.151 292.264 224.939 292.169C225.744 292.057 226.471 292.187 227.12 292.55C227.761 292.922 228.167 293.485 228.332 294.247C228.514 295.008 228.211 295.9 227.432 296.913C226.895 297.605 226.081 298.471 224.973 299.51C223.865 300.531 222.662 301.639 221.372 302.834C220.1 304.011 218.923 305.206 217.841 306.4C216.776 307.603 216.005 308.746 215.521 309.828C215.036 310.919 215.071 311.854 215.625 312.633C216.776 314.295 218.793 314.45 221.684 313.083C224.592 311.698 228.124 308.789 232.279 304.357L232.868 304.703C230.946 307.266 228.921 309.603 226.774 311.698C224.644 313.801 222.558 315.524 220.507 316.857C218.446 318.199 216.594 319.004 214.932 319.281C213.287 319.575 211.989 319.185 211.019 318.103C210.275 317.255 210.024 316.225 210.258 315.022C210.483 313.827 210.967 312.546 211.712 311.178C209.842 313.239 207.946 314.944 206.033 316.303C204.138 317.671 202.337 318.51 200.632 318.83C198.918 319.125 197.429 318.796 196.165 317.826ZM202.225 313.048C202.96 313.905 203.887 314.182 204.995 313.879C206.12 313.559 207.315 312.892 208.561 311.871C209.808 310.858 211.071 309.681 212.37 308.339C213.686 307.006 214.88 305.734 215.971 304.53C216.707 303.405 217.39 302.297 218.014 301.206C218.654 300.124 219.312 299.042 219.987 297.952C220.446 296.87 220.628 296.004 220.541 295.355C220.446 294.714 220.178 294.177 219.745 293.762C218.888 293.026 217.607 292.966 215.902 293.589C214.188 294.212 212.378 295.251 210.465 296.705C208.57 298.159 206.882 299.778 205.41 301.553C203.627 303.587 202.363 305.673 201.601 307.82C200.84 309.949 201.047 311.689 202.225 313.048Z" fill="#2B4743"/>
<path d="M227.159 318.346C226.034 317.22 225.523 315.853 225.636 314.26C225.757 312.667 226.294 310.962 227.263 309.135C228.215 307.318 229.375 305.465 230.76 303.595C232.119 301.708 233.513 299.891 234.95 298.159C236.404 296.428 237.668 294.905 238.759 293.589C238.014 293.71 237.279 293.857 236.543 294.039C235.798 294.203 235.037 294.281 234.257 294.281C233.842 294.281 233.496 294.16 233.219 293.9C232.942 293.649 232.803 293.329 232.803 292.931C232.803 292.472 232.942 292.1 233.219 291.823C233.496 291.529 233.842 291.373 234.257 291.373C235.227 291.373 236.179 291.459 237.131 291.615C238.101 291.754 239.044 291.884 239.971 291.996C241.165 290.455 242.394 288.793 243.641 287.01C244.887 285.21 246.082 283.496 247.242 281.851C248.419 280.189 249.458 278.787 250.358 277.627C251.276 276.449 252.245 275.757 253.267 275.549C254.305 275.341 255.154 275.506 255.829 276.034C256.521 276.545 256.868 277.272 256.868 278.215C256.868 279.142 256.296 280.146 255.171 281.228C254.011 282.318 252.34 283.703 250.15 285.383C247.952 287.045 245.614 289.252 243.121 291.996C244.022 291.884 244.896 291.754 245.753 291.615C246.601 291.459 247.493 291.373 248.419 291.373C248.809 291.373 249.146 291.529 249.423 291.823C249.718 292.1 249.873 292.472 249.873 292.931C249.873 293.329 249.718 293.649 249.423 293.9C249.146 294.16 248.809 294.281 248.419 294.281C247.328 294.281 246.238 294.16 245.13 293.9C244.022 293.649 242.922 293.468 241.84 293.346L240.559 294.87C237.097 299.094 234.474 302.799 232.699 305.985C230.942 309.17 230.691 311.525 231.938 313.048C233.02 314.321 234.993 314.295 237.858 312.979C240.741 311.663 244.281 308.755 248.488 304.253L249.112 304.53C247.216 306.98 245.199 309.257 243.052 311.351C240.923 313.455 238.845 315.221 236.82 316.649C234.811 318.086 232.95 318.978 231.245 319.35C229.54 319.713 228.181 319.384 227.159 318.346Z" fill="#2B4743"/>
<path d="M247.985 318.173C247.136 317.16 246.911 315.922 247.327 314.468C247.725 313.014 248.461 311.455 249.543 309.793C250.599 308.114 251.672 306.435 252.763 304.773C253.957 302.903 255.126 301.033 256.26 299.164C257.385 297.277 258.649 295.389 260.034 293.52C260.536 292.827 261.177 292.412 261.939 292.273C262.7 292.135 263.401 292.239 264.051 292.585C264.717 292.931 265.133 293.476 265.297 294.212C265.479 294.957 265.202 295.831 264.466 296.844C263.955 297.536 263.124 298.428 261.973 299.51C260.839 300.575 259.601 301.743 258.268 303.007C256.927 304.253 255.715 305.5 254.633 306.746C253.542 307.993 252.806 309.17 252.417 310.278C252.018 311.386 252.218 312.347 253.005 313.152C254.321 314.399 256.329 314.347 259.03 312.979C261.731 311.62 265.133 308.772 269.244 304.427L269.833 304.704C267.894 307.197 265.834 309.508 263.67 311.629C261.523 313.732 259.42 315.455 257.368 316.788C255.308 318.129 253.455 318.943 251.793 319.246C250.157 319.566 248.885 319.211 247.985 318.173ZM265.401 283.617C266.301 282.301 267.357 281.462 268.587 281.089C269.807 280.726 270.88 280.847 271.807 281.47C272.655 282.05 273.096 282.994 273.122 284.309C273.14 285.608 272.724 286.854 271.876 288.049C271.019 289.295 269.98 290.109 268.76 290.473C267.53 290.845 266.44 290.75 265.47 290.196C264.613 289.624 264.189 288.664 264.189 287.322C264.189 285.989 264.587 284.751 265.401 283.617Z" fill="#2B4743"/>
<path d="M266.487 318.277C265.241 317.194 264.955 315.541 265.622 313.325C266.271 311.109 267.734 308.512 270.019 305.535C271.82 303.163 273.456 300.843 274.936 298.575C276.433 296.29 277.637 294.576 278.537 293.416C279.16 292.637 279.861 292.204 280.649 292.135C281.454 292.048 282.138 292.23 282.692 292.689C283.263 293.13 283.532 293.762 283.488 294.593C283.436 295.407 282.839 296.324 281.688 297.363C280.554 298.454 278.987 299.743 276.979 301.241C274.988 302.747 273.101 304.556 271.3 306.677C270.262 307.924 269.647 309.257 269.465 310.659C269.301 312.044 269.759 313.213 270.85 314.156C272.322 315.541 274.295 315.766 276.771 314.814C279.264 313.87 281.904 312.096 284.7 309.482C284.233 307.889 284.562 305.734 285.67 303.007C286.778 300.263 288.976 296.982 292.283 293.173C292.95 292.394 293.789 292.022 294.811 292.065C295.849 292.117 296.689 292.472 297.338 293.139C298.005 293.788 298.083 294.628 297.581 295.666C297.459 295.943 297.304 296.246 297.096 296.567C296.905 296.87 296.585 297.354 296.126 298.021C295.659 298.67 294.889 299.674 293.807 301.033C293.253 301.89 292.612 302.747 291.902 303.596C291.184 304.452 290.431 305.309 289.652 306.158L287.678 308.547C288.526 309.681 289.703 310.408 291.21 310.728C292.707 311.031 294.447 310.685 296.438 309.69C298.446 308.703 300.61 306.868 302.948 304.184L303.536 304.53C301.597 307.023 299.52 308.98 297.304 310.382C295.088 311.767 292.993 312.589 291.037 312.84C289.072 313.1 287.487 312.797 286.293 311.94C285.895 311.663 285.505 311.239 285.116 310.659C282.83 312.788 280.485 314.632 278.087 316.199C275.706 317.748 273.499 318.753 271.473 319.211C269.465 319.67 267.803 319.359 266.487 318.277Z" fill="#2B4743"/>
<path d="M304.137 318.276C302.198 316.961 301.108 315.299 300.883 313.29C300.675 311.265 301.039 309.118 301.991 306.85C302.96 304.565 304.328 302.401 306.111 300.341C307.929 298.177 309.963 296.35 312.205 294.87C314.438 293.398 316.611 292.472 318.715 292.1C320.835 291.736 322.523 292.091 323.77 293.173C324.618 293.918 324.982 295 324.843 296.428C324.705 297.839 324.125 299.363 323.112 300.999C322.117 302.617 320.766 304.149 319.061 305.604C317.373 307.058 315.33 308.157 312.932 308.893C311.842 309.222 310.967 309.17 310.301 308.755C309.652 308.322 309.262 307.733 309.123 306.989C308.985 306.253 309.106 305.595 309.504 305.015C309.92 304.418 310.63 304.115 311.651 304.115C314.369 304.115 316.577 303.699 318.264 302.868C319.944 302.037 321.19 301.016 322.004 299.787C322.835 298.566 323.25 297.389 323.25 296.255C323.25 295.104 322.939 294.247 322.316 293.693C321.571 292.957 320.602 292.784 319.407 293.173C318.23 293.572 316.949 294.316 315.564 295.424C314.196 296.532 312.898 297.839 311.651 299.337C310.448 300.704 309.435 302.193 308.604 303.803C307.79 305.422 307.332 307.006 307.219 308.547C307.098 310.07 307.47 311.473 308.327 312.736C309.522 314.329 311.132 315.048 313.14 314.883C315.166 314.701 317.468 313.793 320.03 312.148C322.593 310.486 325.259 308.261 328.029 305.465L328.548 305.985C327.111 307.854 325.371 309.759 323.32 311.698C321.286 313.637 319.113 315.316 316.81 316.718C314.499 318.103 312.24 318.986 310.024 319.384C307.808 319.774 305.843 319.402 304.137 318.276Z" fill="#2B4743"/>
<path d="M376.002 319.454C372.765 319.869 369.571 319.783 366.411 319.211C363.243 318.64 360.386 317.61 357.824 316.13C355.262 314.658 353.202 312.762 351.661 310.451C350.137 308.149 349.375 305.457 349.375 302.384C349.375 299.891 350.111 297.605 351.591 295.528C353.063 293.45 355.123 291.788 357.755 290.542C360.404 289.278 363.468 288.603 366.93 288.534C370.41 288.447 374.115 289.114 378.045 290.542C379.361 290.983 380.2 291.667 380.573 292.585C380.936 293.485 380.953 294.368 380.607 295.216C380.261 296.073 379.681 296.688 378.876 297.051C378.088 297.424 377.162 297.328 376.106 296.774C372.687 294.835 369.475 293.58 366.48 293C363.502 292.429 360.88 292.438 358.62 293.035C356.378 293.641 354.647 294.731 353.427 296.324C352.197 297.917 351.669 299.917 351.834 302.314C352.016 304.652 352.786 306.66 354.154 308.339C355.513 310.001 357.287 311.343 359.486 312.356C361.676 313.351 364.091 314.009 366.723 314.329C369.371 314.632 372.038 314.572 374.721 314.156C378.019 313.654 381.101 312.624 383.966 311.074C386.848 309.508 389.177 307.396 390.96 304.738C392.761 302.089 393.6 298.912 393.488 295.216C393.436 292.888 392.864 290.776 391.756 288.88C390.648 286.967 389.411 285.132 388.052 283.374C386.892 281.782 385.706 280.137 384.485 278.423C383.256 276.718 382.347 274.909 381.75 272.987C381.17 271.074 381.196 269.066 381.819 266.962C382.598 264.287 384.052 262.071 386.182 260.314C388.329 258.566 390.804 257.25 393.626 256.367C396.44 255.467 399.313 254.999 402.248 254.947C405.174 254.878 407.866 255.216 410.315 255.951C412.757 256.696 414.661 257.821 416.029 259.345C417.388 260.851 417.907 262.738 417.587 265.023C417.24 267.057 416.323 268.763 414.851 270.148C413.371 271.515 411.614 272.606 409.588 273.437C407.58 274.251 405.581 274.813 403.598 275.134C401.633 275.437 400.006 275.532 398.716 275.411C397.47 275.255 396.682 274.753 396.362 273.922C396.033 273.091 396.128 272.329 396.639 271.637C397.167 270.927 397.998 270.702 399.132 270.979C403.442 272.069 406.87 272.243 409.415 271.498C411.952 270.762 412.99 268.659 412.531 265.196C412.254 262.911 411.337 261.076 409.796 259.691C408.273 258.289 406.412 257.371 404.221 256.956C402.023 256.523 399.772 256.592 397.47 257.163C395.158 257.717 393.107 258.791 391.306 260.383C389.523 261.976 388.268 264.149 387.532 266.893C386.606 270.546 386.398 273.532 386.909 275.861C387.437 278.198 388.329 280.276 389.575 282.093C390.475 283.392 391.454 284.647 392.518 285.867C393.574 287.097 394.561 288.412 395.461 289.815C396.379 291.2 397.037 292.827 397.435 294.697C398.335 298.462 398.076 302.107 396.673 305.638C395.288 309.17 392.864 312.2 389.402 314.71C385.939 317.203 381.473 318.787 376.002 319.454Z" fill="#2B4743"/>
<path d="M401.608 318.173C400.759 317.16 400.534 315.922 400.95 314.468C401.348 313.014 402.084 311.455 403.166 309.793C404.222 308.114 405.295 306.435 406.386 304.773C407.58 302.903 408.749 301.033 409.883 299.164C411.008 297.277 412.272 295.389 413.657 293.52C414.159 292.827 414.8 292.412 415.562 292.273C416.323 292.135 417.024 292.239 417.674 292.585C418.34 292.931 418.756 293.476 418.92 294.212C419.102 294.957 418.825 295.831 418.089 296.844C417.578 297.536 416.747 298.428 415.596 299.51C414.462 300.575 413.224 301.743 411.891 303.007C410.55 304.253 409.338 305.5 408.256 306.746C407.165 307.993 406.429 309.17 406.04 310.278C405.641 311.386 405.841 312.347 406.628 313.152C407.944 314.399 409.952 314.347 412.653 312.979C415.354 311.62 418.756 308.772 422.867 304.427L423.456 304.704C421.517 307.197 419.457 309.508 417.293 311.629C415.146 313.732 413.043 315.455 410.991 316.788C408.931 318.129 407.078 318.943 405.416 319.246C403.78 319.566 402.508 319.211 401.608 318.173ZM419.024 283.617C419.924 282.301 420.98 281.462 422.21 281.089C423.43 280.726 424.503 280.847 425.43 281.47C426.278 282.05 426.719 282.994 426.745 284.309C426.763 285.608 426.347 286.854 425.499 288.049C424.642 289.295 423.603 290.109 422.383 290.473C421.153 290.845 420.063 290.75 419.093 290.196C418.236 289.624 417.812 288.664 417.812 287.322C417.812 285.989 418.21 284.751 419.024 283.617Z" fill="#2B4743"/>
<path d="M437.977 318.346C437.051 317.376 436.609 316.19 436.661 314.779C436.73 313.351 437.128 311.836 437.873 310.244C436.003 312.46 434.038 314.347 431.987 315.887C429.926 317.411 428.005 318.398 426.204 318.831C424.421 319.246 422.88 318.943 421.564 317.93C419.972 316.615 419.34 314.953 419.66 312.944C419.963 310.919 420.959 308.755 422.638 306.469C424.317 304.167 426.325 301.89 428.663 299.648C430.991 297.502 433.32 295.796 435.657 294.524C437.985 293.234 440.089 292.438 441.959 292.135C443.846 291.814 445.248 292.022 446.148 292.758C446.771 293.199 447.126 293.779 447.222 294.489C447.308 295.208 447.204 295.969 446.91 296.774C447.715 295.805 448.451 294.939 449.126 294.178C449.818 293.398 450.355 292.715 450.753 292.135C451.489 291.234 452.459 289.988 453.662 288.395C454.856 286.802 456.164 285.063 457.574 283.167C459.003 281.254 460.396 279.358 461.764 277.488C463.149 275.601 464.404 273.905 465.538 272.398C466.664 270.875 467.521 269.75 468.1 269.005C469.001 267.828 469.918 267.187 470.87 267.066C471.814 266.954 472.61 267.17 473.26 267.724C473.9 268.261 474.238 268.988 474.264 269.905C474.307 270.806 473.848 271.706 472.879 272.606C471.953 273.463 470.368 274.926 468.135 277.004C465.893 279.081 463.366 281.565 460.552 284.448C457.73 287.313 455.012 290.36 452.381 293.589C450.113 296.454 448.087 299.181 446.287 301.76C444.486 304.349 443.222 306.625 442.513 308.582C441.82 310.547 441.898 312.035 442.755 313.048C443.837 314.321 445.811 314.295 448.676 312.979C451.558 311.663 455.099 308.755 459.306 304.253L459.894 304.53C458.025 306.98 456.016 309.257 453.87 311.352C451.74 313.455 449.663 315.221 447.637 316.649C445.629 318.086 443.768 318.978 442.062 319.35C440.349 319.713 438.99 319.385 437.977 318.346ZM427.624 313.152C428.541 314.173 429.736 314.381 431.19 313.775C432.644 313.178 434.177 312.113 435.795 310.59C437.405 309.049 438.929 307.396 440.366 305.638C440.989 304.669 441.63 303.691 442.305 302.695C442.997 301.708 443.707 300.748 444.452 299.821C445.075 298.852 445.473 297.9 445.663 296.948C445.871 295.978 445.698 295.286 445.144 294.87C444.218 294.134 443.032 293.918 441.578 294.212C440.141 294.489 438.6 295.164 436.938 296.22C435.293 297.259 433.727 298.523 432.229 299.995C430.749 301.475 429.502 303.042 428.489 304.704C427.468 306.348 426.845 307.906 426.62 309.378C426.386 310.858 426.724 312.113 427.624 313.152Z" fill="#2B4743"/>
<path d="M461.857 318.276C459.918 316.961 458.827 315.299 458.602 313.29C458.394 311.265 458.758 309.118 459.71 306.85C460.68 304.565 462.047 302.401 463.831 300.341C465.648 298.177 467.683 296.35 469.925 294.87C472.158 293.398 474.331 292.472 476.434 292.1C478.555 291.736 480.243 292.091 481.489 293.173C482.338 293.918 482.701 295 482.563 296.428C482.424 297.839 481.844 299.363 480.831 300.999C479.836 302.617 478.486 304.149 476.78 305.604C475.092 307.058 473.049 308.157 470.652 308.893C469.561 309.222 468.687 309.17 468.02 308.755C467.371 308.322 466.981 307.733 466.843 306.989C466.704 306.253 466.826 305.595 467.224 305.015C467.639 304.418 468.349 304.115 469.371 304.115C472.089 304.115 474.296 303.699 475.984 302.868C477.663 302.037 478.91 301.016 479.723 299.787C480.554 298.566 480.97 297.389 480.97 296.255C480.97 295.104 480.658 294.247 480.035 293.693C479.291 292.957 478.321 292.784 477.127 293.173C475.949 293.572 474.668 294.316 473.283 295.424C471.916 296.532 470.617 297.839 469.371 299.337C468.167 300.704 467.155 302.193 466.324 303.803C465.51 305.422 465.051 307.006 464.939 308.547C464.817 310.07 465.19 311.473 466.047 312.736C467.241 314.329 468.851 315.048 470.859 314.883C472.885 314.701 475.188 313.793 477.75 312.148C480.312 310.486 482.978 308.261 485.748 305.465L486.268 305.985C484.831 307.854 483.091 309.759 481.039 311.698C479.005 313.637 476.832 315.316 474.53 316.718C472.218 318.103 469.959 318.986 467.743 319.384C465.527 319.774 463.562 319.402 461.857 318.276Z" fill="#2B4743"/>
<path d="M485.177 317.515C484.329 318.761 483.359 319.402 482.268 319.454C481.186 319.523 480.381 319.159 479.845 318.38C479.291 317.575 479.325 316.537 479.949 315.264C480.572 314.087 481.611 312.589 483.065 310.763C484.519 308.945 486.458 306.504 488.882 303.457C491.306 300.41 494.266 296.48 497.78 291.65C498.473 290.68 499.39 289.391 500.55 287.772C501.728 286.136 503.009 284.361 504.394 282.44C505.796 280.501 507.198 278.596 508.583 276.727C509.986 274.839 511.267 273.143 512.427 271.637C513.604 270.113 514.522 268.988 515.197 268.243C516.348 267.049 517.482 266.529 518.59 266.685C519.698 266.824 520.46 267.395 520.875 268.382C521.308 269.377 520.988 270.555 519.906 271.914C519.395 272.537 518.105 273.801 516.028 275.688C513.95 277.558 511.466 279.929 508.583 282.786C505.718 285.625 502.81 288.863 499.858 292.481C499.209 293.295 498.334 294.61 497.226 296.428C496.118 298.255 494.941 300.237 493.695 302.384C495.287 300.678 497.053 299.051 498.992 297.502C500.931 295.935 502.844 294.61 504.74 293.52C506.653 292.438 508.384 291.823 509.934 291.685C511.501 291.546 512.712 292.083 513.569 293.277C514.539 294.576 514.79 295.891 514.331 297.225C513.89 298.566 512.955 299.821 511.527 300.999C510.116 302.159 508.41 303.206 506.402 304.15C504.411 305.076 502.334 305.803 500.17 306.331C499.962 306.383 499.685 306.461 499.339 306.573C500.516 306.417 501.728 306.383 502.974 306.469C504.238 306.539 505.069 307.084 505.467 308.097C505.761 308.841 505.744 309.508 505.398 310.105C505.052 310.711 504.619 311.282 504.117 311.836C503.606 312.373 503.217 312.91 502.94 313.464C502.68 314 502.784 314.598 503.251 315.264C503.753 315.957 504.956 315.948 506.852 315.23C508.765 314.52 511.007 313.282 513.569 311.525C516.132 309.776 518.573 307.577 520.91 304.946L521.429 305.465C520.114 307.11 518.529 308.755 516.686 310.417C514.833 312.061 512.894 313.568 510.869 314.953C508.86 316.32 506.887 317.428 504.948 318.277C503.026 319.125 501.312 319.592 499.789 319.662C498.282 319.748 497.131 319.35 496.326 318.45C495.469 317.368 495.201 316.398 495.53 315.541C495.85 314.693 496.404 313.896 497.192 313.152C497.997 312.416 498.724 311.724 499.373 311.075C500.014 310.408 500.256 309.759 500.1 309.136C499.936 308.564 499.564 308.296 498.992 308.339C498.412 308.365 497.746 308.443 496.984 308.582C496.222 308.72 495.495 308.737 494.803 308.616C494.058 308.504 493.599 308.183 493.418 307.647C493.253 307.093 493.322 306.565 493.625 306.054C493.946 305.552 494.474 305.292 495.218 305.292C495.954 305.292 496.716 305.284 497.503 305.258C498.308 305.24 499.036 305.136 499.685 304.946C501.667 304.392 503.424 303.734 504.948 302.972C506.489 302.193 507.597 301.293 508.272 300.272C508.964 299.233 508.973 298.151 508.306 297.017C507.77 296.047 506.766 295.753 505.294 296.117C503.814 296.489 502.126 297.285 500.239 298.506C498.369 299.735 496.551 301.198 494.803 302.903C493.045 304.617 491.591 306.348 490.44 308.097L485.177 317.515Z" fill="#2B4743"/>
<path d="M517.166 318.173C516.318 317.16 516.093 315.922 516.508 314.468C516.907 313.014 517.642 311.455 518.724 309.793C519.78 308.114 520.854 306.435 521.945 304.773C523.139 302.903 524.308 301.033 525.442 299.164C526.567 297.277 527.831 295.389 529.216 293.52C529.718 292.827 530.358 292.412 531.12 292.273C531.882 292.135 532.583 292.239 533.232 292.585C533.899 292.931 534.314 293.476 534.479 294.212C534.661 294.957 534.384 295.831 533.648 296.844C533.137 297.536 532.306 298.428 531.155 299.51C530.021 300.575 528.783 301.743 527.45 303.007C526.108 304.253 524.896 305.5 523.814 306.746C522.724 307.993 521.988 309.17 521.598 310.278C521.2 311.386 521.399 312.347 522.187 313.152C523.503 314.399 525.511 314.347 528.212 312.979C530.912 311.62 534.314 308.772 538.426 304.427L539.015 304.704C537.076 307.197 535.015 309.508 532.851 311.629C530.705 313.732 528.601 315.455 526.55 316.788C524.489 318.129 522.637 318.943 520.975 319.246C519.339 319.566 518.067 319.211 517.166 318.173ZM534.583 283.617C535.483 282.301 536.539 281.462 537.768 281.089C538.989 280.726 540.062 280.847 540.988 281.47C541.837 282.05 542.278 282.994 542.304 284.309C542.321 285.608 541.906 286.854 541.058 288.049C540.201 289.295 539.162 290.109 537.941 290.473C536.712 290.845 535.621 290.75 534.652 290.196C533.795 289.624 533.371 288.664 533.371 287.322C533.371 285.989 533.769 284.751 534.583 283.617Z" fill="#2B4743"/>
<path d="M540.205 318.277C538.266 316.961 537.175 315.299 536.95 313.291C536.742 311.265 537.106 309.118 538.058 306.85C539.027 304.565 540.395 302.401 542.178 300.341C543.996 298.177 546.03 296.324 548.272 294.801C550.506 293.26 552.678 292.29 554.782 291.892C556.903 291.503 558.59 291.927 559.837 293.173C560.919 294.143 561.412 295.337 561.326 296.74C561.257 298.125 560.841 299.501 560.079 300.86C559.335 302.228 558.461 303.353 557.448 304.253C556.426 305.18 555.405 305.465 554.366 305.119C553.345 304.773 552.652 304.106 552.289 303.111C551.917 302.124 552.159 301.12 553.016 300.098C553.475 299.596 554.107 299.086 554.92 298.575C555.751 298.047 556.548 297.528 557.309 297.017C558.088 296.515 558.625 295.969 558.902 295.389C559.179 294.818 559.006 294.247 558.383 293.693C557.638 292.957 556.669 292.784 555.474 293.173C554.297 293.572 553.016 294.316 551.631 295.424C550.263 296.532 548.965 297.839 547.718 299.337C546.515 300.704 545.502 302.193 544.671 303.803C543.858 305.422 543.399 307.006 543.286 308.547C543.165 310.07 543.537 311.473 544.394 312.737C545.589 314.329 547.199 315.048 549.207 314.883C551.233 314.702 553.535 313.793 556.097 312.148C558.66 310.486 561.326 308.261 564.096 305.465L564.615 305.985C562.858 308.088 560.919 310.105 558.798 312.044C556.695 313.983 554.539 315.628 552.323 316.961C550.107 318.277 547.961 319.09 545.883 319.419C543.806 319.739 541.91 319.359 540.205 318.277Z" fill="#2B4743"/>
<path d="M563.525 317.515C562.676 318.761 561.707 319.402 560.616 319.454C559.534 319.523 558.729 319.159 558.192 318.38C557.638 317.575 557.673 316.537 558.296 315.264C558.919 314.087 559.958 312.589 561.412 310.763C562.867 308.945 564.806 306.504 567.229 303.457C569.653 300.41 572.614 296.48 576.128 291.65C576.821 290.68 577.738 289.391 578.898 287.772C580.075 286.136 581.356 284.361 582.741 282.44C584.144 280.501 585.546 278.596 586.931 276.727C588.333 274.839 589.615 273.143 590.774 271.637C591.952 270.113 592.869 268.988 593.544 268.243C594.696 267.049 595.83 266.529 596.938 266.685C598.046 266.824 598.807 267.395 599.223 268.382C599.656 269.377 599.335 270.555 598.253 271.914C597.743 272.537 596.453 273.801 594.375 275.688C592.298 277.558 589.814 279.929 586.931 282.786C584.066 285.625 581.157 288.863 578.206 292.481C577.556 293.295 576.682 294.61 575.574 296.428C574.466 298.255 573.289 300.237 572.042 302.384C573.635 300.678 575.401 299.051 577.34 297.502C579.279 295.935 581.192 294.61 583.088 293.52C585.001 292.438 586.732 291.823 588.281 291.685C589.848 291.546 591.06 292.083 591.917 293.277C592.887 294.576 593.138 295.891 592.679 297.225C592.237 298.566 591.302 299.821 589.874 300.999C588.463 302.159 586.758 303.206 584.75 304.15C582.759 305.076 580.681 305.803 578.517 306.331C578.309 306.383 578.032 306.461 577.686 306.573C578.863 306.417 580.075 306.383 581.322 306.469C582.586 306.539 583.417 307.084 583.815 308.097C584.109 308.841 584.092 309.508 583.746 310.105C583.399 310.711 582.967 311.282 582.464 311.836C581.954 312.373 581.564 312.91 581.287 313.464C581.028 314 581.131 314.598 581.599 315.264C582.101 315.957 583.304 315.948 585.2 315.23C587.113 314.52 589.355 313.282 591.917 311.525C594.479 309.776 596.92 307.577 599.258 304.946L599.777 305.465C598.461 307.11 596.877 308.755 595.033 310.417C593.181 312.061 591.242 313.568 589.216 314.953C587.208 316.32 585.234 317.428 583.295 318.277C581.374 319.125 579.66 319.592 578.136 319.662C576.63 319.748 575.479 319.35 574.674 318.45C573.817 317.368 573.549 316.398 573.877 315.541C574.198 314.693 574.752 313.896 575.539 313.152C576.344 312.416 577.072 311.724 577.721 311.075C578.361 310.408 578.604 309.759 578.448 309.136C578.283 308.564 577.911 308.296 577.34 308.339C576.76 308.365 576.093 308.443 575.332 308.582C574.57 308.72 573.843 308.737 573.15 308.616C572.406 308.504 571.947 308.183 571.765 307.647C571.601 307.093 571.67 306.565 571.973 306.054C572.293 305.552 572.821 305.292 573.566 305.292C574.302 305.292 575.063 305.284 575.851 305.258C576.656 305.24 577.383 305.136 578.032 304.946C580.015 304.392 581.772 303.734 583.295 302.972C584.836 302.193 585.944 301.293 586.619 300.272C587.312 299.233 587.321 298.151 586.654 297.017C586.117 296.047 585.113 295.753 583.642 296.117C582.161 296.489 580.474 297.285 578.586 298.506C576.717 299.735 574.899 301.198 573.15 302.903C571.393 304.617 569.939 306.348 568.788 308.097L563.525 317.515Z" fill="#2B4743"/>
</svg>
