<svg width="40" height="40" viewBox="0 0 40 40" fill="none" xmlns="http://www.w3.org/2000/svg">
<path fill-rule="evenodd" clip-rule="evenodd" d="M10.329 15.3624H0V28.6957C0 34.9391 5.06233 40 11.3043 40H28.6957C34.9391 40 40 34.9391 40 28.6957V15.3624H29.6725C30.3464 16.7653 30.7246 18.3392 30.7246 20C30.7246 25.9189 25.9189 30.7246 20 30.7246C14.0812 30.7246 9.27536 25.9189 9.27536 20C9.27536 18.3392 9.65362 16.7653 10.329 15.3624Z" fill="#F7E6D4"/>
<path d="M27.8261 19.9999C27.8261 20.5138 27.776 21.0227 27.6758 21.5267C27.5755 22.0307 27.427 22.5201 27.2304 22.9948C27.0338 23.4696 26.7927 23.9206 26.5072 24.3479C26.2217 24.7751 25.8973 25.1704 25.5339 25.5338C25.1706 25.8972 24.7753 26.2216 24.348 26.5071C23.9207 26.7926 23.4697 27.0336 22.995 27.2303C22.5202 27.4269 22.0308 27.5754 21.5269 27.6756C21.0229 27.7759 20.5139 27.826 20.0001 27.826C19.4862 27.826 18.9773 27.7759 18.4733 27.6756C17.9693 27.5754 17.4799 27.4269 17.0051 27.2303C16.5304 27.0336 16.0793 26.7926 15.6521 26.5071C15.2248 26.2216 14.8295 25.8972 14.4662 25.5338C14.1028 25.1704 13.7784 24.7751 13.4929 24.3478C13.2074 23.9206 12.9663 23.4696 12.7697 22.9948C12.5731 22.5201 12.4246 22.0307 12.3243 21.5267C12.2241 21.0227 12.174 20.5138 12.174 19.9999C12.174 19.4861 12.2241 18.9771 12.3243 18.4731C12.4246 17.9691 12.573 17.4798 12.7697 17.005C12.9663 16.5302 13.2074 16.0792 13.4929 15.652C13.7784 15.2247 14.1028 14.8294 14.4662 14.4661C14.8295 14.1027 15.2248 13.7783 15.6521 13.4928C16.0794 13.2073 16.5304 12.9662 17.0051 12.7696C17.4799 12.5729 17.9693 12.4245 18.4733 12.3242C18.9773 12.224 19.4862 12.1739 20.0001 12.1739C20.5139 12.1739 21.0229 12.224 21.5268 12.3242C22.0308 12.4245 22.5202 12.5729 22.995 12.7696C23.4697 12.9662 23.9207 13.2073 24.348 13.4928C24.7753 13.7783 25.1706 14.1027 25.5339 14.4661C25.8973 14.8294 26.2217 15.2247 26.5072 15.652C26.7927 16.0792 27.0338 16.5302 27.2304 17.005C27.427 17.4798 27.5755 17.9691 27.6758 18.4731C27.776 18.9771 27.8261 19.4861 27.8261 19.9999Z" fill="#FA919F"/>
<path fill-rule="evenodd" clip-rule="evenodd" d="M0 13.0435H11.8406C13.8087 10.7377 16.7348 9.27535 20 9.27535C23.2667 9.27535 26.1928 10.7377 28.1609 13.0435H40V11.3043C40 5.06087 34.9391 0 28.6957 0H11.3043C5.06233 0 0 5.06087 0 11.3043V13.0435ZM31.5942 6.08695C32.8739 6.08695 33.913 7.12608 33.913 8.40578C33.913 9.68549 32.8739 10.7246 31.5942 10.7246C30.3145 10.7246 29.2754 9.68549 29.2754 8.40578C29.2754 7.12608 30.3145 6.08695 31.5942 6.08695Z" fill="#FA919F"/>
</svg>
