<svg width="82" height="78" viewBox="0 0 82 78" fill="none" xmlns="http://www.w3.org/2000/svg">
<path d="M67.5548 53.4854C67.1186 53.6567 66.6069 53.6317 66.1689 53.3556L33.0585 32.4785C32.523 32.1409 32.2477 31.5108 32.3628 30.8886L37.2254 4.6538C37.3284 4.09623 37.7122 3.67698 38.1916 3.49295C38.3165 3.44481 38.4231 3.59471 38.3415 3.70013C38.1977 3.88599 38.0935 4.10902 38.0472 4.36009L33.1852 30.5949C33.0701 31.2171 33.3455 31.8471 33.8803 32.1847L66.9913 53.0619C67.1643 53.171 67.3483 53.2398 67.5353 53.2734C67.6474 53.2941 67.6614 53.444 67.5548 53.4854ZM77.3574 16.5226L40.1124 0.768433C38.35 0.0225581 36.3518 1.10968 36.0198 2.99448L30.5328 34.1317L30.5675 34.1536L30.5029 34.1457L5.35781 45.0627C4.03159 45.6385 3.75989 47.4014 4.85157 48.3502L35.092 74.6362C37.4691 76.702 40.9403 76.9043 43.5409 75.1274L68.3876 58.1526L68.337 58.1203L68.4168 58.1386L80.5721 23.8186C81.5986 20.9192 80.1895 17.7212 77.3574 16.5226Z" fill="#FFC4C5"/>
<path d="M78.0495 24.211L68.4565 52.5433C68.2822 53.0594 67.8686 53.411 67.3922 53.539C67.4476 53.5244 67.5018 53.5061 67.5548 53.4854C67.6614 53.444 67.6474 53.2941 67.5353 53.2734C67.3483 53.2398 67.1643 53.171 66.9913 53.0619L33.8803 32.1847C33.3455 31.8471 33.0701 31.2171 33.1852 30.5949L38.0472 4.36009C38.0935 4.10902 38.1977 3.88599 38.3415 3.70013C38.4231 3.59532 38.3171 3.44599 38.1929 3.4923C38.5572 3.35275 38.9757 3.34788 39.3698 3.52216L76.0982 19.7681C77.7997 20.5213 78.6465 22.4481 78.0495 24.211Z" fill="#FBCC91"/>
<path d="M37.7097 0.803854C37.7122 0.802635 37.714 0.802026 37.7164 0.800807C37.714 0.802026 37.7097 0.803854 37.7097 0.803854ZM78.2736 16.1607L41.0262 0.412026C40.2635 0.0896671 39.4569 0.110995 38.76 0.390698L38.738 0.399229C38.7374 0.399839 38.3134 0.566198 38.0101 0.685635C38.6662 0.46687 39.4051 0.472354 40.1063 0.76912L77.3537 16.5172C80.1865 17.7152 81.5961 20.9132 80.5696 23.8132L68.4199 58.1344L68.3401 58.1167L68.3906 58.1484L43.5464 75.1274C40.9464 76.9044 37.4752 76.7033 35.0981 74.6375L4.85278 48.3564C4.46473 48.0194 4.25212 47.5788 4.19485 47.1261C4.19363 47.1261 4.19303 47.1261 4.19242 47.1261L4.17658 48.3253C4.16439 48.8774 4.38188 49.4386 4.85278 49.8481L35.0981 76.1292C37.4752 78.195 40.947 78.3961 43.5464 76.6192L68.8152 59.0607L81.4889 23.4561C82.5154 20.5561 81.1057 17.3587 78.2736 16.1607ZM38.1861 3.49363C37.7067 3.67766 37.3229 4.09752 37.2199 4.6551L32.3616 30.8905C32.2465 31.5127 32.5224 32.1428 33.0573 32.4798L66.1713 53.3514C66.6093 53.6281 67.1211 53.6531 67.5572 53.4818C67.6639 53.4398 67.6498 53.2905 67.5371 53.2698C67.3507 53.2363 67.1661 53.1668 66.9931 53.0577L33.8797 32.186C33.3442 31.8484 33.0689 31.219 33.184 30.5968L38.0417 4.36138C38.088 4.10971 38.1922 3.88668 38.336 3.70082C38.4176 3.5954 38.311 3.44549 38.1861 3.49363ZM38.562 56.7225L43.2571 60.2611C45.1955 59.0759 48.3548 57.1131 51.0462 55.4361L25.92 37.7496L15.8061 42.1335L35.711 57.0406L33.9236 57.9674L39.6464 62.3385L41.4447 61.3349C41.4593 61.3458 41.9217 61.0734 42.6728 60.617L38.9366 57.8346L37.6793 58.5147L36.771 57.8346L38.562 56.7225ZM51.985 56.0869L42.3999 62.0503L50.367 68.0166L60.0641 61.6761C58.4894 60.5963 53.9594 57.4562 51.985 56.0869ZM60.8464 61.1642L62.1774 60.2934L54.0386 54.8097L52.7891 55.5866L60.8464 61.1642ZM45.7213 49.204L44.523 49.9389L51.8485 54.9358C52.2805 54.6665 52.6953 54.4081 53.0834 54.1656L45.7213 49.204ZM44.5644 48.4246L37.53 43.6843L36.4274 44.4162L43.2833 49.0931L44.5644 48.4246ZM36.4798 42.9768L27.6257 37.0098L26.3689 37.5546L35.2279 43.5978C35.251 43.6136 35.8858 43.2876 36.4798 42.9768ZM21.2535 49.435L26.8916 53.8481C27.1603 54.0583 27.1213 54.477 26.8179 54.6336L20.9642 57.664C20.3976 57.9577 19.708 57.8657 19.2383 57.4336L14.659 53.2259C14.4184 53.0053 14.472 52.6129 14.762 52.4642L20.7509 49.3868C20.913 49.3034 21.1098 49.3216 21.2535 49.435Z" fill="#F28986"/>
<path d="M48.3378 39.6143L74.4643 31.1671L75.7388 27.5566L45.1072 37.7496L48.3378 39.6143ZM35.206 31.7015L72.1689 19.3544C72.1689 19.3544 78.2395 21.3209 76.5003 24.8638L42.2373 35.7594L35.206 31.7015Z" fill="#FDDEBD"/>
<path d="M17.3273 43.0542C17.3267 43.0542 17.3279 43.0548 17.3273 43.0542V43.0542ZM17.9395 41.3991L19.0178 42.212C18.3586 42.5167 17.5076 42.9043 17.2572 43.0018L16.1515 42.1743L17.9395 41.3991ZM26.9794 38.7088L25.3571 39.415L24.2721 38.6539L25.8999 37.9489L26.9794 38.7088ZM49.3886 56.2618L46.0965 53.9535L47.371 53.0626L50.7301 55.4269C50.2659 55.7158 49.8199 55.9937 49.3886 56.2618ZM43.2668 60.0503L38.6314 56.5567L40.4846 55.4995L45.1547 58.8882C44.4237 59.3403 43.7919 59.7291 43.2668 60.0503ZM38.9214 58.0412L40.4359 59.1691C40.1733 59.3428 39.8815 59.536 39.5909 59.7273L38.0021 58.5384L38.9214 58.0412ZM41.4654 61.1313L39.8894 59.9515C40.138 59.7864 40.4182 59.6005 40.7332 59.3909L42.3603 60.6024C41.8096 60.9351 41.5696 61.074 41.4654 61.1313ZM38.2233 61.032C38.467 60.8888 38.8739 60.6237 39.58 60.1563L41.1249 61.3129L39.661 62.1301L38.2233 61.032ZM37.5745 58.6542L39.2802 59.932C38.6771 60.3281 38.1313 60.6822 37.9272 60.8053L36.0625 59.3812L37.3613 58.4951L37.5745 58.6542ZM35.6945 57.2465L37.0658 58.2733L35.77 59.1581L34.2489 57.9961L35.6945 57.2465ZM20.4567 43.2967C19.7208 43.6575 18.9697 44.0158 18.7382 44.1115L17.5837 43.2468C17.8829 43.1225 18.4031 42.8836 19.3346 42.4503L20.4567 43.2967ZM22.9392 42.766L21.2858 43.4838L18.3081 41.2395L19.8908 40.5533L22.9392 42.766ZM24.2154 41.0829L22.2995 41.8696L20.2636 40.3918L22.1417 39.5777C22.3732 39.7441 23.1183 40.2852 24.2154 41.0829ZM25.5995 40.0116L24.1801 40.6246C23.8712 40.401 23.5928 40.1981 23.3522 40.0232L22.5505 39.4418C22.5371 39.4321 22.5274 39.4248 22.5146 39.4156L23.8962 38.8172L25.5995 40.0116ZM26.8009 40.4272L25.6927 39.6502L27.3138 38.944L28.3269 39.6576C27.6751 39.9958 27.0159 40.3303 26.8009 40.4272ZM28.5645 41.663L27.1323 40.6594C27.4028 40.5314 27.8596 40.2956 28.6492 39.8836L30.0595 40.8763L28.5645 41.663ZM30.0211 42.6843L28.8861 41.8891L30.3799 41.1024L31.5812 41.9482L30.0034 42.6441L30.0211 42.6843ZM31.7329 43.8842L30.3135 42.8897L31.9151 42.1828L33.2346 43.1121L31.7329 43.8842ZM33.3052 44.9865L32.0564 44.1109L33.5575 43.3388L34.7935 44.209L33.3052 44.9865ZM35.0165 46.1864L33.6275 45.2126L35.1152 44.4357L36.5346 45.4344L35.0165 46.1864ZM36.7807 47.4228L35.3424 46.4149L36.8599 45.6635L38.2062 46.6111L36.7807 47.4228ZM38.4877 48.6196L37.0969 47.6446L38.5218 46.8335L39.845 47.7647L38.4877 48.6196ZM40.1892 49.8128L38.7977 48.8372L40.1544 47.9828L41.6573 49.0401L40.1892 49.8128ZM41.915 51.0224L40.5108 50.0382L41.9784 49.2668L43.3375 50.2235L41.915 51.0224ZM43.9272 52.4331L42.2324 51.2448L43.6549 50.4465L45.2278 51.5538L43.9272 52.4331ZM44.2336 52.6476L45.533 51.7689L47.067 52.8487L45.7919 53.7402L44.2336 52.6476ZM44.816 55.6445C44.311 55.2776 43.7481 54.8675 43.1395 54.4239L44.8483 53.5056L46.3682 54.5708L44.816 55.6445ZM45.1151 55.8626L46.6734 54.7847L49.0663 56.4623C48.4712 56.8328 47.9077 57.1826 47.3789 57.511C47.1133 57.3178 46.2982 56.7243 45.1151 55.8626ZM43.1864 54.8907C45.1145 56.2947 46.5418 57.3337 47.0584 57.7103C46.4901 58.0619 45.9619 58.3897 45.4757 58.6901L41.5812 55.8633C41.9241 55.6451 42.6558 55.2057 43.1864 54.8907ZM39.7335 54.522L41.4307 53.6122C41.9357 53.9803 42.42 54.3325 42.8787 54.667C42.367 54.9711 41.5854 55.4397 41.279 55.6439L39.7335 54.522ZM38.3274 56.3276L36.7356 55.1277L38.4749 54.0406L40.1739 55.274L38.3274 56.3276ZM36.8733 55.6689L38.2531 56.7091L36.7801 57.6231L35.4192 56.6036L36.8733 55.6689ZM35.103 54.3349L36.5754 55.4446L35.1206 56.38L33.6172 55.2539L35.103 54.3349ZM33.304 52.9791L34.8039 54.1095L33.3162 55.0284L31.7445 53.8511L33.304 52.9791ZM23.9017 45.8927L32.9988 52.7493L31.4381 53.6226L22.2916 46.7726C22.5676 46.6331 23.0464 46.368 23.9017 45.8927ZM24.4926 43.8927L22.8448 44.6587L21.6063 43.7251L23.2681 43.0042L24.4926 43.8927ZM25.4881 42.0085C25.577 42.0731 25.6678 42.1389 25.7598 42.206L23.853 42.9969L22.6321 42.1109L24.5475 41.3242C24.8405 41.5375 25.1548 41.766 25.4881 42.0085ZM28.81 43.9926C28.4232 43.7111 28.0455 43.4369 27.6812 43.1718L29.1645 42.5106L30.3915 43.3705L28.81 43.9926ZM32.9933 50.062L34.467 51.1321L32.9007 52.2375L31.4259 51.126L32.9933 50.062ZM31.4186 48.9194L32.0058 49.3454C32.0058 49.346 32.0064 49.346 32.0071 49.3466L32.6924 49.8445L31.131 50.9036L29.8328 49.9255C30.1003 49.7689 30.5687 49.4673 31.4186 48.9194ZM29.5995 47.5995L31.1152 48.6994C30.5377 49.0706 29.7871 49.5489 29.5337 49.7L28.0272 48.5648L29.5995 47.5995ZM28.04 46.4673L29.2937 47.3771L27.7275 48.3387L26.411 47.3466L28.04 46.4673ZM26.2745 45.1864L27.7262 46.2394L26.1039 47.1151L24.6352 46.0084L26.2745 45.1864ZM39.3552 52.101L37.5739 52.9547L36.2525 51.9962L37.993 51.1095C38.4542 51.4453 38.9092 51.7768 39.3552 52.101ZM37.6756 50.8786L35.9351 51.7652L34.3652 50.6263C34.6424 50.4758 35.1255 50.1857 35.9991 49.658C36.5632 50.0687 37.1237 50.4764 37.6756 50.8786ZM35.6921 49.435C35.0884 49.7975 34.3001 50.2655 34.0509 50.3984L32.4572 49.2418C32.7503 49.1022 33.2644 48.8335 34.1947 48.3448C34.6942 48.708 35.1944 49.0724 35.6921 49.435ZM33.8797 48.1151C33.2309 48.4551 32.3884 48.8902 32.1344 49.0072L30.835 48.0645L32.5748 47.1657C33.0067 47.4801 33.4423 47.797 33.8797 48.1151ZM32.2586 46.9353L30.5188 47.8347L29.1122 46.8134L30.824 45.8908C31.2949 46.2339 31.7743 46.5831 32.2586 46.9353ZM30.5103 45.6629L28.7978 46.5861L27.4631 45.6166L29.2693 44.7598C29.6744 45.0548 30.0887 45.3558 30.5103 45.6629ZM28.9477 44.5252L27.1408 45.3826L25.867 44.4588L27.6976 43.616C28.1009 43.9098 28.5188 44.2132 28.9477 44.5252ZM27.3735 43.3802L25.5429 44.2236L24.1844 43.2376L26.0905 42.4467C26.4969 42.7422 26.9264 43.0542 27.3735 43.3802ZM23.1609 44.8969L24.8161 44.1279L25.9559 44.9548L24.3239 45.7738L23.1609 44.8969ZM33.1944 52.4587L34.7655 51.3484L36.4402 52.5635L34.6047 53.5214L33.1944 52.4587ZM34.9135 53.7542L36.7557 52.7926L38.1697 53.8194L36.4365 54.9023L34.9135 53.7542ZM37.8955 53.1887L39.6762 52.335C40.1697 52.6945 40.6515 53.0449 41.117 53.3837L39.4191 54.2941L37.8955 53.1887ZM44.5278 53.2807L42.8257 54.196C42.3372 53.8401 41.8218 53.4648 41.2851 53.0742L42.8891 52.1321L44.5278 53.2807ZM42.5748 51.9115L40.9768 52.8499C40.5132 52.5117 40.0344 52.1637 39.5452 51.8073L41.092 50.8719L42.5748 51.9115ZM40.7789 50.6525L39.2388 51.5842C38.7569 51.2332 38.2653 50.8755 37.7676 50.5129L39.3539 49.6531L40.7789 50.6525ZM39.0341 49.4295L37.4545 50.285C36.9275 49.9017 36.3945 49.5136 35.859 49.1236L37.4819 48.3411L39.0341 49.4295ZM37.1541 48.1114L35.5386 48.8902C35.3168 48.7293 35.0957 48.5678 34.8739 48.4069C34.5906 48.2004 34.3074 47.9938 34.0241 47.7884L35.5623 46.9956L37.1541 48.1114ZM35.2388 46.769L33.7079 47.5581C33.2845 47.2497 32.8636 46.9432 32.4457 46.6392L33.9808 45.8872L35.2388 46.769ZM33.6543 45.6581L32.1265 46.4064C31.6549 46.0633 31.1889 45.7245 30.7308 45.3912L32.2282 44.6581L33.6543 45.6581ZM31.901 44.429L30.411 45.1584C29.9803 44.8445 29.5569 44.5368 29.1444 44.2364L30.7344 43.6112L31.901 44.429ZM28.8313 42.2766L27.3552 42.9348C26.9568 42.6447 26.573 42.365 26.2093 42.1005C26.1253 42.0396 26.0449 41.9811 25.9626 41.9214C26.2374 41.819 26.6949 41.635 27.4704 41.323L28.8313 42.2766ZM27.1286 41.0835C26.5541 41.3138 25.8481 41.5929 25.6233 41.6746C25.2224 41.3827 24.849 41.1115 24.5085 40.8635L25.9358 40.2468L27.1286 41.0835ZM22.0918 44.5289L20.4323 45.3802L19.061 44.3528C19.3547 44.2248 19.8634 43.9792 20.7698 43.5326L22.0918 44.5289ZM20.7436 45.613L22.4019 44.7629L23.5959 45.6623C22.9983 45.9926 22.227 46.4149 21.9791 46.538L20.7436 45.613ZM35.3838 57.0138L33.5989 57.9394L37.8041 61.1514C37.8041 61.1508 37.8048 61.1514 37.8041 61.1514L39.6311 62.5469L41.53 61.4872L41.5288 61.4853C41.6847 61.422 42.0021 61.2288 42.763 60.7669L42.9847 60.6322L38.9513 57.6274L37.6945 58.3075L37.0804 57.8474L38.5522 56.9345L43.2467 60.4726L43.3478 60.4104C44.947 59.4324 47.5683 57.8084 51.1388 55.5842L51.3624 55.4446L25.9407 37.5497L15.4601 42.0926L35.3838 57.0138ZM58.186 62.695L56.4461 61.4878C57.2143 60.9887 57.79 60.6145 58.0093 60.472C58.6941 60.9448 59.3039 61.3653 59.7498 61.6724L58.186 62.695ZM48.6503 66.5127C48.8872 66.3725 49.2802 66.1208 49.9619 65.6833C50.6368 65.2507 51.4775 64.7083 52.359 64.138C52.9487 64.5737 53.5238 64.9996 54.0569 65.3951L50.3737 67.8033L48.6503 66.5127ZM44.2982 61.0746L47.6183 63.6913L46.1538 64.6431L42.7094 62.0636L44.2982 61.0746ZM55.3764 58.6499L53.8175 59.6627L50.3913 57.2843L51.9801 56.2959C52.5436 56.6871 53.904 57.6298 55.3764 58.6499ZM54.1275 59.8784L55.6871 58.865C56.3657 59.3349 57.0578 59.8138 57.6986 60.2568C57.2594 60.5426 56.7258 60.89 56.1361 61.2727L54.1275 59.8784ZM54.3627 62.4238L52.2963 61.0685L53.8114 60.0838L55.8199 61.478C55.3557 61.7797 54.8641 62.0984 54.3627 62.4238ZM53.2862 63.5377C54.2938 62.8857 55.299 62.233 56.13 61.6937L57.8704 62.9015L54.3682 65.1916C54.0812 64.9783 53.455 64.5133 52.6728 63.935C52.8763 63.8034 53.0809 63.6712 53.2862 63.5377ZM50.4291 62.2818L51.9759 61.2763L54.0422 62.6316C53.4842 62.9935 52.9195 63.3592 52.3724 63.7132C51.7718 63.269 51.0998 62.7742 50.4291 62.2818ZM49.8144 62.2641L47.9278 63.4902L44.6137 60.8784L46.367 59.7882C46.7215 60.0101 48.1331 61.0314 49.8144 62.2641ZM48.4072 58.5183L50.0679 57.4854L53.5013 59.8687L51.9765 60.8589L48.4072 58.5183ZM51.6566 61.0673L50.1282 62.0606C48.6679 60.9899 47.2692 59.9741 46.6911 59.5859L48.0807 58.7218L51.6566 61.0673ZM50.0837 65.1903L48.2177 63.7193L50.116 62.4853C50.7465 62.9484 51.4075 63.4353 52.0587 63.9161C51.3399 64.3805 50.6624 64.818 50.0837 65.1903ZM46.4523 64.8661L47.9077 63.9198L49.7724 65.3896C49.0688 65.8411 48.5516 66.1696 48.3524 66.2896L46.4523 64.8661ZM52.0843 55.9431L51.9905 55.8779L42.0904 62.0368L48.2324 66.6364C48.2317 66.6358 48.233 66.6364 48.2324 66.6364L50.2622 68.1562L50.3603 68.2299L60.3779 61.6791L60.1628 61.5317C58.4285 60.3422 53.1291 56.6676 52.0843 55.9431ZM55.3733 55.9199L54.448 56.5226L53.1071 55.5945L54.0349 55.0174L55.3733 55.9199ZM60.8488 60.954L59.0364 59.6993L60.0593 59.0771L61.8613 60.2916L60.8488 60.954ZM57.7035 57.4897L59.7401 58.862L58.7221 59.4811L56.7976 58.149L57.7035 57.4897ZM56.493 57.9382L54.7587 56.7377L55.6883 56.1314L57.3953 57.2819L56.493 57.9382ZM60.8433 61.375L62.4936 60.2958L54.0422 54.6012L52.4705 55.5793L60.8433 61.375ZM47.0383 50.3021L46.1209 50.817L44.8446 49.9468L45.7164 49.4118L47.0383 50.3021ZM51.8528 54.7274L50.4017 53.7371L51.3356 53.1985L52.7623 54.1601L51.8528 54.7274ZM49.2729 51.8085L51.0127 52.9809L50.0813 53.5184L48.3627 52.3466L49.2729 51.8085ZM48.0441 52.129L46.4431 51.037L47.3624 50.5215L48.9524 51.5922L48.0441 52.129ZM51.8443 55.1442L53.4044 54.171L45.7255 48.9968L44.2019 49.931L51.8443 55.1442ZM38.6887 44.6764L37.8224 45.1565L36.7405 44.418L37.5288 43.8945L38.6887 44.6764ZM43.2954 48.8896L41.6537 47.7701L42.5023 47.2461L44.2226 48.4051L43.2954 48.8896ZM40.5937 45.9597L42.1843 47.0316L41.3375 47.5544L39.7018 46.4387L40.5937 45.9597ZM39.3765 46.2162L38.1459 45.3771L39.014 44.8951L40.2659 45.7391L39.3765 46.2162ZM43.2717 49.2966L44.9049 48.4435L37.6275 43.5399L37.5306 43.4741L36.1142 44.4143L43.2717 49.2966ZM27.6068 37.2085L28.8228 38.0275C28.3574 38.231 28.096 38.3474 27.9492 38.4211L26.729 37.5887L27.6068 37.2085ZM33.0482 40.8751L34.2751 41.702L33.3589 42.1115L32.2562 41.3595L33.0482 40.8751ZM31.7061 39.9708L32.7296 40.6606L31.9394 41.1432L30.8502 40.4004L31.7061 39.9708ZM29.3022 39.3443L28.2818 38.6478C28.5249 38.5406 28.8837 38.3821 29.1658 38.259L30.1551 38.9257L29.3022 39.3443ZM30.4895 39.1512L31.3735 39.7465L30.52 40.1749L29.6342 39.571L30.4895 39.1512ZM35.2528 43.404L33.6982 42.3431L34.6168 41.9323L36.1386 42.9579C35.5782 43.2492 35.3479 43.3607 35.2528 43.404ZM35.2157 43.7757C35.3253 43.7757 35.5751 43.6483 36.5608 43.1316L36.8203 42.9957L27.7232 36.8654L27.644 36.8118L26.0083 37.5205L35.1298 43.7428C35.1578 43.7617 35.1791 43.7757 35.2157 43.7757ZM14.6846 52.8414C14.6974 52.7451 14.7546 52.664 14.8418 52.6196L15.7903 52.1321L18.6498 54.4324L16.9721 55.1143L14.7772 53.0973C14.7053 53.0315 14.6718 52.9383 14.6846 52.8414ZM20.8308 49.5422C20.8728 49.5209 20.9185 49.5099 20.9648 49.5099C21.0294 49.5099 21.0933 49.5312 21.1457 49.5721L26.7838 53.9858C26.8642 54.0485 26.9044 54.143 26.8953 54.2448C26.8855 54.3465 26.8283 54.4318 26.7375 54.4781L22.1911 56.8322L16.1308 51.9572L20.8308 49.5422ZM20.8838 57.5092C20.3842 57.7676 19.7708 57.6853 19.3565 57.305L17.2566 55.3758L18.9611 54.6829L21.8518 57.0083L20.8838 57.5092ZM19.1201 57.5628C19.4387 57.8553 19.8518 58.0076 20.2679 58.0076C20.5329 58.0076 20.7997 57.9461 21.044 57.8193L26.8983 54.7889C27.0939 54.6878 27.2224 54.4964 27.2431 54.2777C27.2639 54.0583 27.1725 53.8462 26.9989 53.7103L21.3614 49.2972C21.1646 49.1425 20.8929 49.1169 20.6705 49.2314L14.6815 52.3088C14.4951 52.4044 14.3666 52.586 14.3386 52.7951C14.3099 53.0028 14.3855 53.2125 14.5408 53.3545L19.1201 57.5628ZM81.3269 23.4037L68.6666 58.9528L43.4422 76.4747C40.9092 78.2054 37.5227 78.0085 35.2065 75.9958L4.9661 49.7098C4.55672 49.3545 4.33802 48.8621 4.34959 48.3216L4.35386 48.045C4.45925 48.2046 4.58718 48.3521 4.73704 48.4825L34.9775 74.7679C36.3055 75.922 37.9674 76.5083 39.6366 76.5083C41.0298 76.5083 42.4273 76.1 43.6396 75.2718L68.4156 58.3446L68.5088 58.4037L68.5655 58.2423L68.705 58.1472L68.6185 58.0923L80.7366 23.8772C81.7929 20.8949 80.3382 17.5939 77.4256 16.3618L40.1806 0.607612C39.9296 0.500972 39.6695 0.430284 39.4069 0.391284C39.9278 0.302316 40.4651 0.361425 40.964 0.572878L78.209 16.327C80.9516 17.4879 82.3217 20.5963 81.3269 23.4037ZM4.37091 46.5935C4.46473 45.9816 4.8601 45.4692 5.42787 45.223L30.4877 34.3432L36.9135 38.4144C36.841 38.6509 36.9141 38.8288 36.9196 38.8416L36.9403 38.8897L39.9406 40.8781C39.9845 40.9074 40.035 40.9226 40.085 40.9226C40.1246 40.9226 40.1642 40.9135 40.2013 40.8952C40.2854 40.8531 40.3421 40.769 40.3481 40.6746C40.35 40.6478 40.3549 40.6228 40.3591 40.5978L56.3785 50.7494C56.2305 51.0437 56.3279 51.2844 56.3346 51.299L56.3554 51.3472L59.3557 53.3362C59.3995 53.3654 59.4501 53.3801 59.5 53.3801C59.5396 53.3801 59.5792 53.3709 59.6158 53.3526C59.7005 53.3106 59.7565 53.2265 59.7632 53.132C59.7687 53.0534 59.7864 52.9852 59.8113 52.9255L68.0696 58.1582L43.4422 74.983C40.9086 76.7142 37.5227 76.5168 35.2065 74.504L4.9661 48.2187C4.49884 47.8122 4.27649 47.2053 4.37091 46.5935ZM57.0316 50.5721C57.0651 50.5513 57.1108 50.5532 57.1455 50.5757L59.8199 52.3728C59.6688 52.4849 59.4933 52.6738 59.4336 52.9681L56.6466 51.1211C56.6362 51.0321 56.6545 50.8067 57.0316 50.5721ZM37.6165 38.1146C37.65 38.0939 37.6957 38.0951 37.7304 38.1183L40.4048 39.9153C40.2543 40.0274 40.0789 40.2163 40.0186 40.5107L37.2327 38.6643C37.2218 38.5723 37.2419 38.3474 37.6165 38.1146ZM36.1922 3.025C36.3409 2.17919 36.8587 1.45891 37.6135 1.0488C37.6695 1.01772 37.7274 0.98969 37.7853 0.962878L38.0819 0.846487C38.7198 0.636862 39.4124 0.661847 40.0442 0.929362L77.2891 16.6835C80.0317 17.8444 81.4018 20.9528 80.407 23.7608L68.3254 57.8742L60.0483 52.6384C60.0684 52.625 60.0879 52.6122 60.1074 52.6013C60.186 52.5562 60.2353 52.4745 60.2384 52.3831C60.242 52.2911 60.1982 52.2058 60.122 52.1546L57.3404 50.2863C57.1912 50.1857 56.9975 50.1814 56.847 50.2753C56.7501 50.3356 56.6697 50.3978 56.6033 50.4593L40.5157 40.2834C40.5717 40.223 40.6345 40.1773 40.6923 40.1438C40.7715 40.0981 40.8203 40.0171 40.8233 39.9257C40.827 39.8337 40.7831 39.7483 40.707 39.6972L37.9254 37.8282C37.7761 37.7283 37.583 37.724 37.4325 37.8178C37.2894 37.9062 37.1828 37.9982 37.103 38.0884L30.7253 34.0464L36.1922 3.025ZM78.3449 16.0053L41.1005 0.250519C40.3293 -0.0754965 39.477 -0.0834183 38.7015 0.227363L37.9656 0.516816C37.8596 0.55155 37.7554 0.592987 37.6531 0.639909C37.5836 0.671597 37.5136 0.705112 37.4466 0.741675C36.5979 1.20297 36.0156 2.01344 35.848 2.96467L30.3768 34.0099L5.28836 44.9024C4.61033 45.1968 4.1382 45.8092 4.0255 46.5398C3.99504 46.7379 3.99321 46.9353 4.01636 47.1285L4.00052 48.3155C3.98651 48.9505 4.25517 49.555 4.73704 49.9743L34.9775 76.2596C36.3049 77.4132 37.9674 78 39.636 78C41.0292 78 42.4279 77.5911 43.6402 76.7624L68.9578 59.1764L81.6565 23.5207C82.7122 20.5384 81.258 17.2374 78.3449 16.0053ZM32.5346 30.9209L37.3966 4.68555C37.4063 4.63375 37.4191 4.58195 37.4344 4.53259C37.4411 4.51187 37.4496 4.49177 37.4569 4.47166C37.4673 4.44302 37.4764 4.41437 37.488 4.38634C37.4996 4.36014 37.5136 4.33516 37.5264 4.31017C37.5367 4.28945 37.5458 4.26873 37.5574 4.24923C37.5733 4.22181 37.5909 4.19683 37.6086 4.17123C37.6196 4.15478 37.6293 4.13711 37.6415 4.12066C37.6604 4.09567 37.6811 4.07252 37.7012 4.04875C37.714 4.03352 37.7262 4.01706 37.7396 4.00244C37.7597 3.98111 37.7816 3.96161 37.8035 3.94089C37.8194 3.92566 37.8346 3.90981 37.8511 3.8958C37.8706 3.87934 37.8919 3.86472 37.912 3.84888C37.9333 3.83303 37.9534 3.81597 37.9759 3.80073C37.9912 3.79038 38.0082 3.78184 38.0247 3.77148C38.0533 3.75381 38.0826 3.73553 38.113 3.71969C38.1136 3.71908 38.1142 3.71908 38.1154 3.71847C37.9967 3.90372 37.9162 4.10786 37.8754 4.32845L33.0134 30.5632C32.8843 31.2604 33.1883 31.9544 33.7877 32.3323L66.8981 53.2094C67.0175 53.285 67.1442 53.3447 67.2764 53.388C67.2752 53.3886 67.274 53.3886 67.2727 53.3886C67.21 53.402 67.146 53.4093 67.0827 53.4142C67.0577 53.416 67.0321 53.4184 67.0071 53.4184C66.9876 53.4191 66.9688 53.4172 66.9499 53.4166C66.92 53.416 66.8902 53.4148 66.8603 53.4123C66.8427 53.4105 66.8256 53.4081 66.8079 53.4056C66.7769 53.4014 66.7464 53.3959 66.7153 53.3898C66.6989 53.3861 66.6824 53.3825 66.666 53.3788C66.6343 53.3709 66.6032 53.3618 66.5728 53.3514C66.5569 53.3465 66.5417 53.3417 66.5265 53.3362C66.4942 53.3246 66.4619 53.3106 66.4308 53.2966C66.4174 53.2905 66.404 53.285 66.3912 53.2789C66.3474 53.2576 66.3041 53.2338 66.2621 53.207L33.1517 32.3304C32.6741 32.0294 32.4323 31.4761 32.5346 30.9209ZM39.2991 3.68191L76.0275 19.9278C77.6577 20.6493 78.4557 22.4665 77.8837 24.1551L68.2913 52.4873C68.1902 52.7859 67.9934 53.0351 67.7351 53.2003C67.6931 53.1509 67.6352 53.1144 67.5664 53.1016C67.3946 53.0705 67.2325 53.0077 67.0839 52.9139L33.9735 32.0367C33.4959 31.7357 33.2541 31.1824 33.357 30.6272L38.219 4.39244C38.2592 4.17611 38.3469 3.97928 38.4797 3.80744C38.5315 3.74041 38.5486 3.65875 38.5388 3.58014C38.7929 3.54114 39.056 3.57405 39.2991 3.68191ZM66.0757 53.5031C66.3553 53.6793 66.669 53.7694 66.987 53.7694C66.9876 53.7694 66.9883 53.7688 66.9895 53.7688C66.9889 53.7688 66.9901 53.7688 66.9895 53.7688C67.1832 53.7688 67.3794 53.7359 67.5682 53.6689C67.5834 53.6634 67.5975 53.6561 67.6127 53.65C67.6145 53.6494 67.6169 53.6488 67.6188 53.6482C67.62 53.6476 67.6206 53.647 67.6218 53.6464C68.0952 53.4605 68.4582 53.0833 68.6221 52.5994L78.2145 24.2672C78.845 22.4062 77.9653 20.4031 76.1688 19.6085L39.4398 3.36199C38.9561 3.14809 38.4097 3.16699 37.9418 3.41439C37.9382 3.41622 37.9345 3.41866 37.9309 3.42049C37.9169 3.42841 37.9041 3.43694 37.89 3.44547C37.8438 3.47167 37.7987 3.49909 37.7554 3.52895C37.7329 3.5448 37.7116 3.56247 37.6896 3.57953C37.6573 3.60452 37.6257 3.6295 37.5952 3.65692C37.572 3.67703 37.5507 3.69897 37.5294 3.7203C37.5026 3.74711 37.4764 3.77453 37.4508 3.80317C37.4307 3.82633 37.4112 3.85009 37.3917 3.87447C37.3686 3.90433 37.346 3.9348 37.3247 3.96648C37.3077 3.99147 37.2912 4.01645 37.2754 4.04266C37.2547 4.07678 37.2358 4.11212 37.2175 4.14747C37.2047 4.17245 37.1907 4.19805 37.1791 4.22425C37.1608 4.26508 37.145 4.30713 37.1298 4.34978C37.1219 4.37233 37.1121 4.39487 37.1048 4.41803C37.0841 4.48445 37.0664 4.5527 37.053 4.62217L32.191 30.857C32.0625 31.5541 32.3659 32.2482 32.9653 32.626L66.0757 53.5031Z" fill="#428C8B"/>
<path d="M16.3266 33C16.0966 33 15.8989 32.8367 15.8556 32.6107C15.0982 28.6638 14.4041 26.2413 12.9081 24.7452C11.412 23.2492 8.98948 22.5551 5.04259 21.7978C4.81664 21.7544 4.65329 21.5567 4.65329 21.3267C4.65329 21.0966 4.81664 20.8989 5.04259 20.8556C8.98948 20.0981 11.412 19.4041 12.9081 17.9081C14.4041 16.4119 15.0982 13.9895 15.8556 10.0426C15.8989 9.81664 16.0966 9.65329 16.3266 9.65329C16.5567 9.65329 16.7544 9.81664 16.7977 10.0426C17.5552 13.9895 18.2492 16.4119 19.7453 17.9081C21.2413 19.4041 23.6638 20.0981 27.6107 20.8556C27.8367 20.8989 28 21.0966 28 21.3267C28 21.5567 27.8367 21.7544 27.6107 21.7978C23.6638 22.5551 21.2413 23.2492 19.7453 24.7452C18.2492 26.2413 17.5552 28.6638 16.7977 32.6107C16.7544 32.8367 16.5567 33 16.3266 33Z" fill="#110804"/>
<path d="M15.6734 32.3467C15.4433 32.3467 15.2456 32.1834 15.2023 31.9574C14.4449 28.0105 13.7508 25.588 12.2548 24.0919C10.7588 22.5959 8.33619 21.9019 4.3893 21.1445C4.16335 21.1011 4 20.9035 4 20.6734C4 20.4433 4.16335 20.2456 4.3893 20.2023C8.33619 19.4449 10.7587 18.7508 12.2548 17.2548C13.7509 15.7586 14.4449 13.3362 15.2023 9.3893C15.2456 9.16335 15.4433 9 15.6734 9C15.9034 9 16.1011 9.16335 16.1444 9.3893C16.9019 13.3362 17.596 15.7586 19.092 17.2548C20.588 18.7508 23.0105 19.4449 26.9574 20.2023C27.1834 20.2456 27.3467 20.4433 27.3467 20.6734C27.3467 20.9035 27.1834 21.1011 26.9574 21.1445C23.0105 21.9019 20.588 22.5959 19.092 24.0919C17.5959 25.588 16.9019 28.0105 16.1444 31.9574C16.1011 32.1834 15.9034 32.3467 15.6734 32.3467Z" fill="#110804"/>
<path d="M26.867 20.6733C18.5598 22.2674 17.2675 23.5597 15.6734 31.867C14.0792 23.5597 12.787 22.2674 4.47969 20.6733C12.787 19.0792 14.0792 17.7869 15.6734 9.47964C17.2675 17.7869 18.5598 19.0792 26.867 20.6733Z" fill="#FFC764"/>
<path d="M5.64971 39C5.54426 39 5.45365 38.9251 5.4338 38.8216C5.08666 37.0126 4.76855 35.9023 4.08287 35.2166C3.39719 34.5309 2.28685 34.2128 0.477853 33.8656C0.374293 33.8458 0.299426 33.7552 0.299426 33.6497C0.299426 33.5443 0.374293 33.4537 0.477853 33.4338C2.28685 33.0866 3.39717 32.7685 4.08287 32.0829C4.76857 31.3971 5.08666 30.2869 5.4338 28.4779C5.45365 28.3743 5.54426 28.2994 5.64971 28.2994C5.75517 28.2994 5.84577 28.3743 5.86563 28.4779C6.21279 30.2868 6.5309 31.3971 7.21658 32.0829C7.90228 32.7686 9.01258 33.0866 10.8216 33.4338C10.9251 33.4537 11 33.5443 11 33.6497C11 33.7552 10.9251 33.8458 10.8216 33.8656C9.01258 34.2128 7.90228 34.5309 7.21658 35.2166C6.53088 35.9022 6.21279 37.0126 5.86563 38.8216C5.84577 38.9251 5.75517 39 5.64971 39Z" fill="#110804"/>
<path d="M5.35029 38.7006C5.24483 38.7006 5.15423 38.6257 5.13437 38.5221C4.78723 36.7132 4.46912 35.6028 3.78344 34.9171C3.09776 34.2314 1.98742 33.9134 0.178428 33.5662C0.0748672 33.5464 0 33.4558 0 33.3503C0 33.2448 0.0748672 33.1542 0.178428 33.1344C1.98742 32.7872 3.09774 32.4691 3.78344 31.7834C4.46914 31.0977 4.78723 29.9874 5.13437 28.1784C5.15423 28.0749 5.24484 28 5.35029 28C5.45574 28 5.54635 28.0749 5.5662 28.1784C5.91336 29.9874 6.23148 31.0977 6.91716 31.7834C7.60286 32.4691 8.71315 32.7872 10.5221 33.1344C10.6257 33.1542 10.7006 33.2448 10.7006 33.3503C10.7006 33.4558 10.6257 33.5464 10.5221 33.5662C8.71315 33.9134 7.60286 34.2315 6.91716 34.9171C6.23146 35.6028 5.91336 36.7132 5.5662 38.5221C5.54635 38.6257 5.45574 38.7006 5.35029 38.7006Z" fill="#110804"/>
<path d="M10.4807 33.3503C6.67323 34.0809 6.08094 34.6732 5.35029 38.4807C4.61965 34.6732 4.02735 34.0809 0.219859 33.3503C4.02735 32.6196 4.61965 32.0273 5.35029 28.2198C6.08094 32.0273 6.67323 32.6196 10.4807 33.3503Z" fill="#FFC764"/>
</svg>
