<svg width="77" height="69" viewBox="0 0 77 69" fill="none" xmlns="http://www.w3.org/2000/svg">
<g clip-path="url(#clip0_5_146)">
<path d="M60.0763 23.1952C59.4319 22.0753 58.4691 21.3233 57.403 20.8034C57.045 20.6274 56.671 20.4754 56.2971 20.3554C56.4721 20.2434 56.6471 20.1234 56.8301 19.9954C62.1768 16.1398 58.6124 7.26855 52.2871 6.6286C51.0061 6.50062 49.8286 6.78059 48.7783 7.32454C48.4521 7.49253 48.1498 7.67651 47.8554 7.87649C47.378 2.061 38.9602 -0.0188137 34.6559 4.18882C32.9293 5.87667 32.5554 8.19647 32.7543 10.4283C32.5793 10.2843 32.3963 10.1403 32.1974 10.0043C26.8348 6.16464 19.8491 12.4681 21.2892 18.6915C21.9496 21.5233 24.3524 23.0192 26.7871 23.8191C25.9516 24.0431 25.0844 24.395 24.1933 24.899C18.3136 28.2507 21.1222 37.5379 27.5111 38.8898C30.5663 39.5297 33.1044 37.7219 34.9184 35.6661C34.7832 36.922 34.8786 38.3058 35.3719 39.7777C37.552 46.2411 47.5928 44.7933 50.0832 38.6018C50.7515 36.93 50.6083 35.3061 50.0434 33.8262C50.672 34.2022 51.396 34.5302 52.2234 34.7941C58.5089 36.746 62.9963 28.2987 60.0763 23.2032L60.0763 23.1952Z" fill="#FA919F"/>
<path d="M48.7464 21.2353C44.1477 25.6349 46.1447 28.4747 46.7574 30.3705C44.9195 32.2664 42.2939 33.3703 39.4614 33.1623C34.3614 32.7943 30.5265 28.3387 30.8924 23.2112C31.2584 18.0836 35.6901 14.2279 40.7901 14.5959C42.1507 14.6919 43.4237 15.0839 44.5535 15.6998C45.4287 19.5635 46.646 20.2274 48.7544 21.2273L48.7464 21.2353Z" fill="#EFC04E"/>
<path d="M76.0288 34.5462C75.6866 33.5063 74.342 33.5543 74.342 33.5543C74.4295 33.1863 74.0158 31.7304 71.8278 32.1384C69.6398 32.5383 68.7646 32.3624 67.4996 32.1544C66.2345 31.9544 65.0331 32.2984 64.6592 32.5223C64.1897 32.2264 62.7815 31.3385 61.413 32.7943C60.0047 34.2822 60.2036 36.026 60.7128 36.722C61.1266 37.2819 62.0415 37.6099 62.7417 37.6739C62.7417 37.6739 62.8372 38.8338 63.8874 39.6017C64.9376 40.3697 65.2957 40.7776 65.6696 42.0175C66.0436 43.2574 66.7358 43.8174 67.786 43.7134C68.8442 43.6094 70.0536 41.4096 67.9929 39.3378C68.7487 39.1058 70.4434 39.1138 71.9233 39.4097C73.4032 39.7057 75.0024 39.2258 75.3525 38.2179C75.6946 37.2099 74.9467 36.514 74.9467 36.514C75.6628 36.242 76.3709 35.5861 76.0288 34.5382V34.5462Z" fill="white"/>
<path d="M39.8275 58.3441C40.273 57.5522 40.9016 55.0804 37.1701 55.2244C32.9612 55.3923 32.452 56.2883 32.3645 56.6802C32.1178 57.8321 32.7066 58.5121 32.7066 58.5121C32.7066 58.5121 28.2033 56.3763 24.9253 58.7041C24.2251 59.2 23.6761 59.872 23.3499 60.6319C23.0396 61.3518 22.9203 62.1518 23.0476 62.9517C22.6736 63.7596 22.0133 65.8794 24.6229 67.1273C28.1158 68.7992 34.7593 68.2392 37.0189 66.5834C38.3794 66.5354 40.647 66.1274 41.2437 64.7355C41.6415 63.7916 41.3869 62.7677 41.1721 62.1918C41.3233 60.5119 39.8275 58.3281 39.8275 58.3281L39.8275 58.3441Z" fill="white"/>
<path d="M58.9306 41.1216C57.9599 40.8256 56.9653 41.1936 56.4243 41.4576C54.7455 41.4896 52.7485 43.2174 52.7485 43.2174C51.921 42.8574 49.4068 42.4895 49.9479 46.2091C50.5605 50.4008 51.4993 50.8167 51.9051 50.8567C53.0667 50.9847 53.6794 50.3208 53.6794 50.3208C53.6794 50.3208 52.0483 55.0484 54.6978 58.0801C55.2627 58.728 55.9867 59.2 56.7744 59.448C57.5223 59.688 58.3259 59.72 59.1056 59.504C59.941 59.792 62.1131 60.2239 63.0678 57.4882C64.3488 53.8165 63.0837 47.241 61.206 45.1532C61.0151 43.8014 60.3706 41.5695 58.9226 41.1296L58.9306 41.1216Z" fill="white"/>
<path d="M15.5208 22.6112C15.5208 22.6112 15.68 21.2513 15.0594 20.0674C14.4706 18.9555 14.8684 18.2516 15.3458 17.7796C15.6481 17.4757 16.4199 16.4438 15.7357 15.6438C15.0514 14.8439 13.7784 14.6839 12.9669 15.2519C12.1553 15.8198 11.6938 17.5557 11.7734 18.8355C10.1344 18.9475 7.27808 18.2916 5.23331 18.2116C3.38744 18.1396 2.65546 18.7236 2.50429 19.1795C2.10647 19.2115 0.379951 19.2995 0.276519 20.4994C0.181043 21.5793 1.62114 22.0113 1.62114 22.0113C1.35858 22.2032 1.01646 22.8032 1.56544 23.5071C2.04282 24.1151 3.92052 24.4591 5.94142 25.443C7.73955 26.3149 9.83207 27.2508 11.9246 26.7469C12.1474 27.6108 12.7282 27.9467 13.8182 27.5148C14.757 27.1388 16.2051 25.539 16.4517 24.4591C16.6904 23.3791 16.1812 22.6032 15.5208 22.6192L15.5208 22.6112Z" fill="white"/>
<path d="M42.5883 18.1636C44.7206 18.6196 43.3521 24.555 43.0816 25.6589C43.0339 25.6589 42.9941 25.6669 42.9463 25.6749C41.8643 25.8429 40.9493 25.8349 40.5037 25.7869C40.3208 24.0031 40.631 17.7476 42.5883 18.1636Z" fill="white"/>
<path d="M37.4564 17.1637C35.3003 16.8357 34.5046 22.8752 34.3694 24.0031C34.4092 24.0271 34.4489 24.0431 34.4887 24.0671C35.4435 24.611 36.3028 24.923 36.7324 25.035C37.528 23.4271 39.4376 17.4677 37.4485 17.1637H37.4564Z" fill="white"/>
<path d="M76.2435 34.4742C75.9412 33.5623 75.0103 33.3703 74.5727 33.3383C74.5409 33.0663 74.4056 32.7143 74.1351 32.4423C73.785 32.0744 73.0928 31.6824 71.788 31.9224C69.7512 32.2984 68.8998 32.1624 67.7223 31.9704L67.5313 31.9384C66.2743 31.7384 65.1445 32.0424 64.6671 32.2744C63.3622 31.4984 62.2165 31.6264 61.2459 32.6503C61.1026 32.8023 60.9753 32.9543 60.864 33.1063C60.2513 33.0023 59.6546 32.8743 59.0817 32.7463C59.1136 32.7063 59.1454 32.6743 59.1772 32.6343C61.3811 29.8586 61.8346 25.8429 60.2593 23.0912C59.6625 22.0513 58.7317 21.2113 57.4905 20.6114C57.2597 20.4994 57.021 20.3954 56.7824 20.3074C56.838 20.2674 56.8937 20.2274 56.9494 20.1874C59.2568 18.5236 60.1558 15.7638 59.3682 12.7961C58.9465 11.1962 58.0474 9.69234 56.846 8.55644C55.5491 7.32455 53.9738 6.58861 52.295 6.41263C51.0618 6.28464 49.8365 6.52462 48.6589 7.13257C48.4362 7.24456 48.2213 7.36454 48.0145 7.50053C47.7121 5.38872 46.3437 3.61287 44.1875 2.59696C40.9174 1.0531 36.9234 1.65304 34.4808 4.04484C33.0407 5.45271 32.3644 7.47654 32.4837 9.96432C32.428 9.92432 32.3723 9.87633 32.3087 9.83633C30.0332 8.20447 27.2007 8.22847 24.7343 9.88433C23.1032 10.9802 21.9177 12.6041 21.3131 14.3799C21.2415 14.6279 20.8595 15.9718 20.8755 17.3717C20.8914 17.7236 20.9312 18.0756 20.9948 18.4276C21.0266 18.6436 21.0903 18.9075 21.1539 19.0835C21.7666 21.1873 23.4533 22.8032 26.0709 23.8031C25.9436 23.8431 25.8243 23.8911 25.697 23.9391C25.4583 23.9951 24.9968 24.2111 24.4956 24.483C24.3603 24.555 24.2171 24.627 24.0819 24.707C23.8034 24.867 23.5408 25.043 23.2942 25.235C22.96 25.475 22.6815 25.7149 22.5383 25.9149C22.1803 26.2909 21.878 26.6989 21.6234 27.1388C21.5836 27.2108 21.5438 27.2908 21.504 27.3708C21.2494 27.3628 20.9868 27.3388 20.7322 27.2908C19.0296 27.0188 17.5338 26.1629 16.3801 25.251C16.5154 24.987 16.6268 24.731 16.6745 24.491C16.8257 23.8191 16.7223 23.2032 16.3881 22.7952C16.221 22.5872 16.0062 22.4512 15.7675 22.4032C15.7834 21.9473 15.7675 20.9074 15.2662 19.9634C14.7093 18.9155 15.1389 18.3076 15.5129 17.9396C15.9823 17.4757 16.6666 16.3718 15.9187 15.4998C15.1708 14.6279 13.7625 14.4279 12.8475 15.0679C11.9962 15.6678 11.5268 17.3237 11.5506 18.6276C10.6595 18.6516 9.47404 18.4916 8.2249 18.3156C7.20649 18.1716 6.1483 18.0276 5.24923 17.9876C3.1965 17.9076 2.55999 18.5956 2.36109 18.9635C2.33722 18.9635 2.30539 18.9635 2.28152 18.9635C2.28152 18.9635 2.26561 18.9635 2.25765 18.9635C2.2497 18.9635 2.24174 18.9635 2.23379 18.9635C0.539097 19.1475 0.109455 19.8755 0.053761 20.4754C-0.0258022 21.3873 0.76983 21.8833 1.23925 22.0913C1.15173 22.2192 1.08808 22.3792 1.06421 22.5712C1.03239 22.8192 1.06421 23.2032 1.39838 23.6351C1.54955 23.8271 1.78824 23.9791 2.10649 24.1311C2.45657 24.2991 2.91008 24.4591 3.4352 24.651C4.16718 24.915 4.99464 25.211 5.85392 25.6349C7.7157 26.5389 9.68887 27.3788 11.6939 27.0188C11.6939 27.0188 11.7018 27.0188 11.7098 27.0188C11.7336 27.0188 11.7575 27.0188 11.7814 27.0028C11.9166 27.3788 12.1235 27.6428 12.4099 27.7868C12.7918 27.9787 13.2931 27.9547 13.9057 27.7148C14.0967 27.6348 14.3115 27.5148 14.5263 27.3548C15.9982 28.5307 17.9555 29.6746 20.2708 30.0506C20.4379 30.0746 20.597 30.0986 20.7641 30.1146C20.7641 30.1146 20.7641 30.1226 20.7641 30.1306C20.7641 30.2505 20.7561 30.3785 20.7561 30.4985C20.7561 30.5225 20.7561 30.5545 20.7561 30.5785C20.7561 30.6985 20.7561 30.8105 20.7641 30.9305C20.7641 30.9385 20.7641 30.9465 20.7641 30.9545C20.7641 31.0825 20.78 31.2025 20.7959 31.3304C20.7959 31.3624 20.7959 31.3944 20.8039 31.4264C20.8198 31.5544 20.8357 31.6824 20.8516 31.8024C20.8675 31.9144 20.8914 32.0184 20.9073 32.1304C20.9073 32.1624 20.9232 32.1944 20.9312 32.2264C20.9471 32.2984 20.963 32.3784 20.9789 32.4503C20.9869 32.4903 21.0028 32.5303 21.0107 32.5703C21.0266 32.6343 21.0425 32.6983 21.0585 32.7623C21.0664 32.8023 21.0823 32.8503 21.0982 32.8903C21.1142 32.9543 21.1301 33.0103 21.1539 33.0743C21.1698 33.1223 21.1858 33.1623 21.1937 33.2103C21.2096 33.2663 21.2335 33.3303 21.2494 33.3863C21.2653 33.4343 21.2812 33.4743 21.2972 33.5223C21.321 33.5783 21.3369 33.6342 21.3608 33.6902C21.3767 33.7382 21.4006 33.7782 21.4165 33.8262C21.4404 33.8822 21.4642 33.9382 21.4881 33.9862C21.504 34.0342 21.5279 34.0742 21.5518 34.1222C21.5756 34.1782 21.5995 34.2262 21.6234 34.2822C21.6472 34.3302 21.6631 34.3702 21.687 34.4182C21.7109 34.4662 21.7347 34.5222 21.7666 34.5702C21.7904 34.6182 21.8143 34.6582 21.8382 34.7062C21.862 34.7542 21.8939 34.8022 21.9177 34.8581C21.9416 34.9061 21.9655 34.9461 21.9893 34.9861C22.0212 35.0341 22.045 35.0821 22.0769 35.1301C22.1007 35.1701 22.1326 35.2181 22.1564 35.2581C22.1883 35.3061 22.2121 35.3541 22.244 35.3941C22.2758 35.4341 22.2996 35.4821 22.3315 35.5221C22.3633 35.5701 22.3951 35.6101 22.4269 35.6501C22.4588 35.6901 22.4906 35.7381 22.5145 35.7781C22.5463 35.8181 22.5702 35.8581 22.602 35.8901C22.6736 35.986 22.7532 36.082 22.8327 36.178C22.8566 36.202 22.8805 36.234 22.8964 36.258C22.9362 36.306 22.9759 36.354 23.0237 36.402C23.0475 36.434 23.0794 36.466 23.1032 36.498C23.143 36.546 23.1908 36.586 23.2305 36.634C23.2624 36.666 23.2862 36.698 23.3181 36.73C23.3578 36.778 23.4056 36.818 23.4454 36.858C23.4772 36.89 23.5011 36.914 23.5329 36.946C23.5806 36.986 23.6204 37.034 23.6681 37.074C23.7 37.106 23.7318 37.13 23.7636 37.1619C23.8114 37.2019 23.8591 37.2419 23.9068 37.2819C23.9387 37.3059 23.9705 37.3379 24.0023 37.3619C24.05 37.4019 24.0978 37.4419 24.1455 37.4819C24.1773 37.5059 24.2092 37.5299 24.241 37.5539C24.2887 37.5939 24.3444 37.6339 24.3922 37.6659C24.424 37.6899 24.4558 37.7139 24.4876 37.7379C24.5433 37.7779 24.5911 37.8099 24.6468 37.8499C24.6786 37.8739 24.7104 37.8899 24.7422 37.9139C24.7979 37.9539 24.8536 37.9859 24.9093 38.0259C24.9412 38.0419 24.965 38.0659 24.9968 38.0819C25.0525 38.1139 25.1162 38.1539 25.1719 38.1859C25.1958 38.2019 25.2276 38.2179 25.2515 38.2339C25.3151 38.2659 25.3788 38.3058 25.4344 38.3378C25.4583 38.3538 25.4822 38.3618 25.5061 38.3698C25.5777 38.4018 25.6413 38.4418 25.7129 38.4738C25.7288 38.4738 25.7368 38.4818 25.7527 38.4898C26.0948 38.6498 26.4449 38.7938 26.8029 38.9058C26.8029 38.9058 26.8188 38.9058 26.8268 38.9058C27.0416 38.9698 27.2644 39.0258 27.4792 39.0738C27.7577 39.1298 28.0362 39.1698 28.3146 39.1938C30.1685 39.3298 32.0302 38.6098 33.7806 37.09C32.9452 40.7536 32.4758 46.7371 34.4967 55.2484C33.0646 55.5203 32.2928 55.9683 32.1575 56.6162C32.0302 57.2242 32.1098 57.7122 32.2291 58.0561C30.8845 57.5522 27.4872 56.6082 24.8059 58.5121C24.0739 59.032 23.5011 59.728 23.151 60.5359C22.8168 61.3038 22.7054 62.1198 22.8248 62.9197C22.602 63.4236 22.3156 64.3276 22.5781 65.2715C22.8248 66.1354 23.4851 66.8314 24.5274 67.3273C25.9277 67.9993 27.9168 68.3592 30.1128 68.3592C32.3087 68.3592 30.9004 68.3512 31.2983 68.3272C33.6533 68.1912 35.7061 67.6793 36.8995 66.9353C36.9154 66.9273 36.9234 66.9193 36.9393 66.9113C36.995 66.8793 37.0507 66.8394 37.0984 66.8074C37.8384 66.7754 40.7185 66.5434 41.4505 64.8235C41.8722 63.8316 41.6256 62.7677 41.4028 62.1598C41.5062 60.6319 40.4003 58.8001 40.09 58.3201C40.1139 58.2721 40.1377 58.2241 40.1616 58.1681C40.1616 58.1601 40.1775 58.1521 40.1775 58.1361C40.1855 58.1121 40.1934 58.0961 40.2014 58.0721C40.4162 57.5202 40.5435 56.7122 40.1377 56.0403C39.6922 55.3044 38.7374 54.9524 37.2973 54.9924C35.8652 49.1129 35.7061 44.5853 35.9527 41.4096C37.0507 43.0174 38.8568 44.0093 41.0527 44.1693C41.1721 44.1773 41.2994 44.1853 41.4267 44.1853C41.4744 44.1853 41.5301 44.1853 41.5778 44.1853C42.2064 45.2092 42.9702 46.2332 43.9011 47.2171C45.2059 48.585 46.1766 49.0409 47.2905 49.0409C48.4044 49.0409 48.7385 48.8649 49.6615 48.617C49.8285 48.577 49.9956 48.529 50.1786 48.481C50.6162 50.1368 51.1811 50.9847 51.8892 51.0567C52.5019 51.1207 52.9792 50.9847 53.3055 50.8248C52.9554 52.2246 52.3746 55.7203 54.5466 58.2001C55.1354 58.8721 55.8913 59.368 56.7267 59.632C57.5223 59.88 58.3418 59.904 59.1136 59.704C59.6387 59.872 60.5616 60.064 61.4686 59.704C62.2961 59.368 62.9167 58.6321 63.2986 57.5362C63.8078 56.0643 63.959 54.0405 63.7203 51.8487C63.6805 51.4567 63.6248 51.0647 63.5612 50.6648C63.1792 48.329 62.4473 46.3292 61.588 45.2173C61.58 45.2093 61.5721 45.1933 61.5562 45.1853C61.5164 45.1373 61.4766 45.0813 61.4368 45.0413C61.3254 44.3053 60.7844 41.4496 59.0101 40.9056C57.9838 40.5937 56.9654 40.9536 56.3766 41.2336C54.849 41.2896 53.1543 42.5935 52.7167 42.9535C52.6689 42.9375 52.6133 42.9215 52.5576 42.8975C52.5496 42.8975 52.5337 42.8895 52.5257 42.8815C52.5019 42.8735 52.478 42.8655 52.4621 42.8655C51.8892 42.7135 51.0777 42.6655 50.465 43.1454C49.8445 43.6174 49.5898 44.4893 49.6853 45.7292C49.4228 45.7932 49.1841 45.8572 48.9693 45.9132C48.1179 46.1372 47.5053 46.2972 47.1711 46.2412C46.9881 46.2092 46.6778 46.0732 45.922 45.2812C45.4366 44.7773 45.007 44.2493 44.6251 43.7214C45.3253 43.4974 46.0095 43.1934 46.646 42.8175C48.3566 41.8096 49.6217 40.3777 50.3059 38.6658C50.8708 37.2659 50.9186 35.7941 50.4571 34.2822C50.5526 34.3302 50.656 34.3862 50.7594 34.4342C51.4357 34.8342 53.3532 35.2661 54.2284 35.2821C54.9285 35.2661 55.6128 35.1301 56.2652 34.8662C57.4507 35.2181 58.7555 35.5461 60.1558 35.7941C60.2195 36.226 60.3548 36.586 60.5378 36.834C60.9594 37.4179 61.8267 37.7539 62.5587 37.8579C62.6303 38.2419 62.8928 39.1298 63.768 39.7697C64.7864 40.5137 65.1126 40.8816 65.4707 42.0735C65.8764 43.4174 66.6641 44.0414 67.8258 43.9294C67.9053 43.9294 67.9769 43.9054 68.0565 43.8814C68.5418 43.7294 68.9874 43.2494 69.2022 42.6175C69.3772 42.1135 69.6318 40.8576 68.4384 39.4658C69.2261 39.3378 70.5866 39.3618 71.8994 39.6257C73.5623 39.9617 75.2172 39.3618 75.5832 38.2899C75.8457 37.5219 75.5513 36.914 75.3286 36.594C76.0446 36.218 76.6016 35.5061 76.2595 34.4662L76.2435 34.4742ZM0.499315 20.5154C0.555009 19.8995 1.15969 19.5315 2.3054 19.4195C4.07966 19.3395 6.42678 20.2114 7.12693 20.4834C6.97576 20.8754 6.82459 21.3953 6.73707 22.0273C6.12444 21.7793 4.62069 21.2193 3.50681 21.2193C2.51227 21.2193 1.90758 21.5233 1.58933 21.7553C1.29495 21.6433 0.443621 21.2593 0.499315 20.5154ZM6.04487 25.235C5.16172 24.803 4.32631 24.507 3.58637 24.2351C2.72709 23.9231 1.97919 23.6591 1.74846 23.3631C1.55751 23.1152 1.47794 22.8752 1.50977 22.6352C1.53364 22.4912 1.59729 22.3632 1.6689 22.2752C1.68481 22.2592 1.72459 22.2192 1.78824 22.1633L1.91554 22.0753C2.18606 21.8993 2.6873 21.6673 3.51476 21.6673C4.61274 21.6673 6.204 22.2832 6.68934 22.4832C6.66547 22.7472 6.65751 23.0192 6.66547 23.3151C6.66547 23.4031 6.72116 23.4751 6.79277 23.5151C6.82459 23.5311 6.85642 23.5391 6.88824 23.5391C7.00759 23.5391 7.11102 23.4351 7.11102 23.3151C7.0792 21.1473 7.93848 19.8515 7.94644 19.8355C8.01804 19.7315 7.99417 19.5955 7.89074 19.5235C7.78731 19.4515 7.65205 19.4755 7.58044 19.5795C7.56453 19.5955 7.45314 19.7715 7.30993 20.0754C6.67342 19.8195 4.67639 19.0755 2.90213 18.9795C3.22833 18.6596 3.95236 18.3876 5.22537 18.4356C6.10057 18.4676 7.1508 18.6196 8.16126 18.7555C9.43427 18.9315 10.6357 19.0995 11.5666 19.0755C11.5666 19.0755 11.5666 19.0755 11.5745 19.0755C11.6461 19.0755 11.7177 19.0755 11.7893 19.0675L12.0121 19.0515C12.3065 19.0195 12.5054 18.9875 12.5134 18.9875C12.6327 18.9715 12.7202 18.8515 12.7043 18.7316C12.6884 18.6116 12.5691 18.5236 12.4497 18.5396C12.4497 18.5396 12.2667 18.5636 11.9882 18.5956C11.9803 17.4357 12.402 15.9238 13.0942 15.4358C13.8262 14.9239 14.9639 15.0839 15.5686 15.7878C16.229 16.5557 15.2026 17.6116 15.1946 17.6196C14.4627 18.3396 14.3513 19.1955 14.8684 20.1714C15.3538 21.0913 15.3379 22.1552 15.314 22.4832C15.306 22.5552 15.2026 23.1952 14.8446 23.6831C14.6854 22.1712 13.2613 21.6113 13.2453 21.6033C13.134 21.5553 12.9987 21.6193 12.9589 21.7313C12.9112 21.8433 12.9748 21.9793 13.0862 22.0193C13.1021 22.0193 14.59 22.6192 14.3911 24.2671C14.3195 24.635 13.8978 26.1149 11.6223 26.5789C9.74457 26.9228 7.83505 26.1069 6.04487 25.235ZM13.7466 27.2988C13.2613 27.4908 12.8794 27.5228 12.6168 27.3868C12.4418 27.2988 12.3145 27.1308 12.219 26.8828C14.0649 26.3309 14.7332 25.043 14.8446 24.3151C15.3617 23.9151 15.6004 23.2432 15.6959 22.8432C15.8232 22.8752 15.9425 22.9552 16.046 23.0752C16.2926 23.3711 16.3642 23.8671 16.2449 24.3871C16.0142 25.427 14.5979 26.9468 13.7466 27.2828V27.2988ZM58.8669 41.3376C59.9569 41.6735 60.6253 43.2414 60.9037 44.6653C60.6332 44.5133 60.4184 44.4733 60.4025 44.4733C60.2831 44.4493 60.1638 44.5293 60.1479 44.6573C60.124 44.7773 60.2036 44.8973 60.3229 44.9213C60.3229 44.9213 60.8242 45.0173 61.222 45.5212C62.9485 47.745 64.0783 53.9285 62.861 57.4162C62.5189 58.3921 61.9937 59.032 61.2856 59.32C60.7923 59.52 60.2911 59.528 59.8615 59.464C60.7128 59.056 61.6675 58.2321 62.0972 56.5842C62.495 55.0484 62.5984 53.4725 62.4313 51.9046C62.1767 49.5049 61.2697 47.1451 59.766 45.0652C59.758 45.0492 59.7421 45.0332 59.7341 45.0173C59.2488 42.9534 58.485 41.8335 57.2518 41.3856C57.7292 41.2496 58.302 41.1776 58.8669 41.3456L58.8669 41.3376ZM50.7196 43.5134C51.2288 43.1214 51.9449 43.1934 52.4064 43.3294C53.6953 43.8814 53.6237 45.3692 53.6157 45.4412C53.6157 45.5612 53.7033 45.6732 53.8226 45.6812C53.9419 45.6812 54.0533 45.5932 54.0613 45.4732C54.0613 45.4732 54.0692 45.3132 54.0454 45.0812C53.9976 44.5933 53.7987 43.7694 53.0986 43.2254C53.7271 42.7295 55.6844 41.3296 57.029 41.7695C58.0395 42.1055 58.7157 42.9854 59.1693 44.6013C58.7157 44.3853 58.2702 44.3853 58.2463 44.3853C58.127 44.3853 58.0235 44.4893 58.0235 44.6093C58.0235 44.7293 58.127 44.8333 58.2463 44.8333C58.2463 44.8333 58.9942 44.8333 59.4159 45.3292C61.8187 48.6489 62.6382 52.6966 61.6675 56.4562C61.222 58.1761 60.1479 58.896 59.3204 59.2C58.5327 59.488 57.6735 59.496 56.846 59.232C56.0902 58.992 55.4059 58.5441 54.8728 57.9281C53.9738 56.9042 53.5919 55.6723 53.4646 54.4964C53.2895 52.8806 53.6157 51.3847 53.7908 50.7368C54.2841 49.3609 55.4934 48.7449 55.5014 48.7369C55.5889 48.6969 55.6367 48.6009 55.6207 48.5129C55.6207 48.4889 55.6128 48.465 55.5969 48.441C55.5412 48.329 55.4059 48.281 55.3025 48.337C55.2547 48.361 54.2045 48.8969 53.576 50.1048L53.5123 50.1688C53.4884 50.1928 52.9474 50.7447 51.921 50.6408C51.6585 50.6168 51.1015 50.3048 50.6003 48.401C50.8867 48.329 51.1891 48.257 51.5232 48.185C52.2711 48.025 52.7485 47.2731 52.5894 46.5211C52.4303 45.7692 51.6824 45.2892 50.9345 45.4492C50.6401 45.5132 50.3696 45.5772 50.107 45.6412C50.0354 44.6173 50.2423 43.8893 50.7117 43.5294L50.7196 43.5134ZM48.8738 7.51653C49.9717 6.95658 51.1095 6.7326 52.2632 6.84459C55.3343 7.15656 58.0872 9.64435 58.9465 12.9001C59.6864 15.6838 58.843 18.2676 56.6948 19.8115C54.5387 21.3633 52.287 21.8913 49.9956 21.3793C48.3486 21.0114 47.2745 20.2034 47.187 20.1314L46.9404 19.8995C46.6142 19.5955 46.3118 19.2595 46.0572 18.9075C48.6112 16.8837 54.7694 12.6041 54.8251 12.5641C54.9285 12.4921 54.9524 12.3561 54.8808 12.2521C54.8092 12.1481 54.6739 12.1241 54.5705 12.1961C54.5069 12.2361 48.3805 16.4997 45.7947 18.5396C44.8558 17.0757 44.466 15.2919 44.7206 13.444C45.0786 10.8762 46.6301 8.66043 48.8658 7.51653L48.8738 7.51653ZM45.5639 26.4989C45.548 26.7549 45.5639 27.0108 45.5878 27.2668C45.6674 27.8588 45.8981 29.0347 46.5426 30.3225C45.3809 31.5064 43.9011 32.3704 42.2621 32.7783C41.6972 32.9223 40.9811 32.9943 40.5276 33.0263C40.1775 33.0423 39.8195 33.0423 39.4614 33.0103C34.3455 32.6423 30.5185 28.0267 31.163 22.8352C31.7279 18.2596 35.6981 14.8119 40.2809 14.8999C41.7449 14.9319 43.1134 15.3079 44.3148 15.9478C44.6012 17.5877 45.3969 19.0675 46.6301 20.2194L46.8847 20.4594H46.9006C46.9324 20.4994 47.4973 20.9394 48.4441 21.3393C46.9245 22.4512 45.9458 23.9951 45.6435 25.8109L45.5958 26.0669C45.5719 26.1789 45.556 26.4589 45.5639 26.4829V26.4989ZM34.807 4.34881C37.1223 2.08501 40.9095 1.52506 44.0204 2.98893C46.1447 3.98884 47.4098 5.69269 47.6246 7.76451C45.8265 9.0684 44.6092 11.0922 44.2909 13.388C44.1954 14.068 44.1875 14.7319 44.2511 15.3798C43.2566 14.8919 42.1586 14.5799 40.997 14.4679C40.5435 11.0602 40.4798 5.94867 40.4798 5.89268C40.4798 5.77269 40.3764 5.6687 40.2571 5.6687C40.1377 5.6687 40.0343 5.77269 40.0343 5.89268C40.0343 6.14065 40.0979 11.0362 40.5435 14.4359C39.0477 14.3719 37.6156 14.6599 36.3187 15.2279C35.8413 13.7 34.8865 11.8842 32.985 10.3083C32.8099 8.15648 33.1759 5.94067 34.8149 4.34081L34.807 4.34881ZM21.512 18.6356C20.7959 15.5638 22.236 12.1081 25.0048 10.2443C26.3017 9.37237 27.7099 8.9804 29.0625 9.0764C30.1128 9.14839 31.1391 9.52436 32.07 10.1883C34.3296 11.8122 35.4037 13.804 35.905 15.4278C34.5444 16.1078 33.3669 17.0997 32.4678 18.3236C29.4524 17.0117 25.5458 14.6199 25.4981 14.5879C25.3947 14.5239 25.2594 14.5559 25.1957 14.6599C25.1321 14.7639 25.1639 14.8999 25.2674 14.9639C25.4503 15.0759 29.1978 17.3797 32.2053 18.6916C31.3221 20.0194 30.7652 21.5873 30.6379 23.2912C29.5399 23.1712 28.2351 23.1952 26.8188 23.5631C24.4558 22.7792 22.1326 21.3313 21.504 18.6196L21.512 18.6356ZM27.5588 38.6658C27.511 38.6578 27.4713 38.6418 27.4235 38.6338C27.328 38.6098 27.2326 38.5858 27.1371 38.5618C27.0416 38.5378 26.9461 38.5058 26.8586 38.4738C26.7631 38.4418 26.6756 38.4098 26.5801 38.3778C26.4847 38.3458 26.3972 38.3058 26.3017 38.2738C26.2142 38.2338 26.1187 38.1938 26.0312 38.1539C25.9436 38.1139 25.8561 38.0659 25.7686 38.0259C25.6811 37.9779 25.5936 37.9379 25.506 37.8899C25.4185 37.8419 25.339 37.7939 25.2514 37.7379C25.1719 37.6899 25.0844 37.6339 25.0048 37.5779C25.0048 37.5779 25.0048 37.5779 24.9968 37.5779C24.9173 37.5219 24.8377 37.4739 24.7582 37.4099C24.7582 37.4099 24.7502 37.4099 24.7422 37.4019C24.6627 37.3459 24.5911 37.2899 24.5115 37.2339C24.5115 37.2339 24.5035 37.2259 24.4956 37.2179C24.424 37.1619 24.3524 37.0979 24.2808 37.0419C24.2808 37.0419 24.2649 37.0339 24.2649 37.0259C24.1932 36.97 24.1296 36.906 24.058 36.842C24.058 36.842 24.0421 36.826 24.0341 36.818C23.9705 36.754 23.8989 36.698 23.8352 36.634C23.8273 36.626 23.8193 36.618 23.8113 36.61C23.7477 36.546 23.684 36.49 23.6284 36.426C23.6204 36.418 23.6045 36.402 23.5965 36.394C23.5408 36.33 23.4772 36.266 23.4215 36.202C23.4056 36.186 23.3976 36.178 23.3897 36.162C23.334 36.098 23.2783 36.034 23.2305 35.97C23.2146 35.954 23.2067 35.938 23.1908 35.9221C23.143 35.8581 23.0873 35.7941 23.0396 35.7301C23.0237 35.7141 23.0078 35.6901 22.9998 35.6741C22.9521 35.6101 22.9043 35.5461 22.8566 35.4901C22.8407 35.4661 22.8248 35.4421 22.8089 35.4261C22.7691 35.3621 22.7213 35.3061 22.6815 35.2421C22.6656 35.2181 22.6497 35.1941 22.6338 35.1701C22.594 35.1061 22.5542 35.0501 22.5145 34.9861C22.4986 34.9541 22.4826 34.9301 22.4667 34.8981C22.4269 34.8421 22.3951 34.7782 22.3633 34.7142C22.3474 34.6822 22.3315 34.6502 22.3076 34.6182C22.2758 34.5622 22.244 34.4982 22.2121 34.4422C22.1962 34.4102 22.1803 34.3702 22.1564 34.3382C22.1246 34.2822 22.1007 34.2262 22.0689 34.1622C22.053 34.1222 22.0291 34.0822 22.0132 34.0422C21.9893 33.9862 21.9575 33.9302 21.9337 33.8742C21.9177 33.8342 21.9018 33.7862 21.878 33.7462C21.8541 33.6902 21.8302 33.6423 21.8143 33.5863C21.7984 33.5383 21.7825 33.4903 21.7586 33.4503C21.7427 33.4023 21.7188 33.3463 21.7029 33.2983C21.687 33.2503 21.6711 33.1943 21.6552 33.1463C21.6393 33.0983 21.6234 33.0503 21.6074 33.0023C21.5915 32.9463 21.5756 32.8903 21.5597 32.8343C21.5438 32.7863 21.5358 32.7463 21.5199 32.6983C21.504 32.6343 21.4881 32.5703 21.4722 32.5063C21.4642 32.4664 21.4563 32.4344 21.4404 32.3944C21.4244 32.3144 21.4085 32.2344 21.3926 32.1544C21.3926 32.1304 21.3847 32.1064 21.3767 32.0824C21.3528 31.9784 21.3369 31.8744 21.321 31.7624C21.1778 30.8425 21.2017 29.9626 21.3767 29.1386C21.7427 27.4348 22.7611 26.0109 24.3365 25.107C24.4638 25.035 24.5831 24.971 24.7024 24.907C24.7422 24.891 24.7741 24.867 24.8138 24.851C24.9093 24.803 24.9968 24.755 25.0923 24.715C25.1241 24.699 25.1639 24.683 25.1957 24.667C25.3151 24.611 25.4344 24.555 25.5538 24.507C27.2803 23.7791 28.8875 23.6271 30.2241 23.7231C30.3753 23.7311 30.5185 23.7471 30.6538 23.7631C30.614 25.555 31.0675 27.2588 31.9029 28.7227C30.5106 29.8426 28.2112 31.5144 25.5856 32.6183C25.4742 32.6663 25.4185 32.7943 25.4663 32.9143C25.4981 32.9943 25.5776 33.0423 25.6572 33.0503C25.689 33.0503 25.7288 33.0503 25.7606 33.0343C28.4021 31.9224 30.7254 30.2506 32.1416 29.1066C33.2157 30.8025 34.807 32.1384 36.7085 32.8903C36.1277 33.8342 35.3321 34.9621 34.3535 35.986C34.2659 36.082 34.1784 36.17 34.083 36.266C34.0909 36.266 34.0989 36.266 34.1068 36.258C32.0143 38.3378 29.8263 39.1538 27.5985 38.6818L27.5588 38.6658ZM41.0368 64.6635C40.5912 65.7194 38.9681 66.2154 37.528 66.3434C37.7031 66.0874 37.7667 65.8794 37.7747 65.8634C37.8065 65.7434 37.7429 65.6235 37.6235 65.5835C37.5042 65.5515 37.3848 65.6155 37.3451 65.7354C37.3451 65.7354 37.1939 66.2234 36.6608 66.5674C34.2739 68.0552 28.0441 68.5272 24.7184 66.9353C23.7954 66.4954 23.2146 65.8954 23.0078 65.1595C22.8645 64.6475 22.9123 64.1436 23.0157 63.7196C23.334 64.6155 24.0421 65.6555 25.6254 66.2554C27.0973 66.8153 28.6488 67.0873 30.2162 67.0873C32.619 67.0873 35.0457 66.4314 37.2655 65.1515C37.2814 65.1435 37.2973 65.1355 37.3132 65.1275C39.4057 64.8635 40.5992 64.2156 41.1641 63.0317C41.2516 63.5276 41.2596 64.1036 41.0288 64.6475L41.0368 64.6635ZM39.7558 56.2883C40.09 56.8402 39.9388 57.5442 39.7558 57.9921C39.0716 59.224 37.6076 58.992 37.536 58.976C37.4167 58.952 37.2973 59.04 37.2814 59.16C37.2575 59.28 37.3451 59.4 37.4644 59.416C37.4644 59.416 37.6235 59.44 37.8543 59.44C38.3396 59.44 39.175 59.336 39.7876 58.6881C40.2093 59.368 41.3869 61.4718 40.8061 62.7757C40.3685 63.7516 39.4217 64.3276 37.7826 64.6155C38.0452 64.1836 38.085 63.7436 38.0929 63.7116C38.1009 63.5916 38.0134 63.4796 37.894 63.4636C37.7747 63.4476 37.6633 63.5436 37.6474 63.6636C37.6474 63.6636 37.5678 64.4076 37.0348 64.7755C33.4942 66.8233 29.4046 67.2073 25.7925 65.8394C24.1376 65.2075 23.5408 64.0556 23.334 63.1997C23.1351 62.3837 23.2146 61.5198 23.5647 60.7199C23.8829 59.9919 24.4001 59.352 25.0684 58.88C26.1744 58.0961 27.4394 57.8401 28.609 57.8401C29.7786 57.8401 31.6722 58.3281 32.2928 58.5681C33.5976 59.208 34.083 60.4799 34.0909 60.4959C34.1227 60.5839 34.2103 60.6399 34.2978 60.6399C34.3853 60.6399 34.3455 60.6399 34.3773 60.6239C34.4967 60.5839 34.5524 60.4559 34.5126 60.3359C34.4967 60.2799 34.075 59.176 32.9532 58.4241L32.8895 58.3521C32.8656 58.3281 32.3723 57.7281 32.5951 56.7122C32.6429 56.4722 32.9691 55.9923 34.6081 55.6883C34.6876 56.0323 34.7752 56.3683 34.8706 56.7202C35.0377 57.3442 35.6026 57.7601 36.2153 57.7601C36.8279 57.7601 36.4539 57.7441 36.5733 57.7121C37.3132 57.5122 37.7588 56.7522 37.5678 56.0003C37.5201 55.8083 37.4644 55.6083 37.4167 55.4163C38.6181 55.4003 39.4296 55.6883 39.7717 56.2563L39.7558 56.2883ZM50.0911 37.8979C50.0911 37.9139 50.0831 37.9299 50.0752 37.9539C50.0195 38.1379 49.9558 38.3298 49.8842 38.5138C48.4521 42.0735 44.5455 43.8414 41.4267 43.7534C38.5544 43.6654 36.4301 42.1935 35.5867 39.6977C35.1491 38.4098 34.9979 37.0819 35.1412 35.7541C35.2048 35.6821 35.2685 35.6101 35.3321 35.5301C36.0482 34.6742 36.6449 33.7942 37.1064 33.0343C37.8463 33.2823 38.626 33.4423 39.4376 33.4983C39.6763 33.5143 39.9149 33.5223 40.1536 33.5223C40.8697 33.5223 41.5937 33.4263 42.1825 33.2903C43.185 36.458 43.3362 39.0258 43.3362 39.0498C43.3362 39.1618 43.4316 39.2498 43.543 39.2578C43.551 39.2578 43.5589 39.2578 43.5749 39.2578C43.6942 39.2578 43.7897 39.1458 43.7817 39.0178C43.7817 38.9938 43.6226 36.386 42.6121 33.1783C42.6758 33.1623 42.7394 33.1463 42.8031 33.1223C44.3148 32.6743 45.6753 31.8504 46.7813 30.7545C47.4178 31.8744 48.3884 33.0423 49.8444 33.9462C50.3139 35.1861 50.473 36.514 50.0831 37.8899L50.0911 37.8979ZM54.0931 34.8501C53.4725 34.8021 51.571 34.4502 50.4332 33.7862C47.0518 31.9224 46.2323 28.6667 46.0334 27.2028C45.9936 26.9308 45.9936 26.6589 46.0175 26.3869C46.0891 25.6589 46.2721 24.971 46.5585 24.3311C49.4944 25.003 56.2732 29.1226 56.3448 29.1626C56.3766 29.1786 56.4084 29.1946 56.4402 29.1946C56.5198 29.1946 56.5994 29.1626 56.6471 29.0906C56.7108 28.9867 56.6789 28.8507 56.5755 28.7867C56.2891 28.6107 49.8206 24.683 46.7653 23.9231C47.2666 22.9872 48.0065 22.1873 48.9533 21.5473C49.2398 21.6433 49.5501 21.7393 49.8763 21.8113C50.2343 21.8913 50.6321 21.9553 51.0697 21.9873C52.5098 22.0913 54.3398 21.8273 56.3129 20.5954C56.6471 20.7074 56.9733 20.8434 57.2995 20.9954C58.4771 21.5713 59.3125 22.3232 59.8774 23.2992C61.3652 25.8989 60.9276 29.6986 58.8271 32.3384C57.5303 33.9702 55.8674 34.8341 54.0852 34.8421L54.0931 34.8501ZM74.9466 36.274C74.2942 35.8741 73.3792 35.922 72.4086 35.97C71.9869 35.994 71.5573 36.018 71.1435 36.002C69.7512 35.954 69.0749 35.4981 69.0669 35.4901C68.9635 35.4181 68.8282 35.4421 68.7566 35.5461C68.685 35.6501 68.7089 35.7861 68.8123 35.8581C68.8441 35.882 69.592 36.402 71.1356 36.458C71.5732 36.474 72.0108 36.45 72.4404 36.426C73.4509 36.37 74.4056 36.322 74.9148 36.81C75.0819 37.026 75.3683 37.5139 75.1456 38.1539C74.8512 39.0098 73.4031 39.4817 71.971 39.2018C70.7537 38.9538 69.2977 38.8978 68.3827 39.0338C67.7621 39.0978 67.1256 39.3697 67.0938 39.3857C66.9824 39.4337 66.9267 39.5697 66.9824 39.6817C67.0301 39.7937 67.1654 39.8497 67.2767 39.8017C67.2767 39.8017 67.5632 39.6737 67.9212 39.5857C69.1624 40.8816 68.9396 42.0495 68.7805 42.4975C68.5816 43.0494 68.1758 43.4734 67.778 43.5134C66.8312 43.6094 66.2345 43.1214 65.8923 41.9775C65.5025 40.6816 65.1047 40.2337 64.0306 39.4417C63.2986 38.9058 63.0758 38.1618 63.0042 37.8339C63.0281 37.8339 63.0519 37.8179 63.0758 37.8099C63.8953 37.5459 64.3409 36.834 64.3647 36.802C64.4284 36.698 64.3966 36.562 64.2931 36.498C64.1897 36.434 64.0544 36.466 63.9828 36.57C63.9828 36.57 63.4816 37.3539 62.6382 37.4499C62.0017 37.3699 61.2299 37.0659 60.8878 36.602C60.7605 36.426 60.6571 36.186 60.6014 35.906C60.9912 35.97 61.3891 36.034 61.7948 36.082C61.8585 36.09 61.9142 36.098 61.9778 36.098C62.6621 36.098 63.2668 35.5861 63.3543 34.8821C63.4577 34.1142 62.9167 33.4103 62.1608 33.3143C61.8983 33.2823 61.6357 33.2423 61.3731 33.2023C61.4368 33.1223 61.5004 33.0503 61.5721 32.9703C62.8053 31.6664 64.0385 32.4184 64.5238 32.7223C64.9614 33.0903 64.866 34.0342 64.7944 34.3782C64.7705 34.4982 64.8421 34.6182 64.9614 34.6422C65.0012 34.6502 65.041 34.6422 65.0728 34.6422C65.1444 34.6182 65.2081 34.5542 65.224 34.4742C65.232 34.4182 65.4706 33.3063 65.0171 32.6263C65.5184 32.4343 66.4811 32.2424 67.4597 32.4024L67.6507 32.4343C68.8203 32.6263 69.7512 32.7783 71.8675 32.3864C72.9735 32.1864 73.5384 32.4903 73.8089 32.7783C74.0078 32.9863 74.0874 33.2183 74.1192 33.3703C73.7293 33.4023 73.2917 33.4903 72.7189 33.6102C72.4802 33.6582 72.2097 33.7142 71.9153 33.7782C70.6582 34.0262 69.5045 33.8502 69.4966 33.8502C69.3772 33.8342 69.2579 33.9142 69.242 34.0342C69.226 34.1542 69.3056 34.2742 69.425 34.2902C69.4727 34.2902 70.6582 34.4822 72.0028 34.2102C72.2972 34.1542 72.5677 34.0982 72.8064 34.0422C73.6259 33.8662 74.1669 33.7542 74.6204 33.8102C74.6204 33.8102 74.6284 33.8102 74.6364 33.8102C75.0023 33.8582 75.615 34.0262 75.8139 34.6342C76.148 35.6501 75.3126 36.13 74.9387 36.298L74.9466 36.274Z" fill="#4B260C"/>
<path d="M44.5774 27.2668C44.4501 27.2428 44.3308 27.3308 44.3148 27.4588C44.291 27.5868 44.3785 27.7068 44.5058 27.7228C44.6331 27.7468 44.7524 27.6588 44.7684 27.5308C44.7922 27.4028 44.7047 27.2828 44.5774 27.2668Z" fill="#4B260C"/>
<path d="M43.7578 26.3789C43.6305 26.3549 43.5112 26.4429 43.4953 26.5709C43.4714 26.6989 43.5589 26.8189 43.6862 26.8348C43.8135 26.8588 43.9329 26.7709 43.9488 26.6429C43.9726 26.5149 43.8851 26.3949 43.7578 26.3789Z" fill="#4B260C"/>
<path d="M42.7156 27.0828C42.5883 27.0588 42.4689 27.1468 42.453 27.2748C42.4292 27.4028 42.5167 27.5228 42.644 27.5388C42.7713 27.5628 42.8906 27.4748 42.9065 27.3468C42.9304 27.2188 42.8429 27.0988 42.7156 27.0828Z" fill="#4B260C"/>
<path d="M33.9795 25.275C33.8602 25.227 33.7249 25.291 33.6851 25.411C33.6374 25.5309 33.701 25.6669 33.8204 25.7069C33.9397 25.7549 34.075 25.6909 34.1148 25.5709C34.1625 25.451 34.0989 25.315 33.9795 25.275Z" fill="#4B260C"/>
<path d="M33.3589 24.2511C33.2396 24.2031 33.1043 24.2671 33.0645 24.3871C33.0168 24.5071 33.0804 24.643 33.1998 24.683C33.3191 24.731 33.4544 24.667 33.4942 24.547C33.5419 24.4271 33.4783 24.2911 33.3589 24.2511Z" fill="#4B260C"/>
<path d="M32.1894 24.731C32.07 24.683 31.9348 24.747 31.895 24.867C31.8472 24.987 31.9109 25.123 32.0302 25.163C32.1496 25.211 32.2848 25.147 32.3246 25.027C32.3724 24.907 32.3087 24.771 32.1894 24.731Z" fill="#4B260C"/>
<path d="M39.8831 27.2588C39.7797 27.1788 39.6285 27.1948 39.549 27.2908C39.3103 27.5628 38.9682 27.6348 38.7136 27.6508C38.3555 27.6748 38.0293 27.5868 37.8543 27.4748C37.8543 27.3948 37.8543 27.3148 37.8304 27.2428C37.8304 27.2348 37.8304 27.2268 37.8225 27.2108C37.7827 26.9868 37.7111 26.7628 37.6076 26.5549C37.8543 26.7148 38.1805 26.8268 38.5226 26.8508C38.9284 26.8828 39.3501 26.7868 39.6604 26.4909C39.7479 26.4109 39.7558 26.2669 39.6763 26.1709C39.5967 26.0829 39.4535 26.0749 39.358 26.1549C38.9125 26.5709 38.0771 26.3949 37.727 26.0829C37.5281 25.9069 37.6076 25.8029 37.6395 25.7629C37.9418 25.363 38.8647 25.8429 39.1591 26.0429C39.2625 26.1149 39.3978 26.0829 39.4694 25.9789C39.541 25.8749 39.5092 25.7389 39.4058 25.6669C39.3421 25.6269 37.8941 24.667 37.2814 25.491C37.1621 25.6509 37.1223 25.8269 37.1621 26.0029C37.0268 25.9069 36.8836 25.8349 36.7165 25.8189C35.6026 25.6909 34.8945 26.6269 34.6001 28.5947C34.441 29.6666 34.7513 30.4665 35.4356 30.7385C35.9209 30.9305 36.4937 30.7945 36.8995 30.3945C38.0054 30.6905 38.4351 31.4424 38.459 31.4824C38.4908 31.5464 38.5544 31.5864 38.6181 31.5944C38.6738 31.6024 38.7295 31.5944 38.7772 31.5784C38.8966 31.5224 38.9363 31.3864 38.8806 31.2745C38.8568 31.2345 38.3794 30.3865 37.178 30.0106C37.2973 29.7466 37.2814 29.5306 37.2735 29.5146C37.2575 29.3946 37.1462 29.3066 37.0189 29.3146C36.8916 29.3226 36.7961 29.4346 36.804 29.5546C36.804 29.5626 36.82 29.7946 36.5972 30.0346C36.3267 30.3305 35.9448 30.4505 35.6265 30.3225C35.1571 30.1306 34.9502 29.5066 35.0775 28.6587C35.3242 26.9788 35.8652 26.1789 36.6688 26.2669C37.0666 26.3069 37.3928 27.0348 37.3689 27.5708C37.361 27.7628 37.3132 27.9147 37.3132 27.9147C37.2814 28.0347 37.353 28.1547 37.4803 28.1867C37.4803 28.1867 37.4803 28.1867 37.4883 28.1867C37.6156 28.2107 37.7349 28.1467 37.7668 28.0267C37.7668 28.0267 37.7747 27.9867 37.7906 27.9387C38.0611 28.0507 38.4033 28.1067 38.7374 28.0827C39.2228 28.0507 39.6365 27.8667 39.907 27.5628C39.9945 27.4668 39.9786 27.3228 39.8752 27.2508L39.8831 27.2588Z" fill="#4B260C"/>
<path d="M36.3584 27.1068C36.0959 27.0588 35.7697 27.6188 35.6265 28.3547C35.4832 29.0906 35.5787 29.7226 35.8413 29.7706C36.1038 29.8186 36.43 29.2586 36.5733 28.5227C36.7165 27.7868 36.621 27.1548 36.3584 27.1068Z" fill="#4B260C"/>
<path d="M42.3575 17.3637C42.4053 17.3557 43.4873 17.0917 43.8056 18.1316C43.8374 18.2276 43.9249 18.2916 44.0204 18.2916C44.1159 18.2916 44.0682 18.2916 44.0841 18.2836C44.2034 18.2436 44.2671 18.1236 44.2273 18.0036C43.8772 16.8517 42.7792 16.8037 42.2462 16.9317C42.1268 16.9637 42.0552 17.0837 42.087 17.2037C42.1189 17.3237 42.2382 17.3957 42.3575 17.3637Z" fill="#4B260C"/>
<path d="M45.2297 25.8829C45.19 25.8589 44.3227 25.355 43.368 25.419C43.726 23.8991 44.4739 20.1314 43.5271 18.5956C43.3043 18.2436 43.0099 18.0196 42.636 17.9396C42.2859 17.8676 41.9438 17.9636 41.6574 18.2196C40.3605 19.3955 40.1536 23.8511 40.257 25.523C40.2173 25.523 40.1695 25.515 40.1297 25.507C40.0104 25.491 39.891 25.5709 39.8751 25.6909C39.8592 25.7949 39.9149 25.8989 40.0104 25.9309C40.0263 25.9309 40.0422 25.9389 40.0581 25.9469C40.997 26.0909 41.9756 26.0749 43.2168 25.8749C44.0999 25.7309 44.9911 26.2509 44.999 26.2589C45.1024 26.3229 45.2377 26.2829 45.3013 26.1789C45.365 26.0749 45.3252 25.9389 45.2218 25.8749L45.2297 25.8829ZM41.9597 18.5556C42.1427 18.3876 42.3336 18.3316 42.5485 18.3796C42.8031 18.4356 42.994 18.5796 43.1531 18.8355C44.0602 20.2914 43.177 24.3231 42.9065 25.451C42.7951 25.467 42.6917 25.483 42.5803 25.499C42.8349 24.451 43.7101 20.3634 42.1904 20.0354C41.8085 19.9554 41.5062 20.2114 41.2755 20.6674C41.4823 20.7474 41.6176 20.9634 41.5858 21.1953C41.5539 21.4673 41.3073 21.6593 41.0368 21.6273C41.0049 21.6273 40.9811 21.6193 40.9492 21.6113C40.9015 21.8033 40.8617 22.0033 40.8219 22.2112C41.0049 20.6354 41.363 19.0995 41.9597 18.5556Z" fill="#4B260C"/>
<path d="M36.0879 16.7797C36.1754 16.8197 36.2789 16.7957 36.3425 16.7157C37.0347 15.8838 37.9338 16.5397 37.9736 16.5637C38.0691 16.6357 38.2123 16.6197 38.2839 16.5157C38.3555 16.4197 38.3396 16.2758 38.2361 16.2038C37.7985 15.8758 36.7642 15.4998 36.0004 16.4277C35.9208 16.5237 35.9368 16.6677 36.0322 16.7397C36.0481 16.7557 36.072 16.7637 36.0879 16.7717V16.7797Z" fill="#4B260C"/>
<path d="M36.9553 25.331C36.9712 25.331 36.9871 25.331 37.003 25.331C37.1064 25.331 37.1939 25.259 37.2178 25.155C37.2417 25.035 37.1701 24.915 37.0507 24.891C37.735 23.3631 39.1114 19.1155 38.3078 17.5477C38.1328 17.2037 37.8464 16.9957 37.4963 16.9397C37.1223 16.8837 36.7643 16.9797 36.4301 17.2357C35.006 18.3236 34.3854 22.1073 34.1865 23.6671C33.2953 23.1872 32.2212 23.3471 32.1735 23.3551C32.0542 23.3711 31.9666 23.4911 31.9905 23.6111C32.0064 23.7311 32.1258 23.8191 32.2451 23.7951C32.2531 23.7951 33.2794 23.6431 34.0432 24.0911C35.1253 24.731 36.0244 25.115 36.9553 25.323L36.9553 25.331ZM36.6927 17.5957C36.9234 17.4117 37.1621 17.3477 37.4167 17.3877C37.6315 17.4197 37.7907 17.5397 37.9021 17.7636C38.5704 19.0675 37.3769 23.1232 36.6131 24.779C36.4699 24.739 36.3028 24.675 36.1198 24.603C36.7166 23.2752 37.8941 19.4035 36.5495 19.1955C36.2153 19.1475 35.9289 19.3075 35.6822 19.6035C35.8732 19.6915 36.0005 19.8994 35.9766 20.1234C35.9448 20.3954 35.6982 20.5874 35.4276 20.5554C35.364 20.5554 35.3083 20.5314 35.2526 20.4994C35.5868 19.2755 36.0562 18.0916 36.7007 17.5956L36.6927 17.5957Z" fill="#4B260C"/>
</g>
<defs>
<clipPath id="clip0_5_146">
<rect width="76.5915" height="69" fill="white" transform="matrix(-1 0 0 1 76.5916 0)"/>
</clipPath>
</defs>
</svg>
