<svg width="119" height="134" viewBox="0 0 119 134" fill="none" xmlns="http://www.w3.org/2000/svg">
<path d="M90.3884 133.983C89.8399 133.983 89.3686 133.594 89.2653 133.055C87.4595 123.645 85.8048 117.87 82.2381 114.303C78.6713 110.736 72.8956 109.081 63.4857 107.276C62.947 107.172 62.5575 106.701 62.5575 106.152C62.5575 105.604 62.947 105.132 63.4857 105.029C72.8956 103.223 78.6712 101.569 82.2381 98.0019C85.8049 94.435 87.4595 88.6596 89.2653 79.2496C89.3686 78.7109 89.8399 78.3214 90.3884 78.3214C90.937 78.3214 91.4083 78.7109 91.5116 79.2496C93.3174 88.6595 94.9721 94.435 98.5389 98.0019C102.106 101.569 107.881 103.223 117.291 105.029C117.83 105.132 118.219 105.604 118.219 106.152C118.219 106.701 117.83 107.172 117.291 107.276C107.881 109.081 102.106 110.736 98.5389 114.303C94.972 117.869 93.3174 123.645 91.5116 133.055C91.4083 133.594 90.937 133.983 90.3884 133.983Z" fill="#110804"/>
<path d="M88.8309 132.426C88.2823 132.426 87.811 132.036 87.7077 131.498C85.902 122.088 84.2473 116.312 80.6805 112.745C77.1138 109.178 71.3381 107.524 61.9281 105.718C61.3894 105.615 61 105.143 61 104.595C61 104.046 61.3894 103.575 61.9281 103.472C71.3381 101.666 77.1137 100.011 80.6805 96.4444C84.2474 92.8774 85.902 87.1021 87.7077 77.692C87.811 77.1533 88.2823 76.7639 88.8309 76.7639C89.3794 76.7639 89.8507 77.1533 89.954 77.692C91.7599 87.1019 93.4146 92.8774 96.9813 96.4444C100.548 100.011 106.324 101.666 115.734 103.472C116.272 103.575 116.662 104.046 116.662 104.595C116.662 105.143 116.272 105.615 115.734 105.718C106.324 107.524 100.548 109.178 96.9813 112.745C93.4145 116.312 91.7599 122.088 89.954 131.498C89.8507 132.036 89.3794 132.426 88.8309 132.426Z" fill="#110804"/>
<path d="M115.518 104.595C95.7125 108.395 92.6315 111.476 88.8309 131.282C85.0303 111.476 81.9493 108.395 62.1437 104.595C81.9493 100.794 85.0303 97.713 88.8309 77.9074C92.6315 97.713 95.7125 100.794 115.518 104.595Z" fill="#FFC764"/>
<path d="M21.128 27.7716C21.9641 26.3426 23.213 25.3831 24.596 24.7196C25.0605 24.4951 25.5456 24.3011 26.0307 24.148C25.8036 24.0051 25.5766 23.852 25.3392 23.6887C18.4032 18.7688 23.0272 7.44891 31.2327 6.63233C32.8945 6.46901 34.422 6.82627 35.7845 7.52036C36.2076 7.73472 36.5999 7.96948 36.9817 8.22467C37.601 0.803978 48.5211 -1.84991 54.105 3.51911C56.3447 5.67285 56.8298 8.63296 56.5718 11.4808C56.7989 11.2971 57.0363 11.1133 57.2943 10.9398C64.2509 6.04031 73.3132 14.0836 71.445 22.0249C70.5883 25.6383 67.4712 27.547 64.3129 28.5678C65.3966 28.8536 66.5217 29.3027 67.6777 29.9457C75.3052 34.2226 71.6617 46.0732 63.3736 47.7983C59.4102 48.6148 56.1177 46.308 53.7644 43.6847C53.9398 45.2873 53.816 47.0531 53.1761 48.9313C50.348 57.1787 37.3223 55.3312 34.0917 47.4308C33.2247 45.2975 33.4105 43.2254 34.1433 41.3371C33.3279 41.8168 32.3887 42.2353 31.3153 42.5721C23.1613 45.0627 17.3401 34.2838 21.128 27.7818L21.128 27.7716Z" fill="#FA919F"/>
<path d="M35.8257 25.2708C41.7915 30.8848 39.2008 34.5084 38.4061 36.9275C40.7903 39.3466 44.1964 40.7552 47.8708 40.4898C54.4869 40.0203 59.4618 34.3349 58.987 27.792C58.5122 21.2491 52.7632 16.3292 46.1472 16.7988C44.3822 16.9212 42.7308 17.4214 41.2651 18.2074C40.1298 23.1375 38.5506 23.9847 35.8154 25.2606L35.8257 25.2708Z" fill="#EFC04E"/>
<path d="M0.433558 42.2557C0.877377 40.9287 2.6217 40.99 2.6217 40.99C2.50817 40.5204 3.04488 38.6627 5.88327 39.1833C8.72166 39.6936 9.85702 39.4691 11.4981 39.2037C13.1392 38.9485 14.6978 39.3874 15.1829 39.6732C15.7918 39.2956 17.6187 38.1626 19.394 40.0203C21.2209 41.9188 20.9629 44.144 20.3023 45.032C19.7656 45.7466 18.5786 46.1651 17.6703 46.2467C17.6703 46.2467 17.5465 47.7268 16.184 48.7067C14.8216 49.6866 14.3572 50.2071 13.872 51.7893C13.3869 53.3714 12.489 54.0859 11.1266 53.9532C9.7538 53.8205 8.18494 51.0135 10.8582 48.3698C9.87766 48.0738 7.6792 48.084 5.75941 48.4617C3.83963 48.8394 1.76502 48.2269 1.31088 46.9408C0.867059 45.6547 1.83727 44.7667 1.83727 44.7667C0.908341 44.4196 -0.0102683 43.5826 0.433558 42.2455V42.2557Z" fill="white"/>
<path d="M47.3961 72.6224C46.8181 71.6118 46.0027 68.4578 50.8434 68.6415C56.3035 68.8559 56.964 69.9991 57.0776 70.4992C57.3975 71.9691 56.6338 72.8367 56.6338 72.8367C56.6338 72.8367 62.4757 70.1114 66.7281 73.0817C67.6364 73.7145 68.3486 74.5719 68.7718 75.5416C69.1743 76.4603 69.3291 77.481 69.164 78.5017C69.6491 79.5327 70.5058 82.2376 67.1203 83.8299C62.5892 85.9633 53.9708 85.2488 51.0396 83.1359C49.2746 83.0746 46.333 82.554 45.5589 80.778C45.0428 79.5735 45.3731 78.267 45.6518 77.5321C45.4557 75.3885 47.3961 72.602 47.3961 72.602L47.3961 72.6224Z" fill="white"/>
<path d="M22.6143 50.6461C23.8735 50.2684 25.1637 50.7379 25.8655 51.0748C28.0434 51.1156 30.634 53.3204 30.634 53.3204C31.7075 52.861 34.969 52.3915 34.2672 57.1379C33.4724 62.4865 32.2545 63.0173 31.7281 63.0683C30.2212 63.2316 29.4264 62.3844 29.4264 62.3844C29.4264 62.3844 31.5423 68.4169 28.1053 72.2855C27.3725 73.1123 26.4332 73.7145 25.4114 74.0309C24.4412 74.3371 23.3987 74.378 22.3872 74.1024C21.3035 74.4698 18.4857 75.021 17.2472 71.5301C15.5854 66.845 17.2265 58.4546 19.6624 55.7905C19.9101 54.0655 20.7461 51.2177 22.6246 50.6563L22.6143 50.6461Z" fill="white"/>
<path d="M78.928 27.0265C78.928 27.0265 78.7215 25.2913 79.5266 23.7806C80.2904 22.3618 79.7743 21.4636 79.155 20.8613C78.7628 20.4734 77.7617 19.1567 78.6493 18.136C79.5369 17.1153 81.1884 16.9111 82.2411 17.6358C83.2939 18.3605 83.8926 20.5755 83.7894 22.2087C85.9156 22.3516 89.621 21.5146 92.2736 21.4125C94.6681 21.3207 95.6177 22.0658 95.8138 22.6476C96.3299 22.6884 98.5696 22.8007 98.7038 24.3318C98.8277 25.7098 96.9595 26.261 96.9595 26.261C97.3001 26.5059 97.7439 27.2715 97.0317 28.1697C96.4125 28.9455 93.9766 29.3844 91.355 30.6399C89.0223 31.7525 86.3078 32.9467 83.5933 32.3037C83.3043 33.4061 82.5508 33.8348 81.1368 33.2836C79.9188 32.8038 78.0403 30.7624 77.7204 29.3844C77.4107 28.0064 78.0713 27.0163 78.928 27.0367V27.0265Z" fill="white"/>
<path d="M43.8145 21.3513C41.0484 21.9331 42.8237 29.5069 43.1746 30.9155C43.2365 30.9155 43.2881 30.9257 43.3501 30.9359C44.7538 31.1503 45.9407 31.1401 46.5187 31.0788C46.7561 28.8026 46.3536 20.8205 43.8145 21.3513Z" fill="white"/>
<path d="M50.4719 20.0753C53.269 19.6568 54.3011 27.3633 54.4766 28.8025C54.425 28.8332 54.3734 28.8536 54.3218 28.8842C53.0832 29.5783 51.9685 29.9764 51.4111 30.1193C50.379 28.0676 47.9018 20.4632 50.4822 20.0753H50.4719Z" fill="white"/>
<path d="M0.154872 42.1639C0.547085 41.0002 1.75469 40.7552 2.32237 40.7144C2.36366 40.3674 2.53912 39.9183 2.89005 39.5712C3.34419 39.1017 4.24215 38.6015 5.93487 38.9077C8.57715 39.3875 9.68154 39.2139 11.2091 38.969L11.4568 38.9281C13.0876 38.673 14.5533 39.0608 15.1725 39.3568C16.8653 38.3667 18.3515 38.5301 19.6108 39.8366C19.7965 40.0305 19.9617 40.2245 20.1062 40.4184C20.9009 40.2857 21.675 40.1224 22.4182 39.9591C22.3769 39.908 22.3356 39.8672 22.2943 39.8162C19.4353 36.2743 18.847 31.1502 20.8906 27.6389C21.6647 26.312 22.8723 25.2402 24.4825 24.4746C24.7818 24.3317 25.0914 24.1991 25.4011 24.0868C25.3288 24.0357 25.2566 23.9847 25.1843 23.9337C22.1911 21.8105 21.0248 18.289 22.0466 14.5021C22.5936 12.4607 23.76 10.5417 25.3185 9.09228C27.0009 7.52036 29.0445 6.58129 31.2224 6.35673C32.8222 6.19342 34.4117 6.49964 35.9393 7.27539C36.2282 7.41829 36.5069 7.5714 36.7753 7.74492C37.1675 5.0502 38.9428 2.78419 41.7399 1.48786C45.982 -0.482139 51.1633 0.283406 54.332 3.33538C56.2002 5.13186 57.0775 7.7143 56.9227 10.8888C56.9949 10.8377 57.0672 10.7765 57.1498 10.7254C60.1017 8.64316 63.7761 8.67379 66.9758 10.7867C69.0917 12.1851 70.6295 14.2572 71.414 16.5232C71.5069 16.8396 72.0023 18.5544 71.9817 20.3407C71.961 20.7898 71.9094 21.2389 71.8268 21.6881C71.7855 21.9637 71.703 22.3005 71.6204 22.5251C70.8257 25.2096 68.6375 27.2714 65.2418 28.5473C65.4069 28.5984 65.5617 28.6596 65.7269 28.7209C66.0365 28.7923 66.6352 29.0679 67.2854 29.415C67.4609 29.5068 67.6467 29.5987 67.8221 29.7008C68.1834 29.9049 68.524 30.1295 68.8439 30.3744C69.2774 30.6807 69.6387 30.9869 69.8245 31.2421C70.2889 31.7218 70.6812 32.2424 71.0114 32.8038C71.063 32.8956 71.1147 32.9977 71.1663 33.0998C71.4966 33.0896 71.8372 33.059 72.1674 32.9977C74.3762 32.6507 76.3167 31.5585 77.8133 30.3949C77.6378 30.058 77.4933 29.7314 77.4314 29.4252C77.2353 28.5678 77.3694 27.7818 77.8029 27.2612C78.0197 26.9958 78.2984 26.8223 78.608 26.7611C78.5874 26.1793 78.608 24.8523 79.2583 23.6479C79.9808 22.3107 79.4234 21.535 78.9383 21.0654C78.3293 20.4734 77.4417 19.0648 78.4119 17.9522C79.3821 16.8396 81.209 16.5844 82.396 17.401C83.5004 18.1665 84.1093 20.2795 84.0784 21.9432C85.2344 21.9739 86.7723 21.7697 88.3927 21.5452C89.7139 21.3614 91.0866 21.1777 92.2529 21.1267C94.9159 21.0246 95.7416 21.9024 95.9996 22.3719C96.0306 22.3719 96.0719 22.3719 96.1028 22.3719C96.1028 22.3719 96.1235 22.3719 96.1338 22.3719C96.1441 22.3719 96.1544 22.3719 96.1647 22.3719C98.3632 22.6067 98.9206 23.5356 98.9928 24.3011C99.096 25.4648 98.0639 26.0976 97.4549 26.363C97.5685 26.5263 97.651 26.7305 97.682 26.9754C97.7233 27.2919 97.682 27.7818 97.2485 28.333C97.0524 28.578 96.7427 28.7719 96.3299 28.9658C95.8757 29.1802 95.2874 29.3843 94.6062 29.6293C93.6566 29.9662 92.5832 30.3438 91.4685 30.8848C89.0533 32.0382 86.4936 33.11 83.8926 32.6507C83.8926 32.6507 83.8822 32.6507 83.8719 32.6507C83.841 32.6507 83.81 32.6507 83.779 32.6303C83.6036 33.11 83.3352 33.4468 82.9636 33.6306C82.4682 33.8755 81.818 33.8449 81.0232 33.5387C80.7755 33.4366 80.4968 33.2835 80.2181 33.0794C78.3087 34.5798 75.7696 36.0395 72.7661 36.5192C72.5493 36.5498 72.3429 36.5805 72.1261 36.6009C72.1261 36.6009 72.1261 36.6111 72.1261 36.6213C72.1261 36.7744 72.1365 36.9377 72.1365 37.0908C72.1365 37.1215 72.1365 37.1623 72.1365 37.1929C72.1365 37.346 72.1365 37.4889 72.1261 37.642C72.1261 37.6522 72.1261 37.6624 72.1261 37.6726C72.1261 37.836 72.1055 37.9891 72.0849 38.1524C72.0849 38.1932 72.0849 38.2341 72.0745 38.2749C72.0539 38.4382 72.0333 38.6015 72.0126 38.7546C71.992 38.8975 71.961 39.0302 71.9404 39.1731C71.9404 39.2139 71.9197 39.2548 71.9094 39.2956C71.8888 39.3875 71.8681 39.4895 71.8475 39.5814C71.8371 39.6324 71.8165 39.6835 71.8062 39.7345C71.7855 39.8162 71.7649 39.8978 71.7443 39.9795C71.7339 40.0305 71.7133 40.0918 71.6926 40.1428C71.672 40.2245 71.6514 40.2959 71.6204 40.3776C71.5998 40.4388 71.5791 40.4899 71.5688 40.5511C71.5481 40.6226 71.5172 40.7042 71.4965 40.7757C71.4759 40.8369 71.4553 40.8879 71.4346 40.9492C71.4036 41.0206 71.383 41.0921 71.352 41.1635C71.3314 41.2248 71.3004 41.2758 71.2798 41.3371C71.2488 41.4085 71.2179 41.48 71.1869 41.5412C71.1662 41.6025 71.1353 41.6535 71.1043 41.7147C71.0734 41.7862 71.0424 41.8474 71.0114 41.9189C70.9805 41.9801 70.9598 42.0312 70.9289 42.0924C70.8979 42.1537 70.8669 42.2251 70.8256 42.2863C70.7947 42.3476 70.7637 42.3986 70.7328 42.4599C70.7018 42.5211 70.6605 42.5824 70.6295 42.6538C70.5986 42.715 70.5676 42.7661 70.5367 42.8171C70.4954 42.8784 70.4644 42.9396 70.4231 43.0009C70.3922 43.0519 70.3509 43.1131 70.3199 43.1642C70.2786 43.2254 70.2476 43.2867 70.2064 43.3377C70.1651 43.3887 70.1341 43.45 70.0928 43.501C70.0515 43.5623 70.0103 43.6133 69.969 43.6643C69.9277 43.7154 69.8864 43.7766 69.8554 43.8276C69.8141 43.8787 69.7832 43.9297 69.7419 43.9706C69.649 44.093 69.5458 44.2155 69.4426 44.338C69.4116 44.3686 69.3806 44.4095 69.36 44.4401C69.3084 44.5013 69.2568 44.5626 69.1949 44.6238C69.1639 44.6646 69.1226 44.7055 69.0916 44.7463C69.04 44.8075 68.9781 44.8586 68.9265 44.9198C68.8852 44.9607 68.8542 45.0015 68.813 45.0423C68.7614 45.1036 68.6994 45.1546 68.6478 45.2056C68.6065 45.2465 68.5756 45.2771 68.5343 45.3179C68.4724 45.3689 68.4208 45.4302 68.3588 45.4812C68.3175 45.5221 68.2763 45.5527 68.235 45.5935C68.173 45.6445 68.1111 45.6956 68.0492 45.7466C68.0079 45.7772 67.9666 45.8181 67.9253 45.8487C67.8634 45.8997 67.8015 45.9508 67.7395 46.0018C67.6982 46.0324 67.657 46.063 67.6157 46.0937C67.5537 46.1447 67.4815 46.1957 67.4196 46.2366C67.3783 46.2672 67.337 46.2978 67.2957 46.3284C67.2235 46.3795 67.1615 46.4203 67.0893 46.4713C67.048 46.502 67.0067 46.5224 66.9654 46.553C66.8932 46.604 66.8209 46.6449 66.7487 46.6959C66.7074 46.7163 66.6764 46.7469 66.6351 46.7673C66.5629 46.8082 66.4803 46.8592 66.4081 46.9C66.3771 46.9205 66.3358 46.9409 66.3049 46.9613C66.2223 47.0021 66.1397 47.0531 66.0675 47.094C66.0365 47.1144 66.0055 47.1246 65.9746 47.1348C65.8817 47.1756 65.7991 47.2267 65.7062 47.2675C65.6856 47.2675 65.6752 47.2777 65.6546 47.2879C65.2108 47.4921 64.7566 47.6758 64.2922 47.8187C64.2922 47.8187 64.2715 47.8187 64.2612 47.8187C63.9825 47.9004 63.6935 47.9718 63.4149 48.033C63.0536 48.1045 62.6924 48.1555 62.3311 48.1862C59.9262 48.3597 57.511 47.441 55.2403 45.5016C56.324 50.1766 56.933 57.8116 54.3114 68.6722C56.1692 69.0192 57.1704 69.5908 57.3459 70.4176C57.511 71.1934 57.4078 71.816 57.253 72.2549C58.9973 71.6119 63.4045 70.4074 66.8829 72.8367C67.8324 73.5002 68.5756 74.3882 69.0297 75.4192C69.4632 76.3991 69.6077 77.4402 69.4529 78.4609C69.7419 79.104 70.1135 80.2574 69.7729 81.4619C69.4529 82.5643 68.5962 83.4523 67.2441 84.0851C65.4275 84.9426 62.8472 85.4019 59.9985 85.4019C57.1497 85.4019 58.9766 85.3917 58.4606 85.3611C55.4054 85.1875 52.7425 84.5343 51.1943 83.585C51.1736 83.5748 51.1633 83.5646 51.1427 83.5544C51.0704 83.5135 50.9982 83.4625 50.9363 83.4217C49.9764 83.3808 46.24 83.0848 45.2904 80.8903C44.7434 79.6246 45.0634 78.267 45.3524 77.4912C45.2182 75.5417 46.6529 73.2042 47.0554 72.5918C47.0244 72.5305 46.9935 72.4693 46.9625 72.3978C46.9625 72.3876 46.9419 72.3774 46.9419 72.357C46.9315 72.3264 46.9212 72.3059 46.9109 72.2753C46.6322 71.571 46.4671 70.5401 46.9935 69.6827C47.5715 68.7436 48.81 68.2945 50.6782 68.3455C52.5361 60.8432 52.7425 55.0659 52.4225 51.0136C50.9982 53.0652 48.6552 54.3309 45.8065 54.5351C45.6517 54.5453 45.4865 54.5555 45.3214 54.5555C45.2595 54.5555 45.1872 54.5555 45.1253 54.5555C44.3099 55.862 43.319 57.1686 42.1114 58.4241C40.4187 60.1695 39.1595 60.7513 37.7145 60.7513C36.2695 60.7513 35.836 60.5268 34.6387 60.2103C34.422 60.1593 34.2052 60.0981 33.9678 60.0368C33.4002 62.1497 32.6673 63.2317 31.7487 63.3236C30.954 63.4052 30.3347 63.2317 29.9115 63.0275C30.3657 64.8138 31.1191 69.2744 28.3014 72.4386C27.5376 73.2961 26.5571 73.9289 25.4733 74.2657C24.4412 74.5822 23.3781 74.6128 22.3769 74.3576C21.6957 74.572 20.4984 74.8169 19.3217 74.3576C18.2483 73.9289 17.4432 72.9898 16.9478 71.5914C16.2872 69.7133 16.0911 67.1309 16.4008 64.3341C16.4524 63.8339 16.5246 63.3338 16.6072 62.8234C17.1026 59.8429 18.0522 57.2911 19.1669 55.8723C19.1772 55.8621 19.1876 55.8416 19.2082 55.8314C19.2598 55.7702 19.3114 55.6987 19.363 55.6477C19.5075 54.7086 20.2094 51.0646 22.5111 50.3705C23.8425 49.9724 25.1637 50.4318 25.9275 50.789C27.9092 50.8605 30.1076 52.5243 30.6753 52.9836C30.7372 52.9632 30.8095 52.9428 30.8817 52.9121C30.8921 52.9121 30.9127 52.9019 30.923 52.8917C30.954 52.8815 30.9849 52.8713 31.0056 52.8713C31.7487 52.6774 32.8015 52.6161 33.5963 53.2286C34.4013 53.8308 34.7316 54.9434 34.6078 56.5255C34.9484 56.6072 35.258 56.6888 35.5367 56.7603C36.6411 57.0461 37.4358 57.2502 37.8693 57.1788C38.1067 57.1379 38.5093 56.9644 39.4898 55.9539C40.1194 55.3108 40.6768 54.6372 41.1722 53.9635C40.2639 53.6777 39.3763 53.2898 38.5505 52.8101C36.3314 51.5239 34.6903 49.6968 33.8027 47.5125C33.0699 45.7262 33.0079 43.8481 33.6066 41.9189C33.4827 41.9801 33.3485 42.0516 33.2144 42.1128C32.337 42.6232 29.8496 43.1744 28.7142 43.1948C27.8059 43.1744 26.9183 43.0009 26.0719 42.664C24.5341 43.1131 22.8413 43.5317 21.0248 43.8481C20.9422 44.3993 20.7667 44.8586 20.5293 45.175C19.9823 45.9202 18.8573 46.3489 17.9077 46.4816C17.8148 46.9715 17.4742 48.1045 16.3388 48.9211C15.0177 49.8704 14.5945 50.3399 14.1301 51.8608C13.6037 53.5756 12.5818 54.3718 11.0749 54.2289C10.9717 54.2289 10.8788 54.1983 10.7756 54.1676C10.146 53.9737 9.56799 53.3612 9.28931 52.5549C9.06223 51.9118 8.73195 50.3093 10.2802 48.5332C9.25834 48.3699 7.49338 48.4005 5.79034 48.7374C3.63316 49.1661 1.48631 48.4005 1.01152 47.0327C0.670918 46.0528 1.05281 45.2771 1.34181 44.8688C0.412883 44.3891 -0.309617 43.4806 0.134203 42.1537L0.154872 42.1639ZM98.4148 24.3522C98.3426 23.5662 97.5581 23.0967 96.0718 22.9538C93.7702 22.8517 90.7253 23.9643 89.8171 24.3113C90.0132 24.8115 90.2093 25.475 90.3228 26.2813C91.1176 25.9649 93.0683 25.2504 94.5133 25.2504C95.8035 25.2504 96.5879 25.6383 97.0008 25.9343C97.3827 25.7914 98.4871 25.3014 98.4148 24.3522ZM91.2208 30.3744C92.3665 29.8233 93.4502 29.4456 94.4101 29.0985C95.5248 28.7005 96.495 28.3636 96.7943 27.9859C97.0421 27.6695 97.1453 27.3633 97.104 27.0571C97.073 26.8734 96.9905 26.71 96.8976 26.5978C96.8769 26.5773 96.8253 26.5263 96.7427 26.4549L96.5776 26.3426C96.2267 26.118 95.5764 25.822 94.503 25.822C93.0786 25.822 91.0144 26.608 90.3847 26.8631C90.4157 27.2 90.426 27.547 90.4157 27.9247C90.4157 28.037 90.3435 28.1288 90.2506 28.1799C90.2093 28.2003 90.168 28.2105 90.1267 28.2105C89.9719 28.2105 89.8377 28.0778 89.8377 27.9247C89.879 25.1585 88.7643 23.505 88.754 23.4845C88.6611 23.3518 88.692 23.1783 88.8262 23.0865C88.9604 22.9946 89.1358 23.0252 89.2287 23.1579C89.2494 23.1783 89.3939 23.4029 89.5797 23.7908C90.4054 23.4641 92.9961 22.5149 95.2977 22.3924C94.8746 21.9841 93.9353 21.637 92.2839 21.6983C91.1485 21.7391 89.7861 21.933 88.4753 22.1066C86.8238 22.3311 85.2653 22.5455 84.0577 22.5149C84.0577 22.5149 84.0577 22.5149 84.0474 22.5149C83.9545 22.5149 83.8616 22.5149 83.7687 22.5046L83.4797 22.4842C83.0978 22.4434 82.8398 22.4026 82.8295 22.4026C82.6746 22.3822 82.5611 22.229 82.5817 22.0759C82.6024 21.9228 82.7572 21.8105 82.912 21.831C82.912 21.831 83.1494 21.8616 83.5107 21.9024C83.521 20.4224 82.974 18.4932 82.076 17.8705C81.1264 17.2173 79.6505 17.4214 78.866 18.3197C78.0094 19.2996 79.3408 20.6469 79.3511 20.6571C80.3007 21.5758 80.4452 22.668 79.7743 23.9132C79.1447 25.0871 79.1654 26.4446 79.1963 26.8631C79.2066 26.955 79.3408 27.7716 79.8053 28.3942C80.0117 26.4651 81.8592 25.7506 81.8799 25.7403C82.0244 25.6791 82.1999 25.7608 82.2515 25.9037C82.3134 26.0466 82.2308 26.2201 82.0863 26.2711C82.0657 26.2711 80.1356 27.0367 80.3936 29.1394C80.4865 29.6089 81.0335 31.4972 83.9855 32.0893C86.4213 32.5282 88.8985 31.487 91.2208 30.3744ZM81.2296 33.0079C81.8593 33.2529 82.3547 33.2937 82.6953 33.1202C82.9224 33.0079 83.0875 32.7936 83.2113 32.4772C80.8168 31.7729 79.9498 30.1295 79.8053 29.2006C79.1344 28.6903 78.8247 27.8328 78.7009 27.3225C78.5358 27.3633 78.3809 27.4654 78.2467 27.6185C77.9268 27.9962 77.8339 28.629 77.9887 29.2925C78.288 30.6194 80.1253 32.5588 81.2296 32.9875V33.0079ZM22.6969 50.9217C21.2828 51.3504 20.4158 53.351 20.0546 55.1679C20.4055 54.974 20.6842 54.9229 20.7048 54.9229C20.8596 54.8923 21.0145 54.9944 21.0351 55.1577C21.0661 55.3108 20.9629 55.4639 20.808 55.4946C20.808 55.4946 20.1578 55.617 19.6417 56.2601C17.402 59.0977 15.9363 66.9879 17.5155 71.4383C17.9593 72.6836 18.6405 73.5002 19.5591 73.8676C20.1991 74.1228 20.8493 74.133 21.4067 74.0514C20.3023 73.5308 19.0637 72.4795 18.5064 70.3768C17.9903 68.417 17.8561 66.4061 18.0729 64.4055C18.4032 61.3433 19.5798 58.3322 21.5305 55.6783C21.5409 55.6579 21.5615 55.6374 21.5718 55.617C22.2014 52.9836 23.1923 51.5545 24.7921 50.9829C24.1728 50.8094 23.4297 50.7175 22.6969 50.9319L22.6969 50.9217ZM33.266 53.6981C32.6054 53.1979 31.6765 53.2898 31.0779 53.4633C29.4058 54.1676 29.4987 56.0662 29.509 56.158C29.509 56.3111 29.3955 56.454 29.2406 56.4642C29.0858 56.4642 28.9413 56.352 28.931 56.1989C28.931 56.1989 28.9207 55.9947 28.9516 55.6987C29.0136 55.0761 29.2716 54.0247 30.1799 53.3306C29.3645 52.6978 26.8254 50.9115 25.0811 51.4729C23.7703 51.9016 22.893 53.0244 22.3046 55.0863C22.893 54.8107 23.471 54.8107 23.5019 54.8107C23.6567 54.8107 23.7909 54.9434 23.7909 55.0965C23.7909 55.2496 23.6567 55.3823 23.5019 55.3823C23.5019 55.3823 22.5317 55.3823 21.9847 56.0151C18.8676 60.2511 17.8045 65.416 19.0637 70.2134C19.6417 72.408 21.0351 73.3267 22.1085 73.7145C23.1304 74.082 24.2451 74.0922 25.3185 73.7554C26.299 73.4492 27.1867 72.8775 27.8782 72.0916C29.0445 70.785 29.54 69.2131 29.7051 67.7127C29.9322 65.6508 29.509 63.742 29.2819 62.9152C28.642 61.1596 27.0731 60.3736 27.0628 60.3634C26.9493 60.3124 26.8874 60.1899 26.908 60.0776C26.908 60.047 26.9183 60.0164 26.939 59.9858C27.0112 59.8428 27.1867 59.7816 27.3209 59.8531C27.3828 59.8837 28.7452 60.5676 29.5606 62.1089L29.6432 62.1905C29.6741 62.2211 30.376 62.9254 31.7075 62.7928C32.0481 62.7621 32.7706 62.364 33.4208 59.9347C33.0492 59.8428 32.657 59.751 32.2235 59.6591C31.2533 59.455 30.634 58.4955 30.8405 57.536C31.0469 56.5765 32.0171 55.9641 32.9873 56.1682C33.3692 56.2499 33.7201 56.3315 34.0607 56.4132C34.1536 55.1067 33.8853 54.1778 33.2763 53.7185L33.266 53.6981ZM35.6606 7.76534C34.2362 7.05083 32.7603 6.76503 31.2636 6.90793C27.2796 7.30601 23.7084 10.4805 22.5936 14.6348C21.6338 18.187 22.7278 21.4839 25.5146 23.4539C28.3117 25.4341 31.2327 26.1078 34.2052 25.4545C36.3418 24.985 37.7352 23.9541 37.8487 23.8622L38.1687 23.5662C38.5918 23.1783 38.9841 22.7496 39.3143 22.3005C36.0012 19.7181 28.0124 14.2572 27.9401 14.2061C27.806 14.1143 27.775 13.9407 27.8679 13.808C27.9608 13.6754 28.1362 13.6447 28.2704 13.7366C28.353 13.7876 36.3005 19.2281 39.655 21.831C40.8729 19.963 41.3786 17.6868 41.0483 15.3289C40.5839 12.0524 38.5712 9.22498 35.6709 7.76534L35.6606 7.76534ZM39.9543 31.9872C39.9749 32.3138 39.9543 32.6405 39.9233 32.9671C39.8201 33.7224 39.5208 35.2229 38.6847 36.8663C40.1917 38.377 42.1115 39.4793 44.2377 39.9999C44.9705 40.1836 45.8994 40.2755 46.4877 40.3163C46.9419 40.3368 47.4063 40.3368 47.8708 40.2959C54.5075 39.8264 59.4721 33.9368 58.636 27.3123C57.9032 21.4737 52.7528 17.0744 46.8077 17.1867C44.9086 17.2275 43.1333 17.7072 41.5747 18.5238C41.2032 20.6163 40.171 22.5047 38.5712 23.9745L38.2409 24.2807H38.2203C38.179 24.3318 37.4462 24.8932 36.2179 25.4035C38.1893 26.8223 39.4588 28.7923 39.8511 31.1094L39.913 31.436C39.9439 31.5789 39.9646 31.9362 39.9543 31.9668V31.9872ZM53.9088 3.72326C50.9053 0.834601 45.9923 0.120092 41.9566 1.98802C39.2008 3.26393 37.5597 5.43808 37.281 8.08177C39.6137 9.74555 41.1929 12.328 41.6057 15.2575C41.7296 16.1251 41.7399 16.9723 41.6573 17.7991C42.9475 17.1764 44.3718 16.7784 45.8788 16.6355C46.4671 12.2872 46.5497 5.76472 46.5497 5.69326C46.5497 5.54016 46.6838 5.40746 46.8387 5.40746C46.9935 5.40746 47.1277 5.54016 47.1277 5.69326C47.1277 6.00969 47.0451 12.2565 46.4671 16.5946C48.4075 16.513 50.2654 16.8804 51.9478 17.6052C52.5671 15.6556 53.8056 13.3385 56.2724 11.3277C56.4995 8.58192 56.0247 5.75451 53.8985 3.71305L53.9088 3.72326ZM71.1559 21.9535C72.0849 18.0339 70.2167 13.6243 66.6248 11.246C64.9424 10.1334 63.1155 9.63327 61.3609 9.75576C59.9985 9.84762 58.667 10.3274 57.4594 11.1746C54.5281 13.2466 53.1347 15.7883 52.4845 17.8603C54.2494 18.728 55.777 19.9937 56.9433 21.5554C60.8552 19.8814 65.923 16.8294 65.9849 16.7886C66.1191 16.7069 66.2945 16.7477 66.3771 16.8804C66.4597 17.0131 66.4184 17.1867 66.2842 17.2683C66.0468 17.4112 61.1854 20.3509 57.2839 22.0249C58.4296 23.7193 59.1521 25.7199 59.3173 27.8941C60.7416 27.741 62.4343 27.7716 64.2715 28.2411C67.337 27.2408 70.3509 25.3933 71.1663 21.933L71.1559 21.9535ZM63.3116 47.5125C63.3736 47.5023 63.4252 47.4818 63.4871 47.4716C63.611 47.441 63.7348 47.4104 63.8587 47.3798C63.9825 47.3492 64.1064 47.3083 64.2199 47.2675C64.3438 47.2267 64.4573 47.1858 64.5812 47.145C64.705 47.1042 64.8186 47.0531 64.9424 47.0123C65.056 46.9613 65.1798 46.9102 65.2934 46.8592C65.4069 46.8082 65.5204 46.7469 65.634 46.6959C65.7475 46.6346 65.861 46.5836 65.9746 46.5224C66.0881 46.4611 66.1913 46.3999 66.3049 46.3284C66.4081 46.2672 66.5216 46.1957 66.6248 46.1243C66.6248 46.1243 66.6248 46.1243 66.6351 46.1243C66.7384 46.0528 66.8416 45.9916 66.9448 45.9099C66.9448 45.9099 66.9551 45.9099 66.9654 45.8997C67.0686 45.8283 67.1615 45.7568 67.2648 45.6854C67.2648 45.6854 67.2751 45.6752 67.2854 45.6649C67.3783 45.5935 67.4712 45.5118 67.5641 45.4404C67.5641 45.4404 67.5847 45.4302 67.5847 45.42C67.6776 45.3485 67.7602 45.2669 67.8531 45.1852C67.8531 45.1852 67.8737 45.1648 67.884 45.1546C67.9666 45.0729 68.0595 45.0015 68.1421 44.9198C68.1524 44.9096 68.1627 44.8994 68.173 44.8892C68.2556 44.8075 68.3382 44.7361 68.4104 44.6544C68.4208 44.6442 68.4414 44.6238 68.4517 44.6136C68.524 44.5319 68.6065 44.4503 68.6788 44.3686C68.6994 44.3482 68.7098 44.338 68.7201 44.3176C68.7923 44.2359 68.8646 44.1543 68.9265 44.0726C68.9472 44.0522 68.9575 44.0318 68.9781 44.0114C69.04 43.9297 69.1123 43.8481 69.1742 43.7664C69.1949 43.746 69.2155 43.7154 69.2258 43.6949C69.2878 43.6133 69.3497 43.5316 69.4116 43.4602C69.4323 43.4296 69.4529 43.3989 69.4735 43.3785C69.5251 43.2969 69.5871 43.2254 69.6387 43.1438C69.6593 43.1131 69.68 43.0825 69.7006 43.0519C69.7522 42.9702 69.8038 42.8988 69.8554 42.8171C69.8761 42.7763 69.8967 42.7457 69.9174 42.7048C69.969 42.6334 70.0103 42.5517 70.0515 42.4701C70.0722 42.4292 70.0928 42.3884 70.1238 42.3476C70.1651 42.2761 70.2064 42.1945 70.2477 42.123C70.2683 42.0822 70.2889 42.0312 70.3199 41.9903C70.3612 41.9189 70.3922 41.8474 70.4334 41.7658C70.4541 41.7147 70.485 41.6637 70.5057 41.6127C70.5367 41.5412 70.5779 41.4698 70.6089 41.3983C70.6295 41.3473 70.6502 41.286 70.6812 41.235C70.7121 41.1635 70.7431 41.1023 70.7637 41.0308C70.7844 40.9696 70.805 40.9084 70.836 40.8573C70.8566 40.7961 70.8876 40.7246 70.9082 40.6634C70.9289 40.6021 70.9495 40.5307 70.9702 40.4694C70.9908 40.4082 71.0114 40.347 71.0321 40.2857C71.0527 40.2143 71.0734 40.1428 71.094 40.0714C71.1147 40.0101 71.125 39.9591 71.1456 39.8978C71.1663 39.8162 71.1869 39.7345 71.2076 39.6529C71.2179 39.6018 71.2282 39.561 71.2488 39.51C71.2695 39.4079 71.2901 39.3058 71.3108 39.2037C71.3108 39.1731 71.3211 39.1425 71.3314 39.1119C71.3624 38.9792 71.383 38.8465 71.4037 38.7036C71.5894 37.5298 71.5585 36.407 71.3314 35.3556C70.8566 33.1815 69.5355 31.3646 67.4918 30.2111C67.3267 30.1193 67.1719 30.0376 67.0171 29.956C66.9654 29.9355 66.9242 29.9049 66.8726 29.8845C66.7487 29.8233 66.6352 29.762 66.5113 29.711C66.47 29.6906 66.4184 29.6702 66.3771 29.6497C66.2223 29.5783 66.0675 29.5068 65.9127 29.4456C63.6729 28.5167 61.588 28.3228 59.854 28.4453C59.6579 28.4555 59.4721 28.4759 59.2966 28.4963C59.3482 30.7827 58.7599 32.9569 57.6762 34.8248C59.4824 36.2538 62.4653 38.3872 65.8714 39.7958C66.0159 39.857 66.0881 40.0203 66.0262 40.1734C65.9849 40.2755 65.8817 40.3368 65.7785 40.347C65.7372 40.347 65.6856 40.347 65.6443 40.3265C62.2176 38.9077 59.2037 36.7744 57.3665 35.3148C55.9731 37.4787 53.9089 39.1833 51.442 40.1428C52.1955 41.3473 53.2276 42.7865 54.4972 44.093C54.6107 44.2155 54.7242 44.3278 54.8481 44.4503C54.8378 44.4503 54.8275 44.4503 54.8171 44.4401C57.5317 47.094 60.3701 48.1351 63.2601 47.5329L63.3116 47.5125ZM45.8272 80.6861C46.4052 82.0335 48.5107 82.6663 50.3789 82.8296C50.1518 82.503 50.0693 82.2376 50.0589 82.2172C50.0177 82.0641 50.1002 81.911 50.2551 81.8599C50.4099 81.8191 50.5647 81.9008 50.6163 82.0539C50.6163 82.0539 50.8124 82.6765 51.5039 83.1154C54.6004 85.014 62.682 85.6162 66.9964 83.585C68.1937 83.0236 68.9472 82.258 69.2155 81.319C69.4013 80.6657 69.3394 80.0226 69.2052 79.4817C68.7923 80.6249 67.8737 81.9518 65.8198 82.7174C63.9103 83.4319 61.8976 83.7789 59.8643 83.7789C56.7472 83.7789 53.5992 82.9419 50.7195 81.3088C50.6989 81.2986 50.6782 81.2883 50.6576 81.2781C47.9431 80.9413 46.3948 80.1145 45.662 78.6038C45.5485 79.2367 45.5382 79.9716 45.8375 80.6657L45.8272 80.6861ZM47.4889 69.9991C47.0554 70.7034 47.2515 71.6016 47.4889 72.1732C48.3766 73.7452 50.2757 73.4492 50.3686 73.4287C50.5234 73.3981 50.6782 73.5104 50.6989 73.6635C50.7298 73.8166 50.6163 73.9697 50.4615 73.9901C50.4615 73.9901 50.2551 74.0208 49.9557 74.0208C49.3261 74.0208 48.2424 73.8881 47.4476 73.0613C46.9006 73.9289 45.373 76.6134 46.1265 78.2772C46.6942 79.5225 47.9224 80.2574 50.0486 80.6249C49.708 80.0737 49.6564 79.5123 49.6461 79.4714C49.6358 79.3183 49.7493 79.1754 49.9041 79.155C50.059 79.1346 50.2034 79.2571 50.2241 79.4102C50.2241 79.4102 50.3273 80.3595 51.0188 80.829C55.6119 83.4421 60.9171 83.932 65.603 82.1866C67.7499 81.3802 68.524 79.9104 68.7923 78.8182C69.0504 77.777 68.9472 76.6747 68.493 75.6539C68.0802 74.7251 67.4093 73.9085 66.5423 73.3062C65.1076 72.3059 63.4665 71.9793 61.9492 71.9793C60.432 71.9793 57.9755 72.6019 57.1704 72.9082C55.4777 73.7247 54.8481 75.3477 54.8378 75.3681C54.7965 75.4804 54.6829 75.5518 54.5694 75.5518C54.4559 75.5518 54.5075 75.5518 54.4662 75.5314C54.3114 75.4804 54.2391 75.3171 54.2907 75.164C54.3114 75.0925 54.8584 73.6839 56.3137 72.7244L56.3963 72.6326C56.4273 72.6019 57.0672 71.8364 56.7782 70.5401C56.7163 70.2338 56.2931 69.6214 54.1669 69.2335C54.0637 69.6724 53.9501 70.1012 53.8263 70.5503C53.6095 71.3464 52.8767 71.8772 52.082 71.8772C51.2872 71.8772 51.7723 71.8568 51.6175 71.816C50.6576 71.5608 50.0796 70.5911 50.3273 69.6316C50.3892 69.3866 50.4615 69.1315 50.5234 68.8865C48.9649 68.8661 47.9121 69.2335 47.4683 69.9583L47.4889 69.9991ZM34.0814 46.5326C34.0814 46.553 34.0917 46.5734 34.102 46.604C34.1743 46.8388 34.2568 47.0838 34.3497 47.3185C36.2076 51.8608 41.2754 54.1166 45.3214 54.0043C49.0474 53.892 51.8033 52.0139 52.8973 48.8292C53.465 47.1858 53.6611 45.4914 53.4753 43.797C53.3928 43.7052 53.3102 43.6133 53.2276 43.5112C52.2987 42.419 51.5246 41.2962 50.9259 40.3265C49.9661 40.643 48.9546 40.8471 47.9018 40.9186C47.5921 40.939 47.2825 40.9492 46.9728 40.9492C46.0439 40.9492 45.1047 40.8267 44.3409 40.6532C43.0404 44.6953 42.8443 47.9718 42.8443 48.0024C42.8443 48.1453 42.7204 48.2576 42.5759 48.2678C42.5656 48.2678 42.5553 48.2678 42.5346 48.2678C42.3798 48.2678 42.256 48.1249 42.2663 47.9616C42.2663 47.931 42.4727 44.6034 43.7835 40.5103C43.701 40.4899 43.6184 40.4694 43.5358 40.4388C41.5747 39.8672 39.8098 38.8159 38.3751 37.4175C37.5494 38.8465 36.2902 40.3368 34.4013 41.4902C33.7924 43.0723 33.586 44.7667 34.0917 46.5224L34.0814 46.5326ZM28.8897 42.6436C29.6948 42.5823 32.1616 42.1332 33.6376 41.286C38.0242 38.9077 39.0873 34.7534 39.3453 32.8854C39.3969 32.5384 39.3969 32.1913 39.366 31.8443C39.2731 30.9154 39.0357 30.0376 38.6641 29.221C34.8555 30.0784 26.0616 35.3352 25.9687 35.3862C25.9275 35.4066 25.8862 35.4271 25.8449 35.4271C25.7417 35.4271 25.6385 35.3862 25.5765 35.2944C25.494 35.1617 25.5352 34.9881 25.6694 34.9065C26.041 34.6819 34.4323 29.6702 38.3957 28.7005C37.7455 27.5062 36.7856 26.4855 35.5574 25.6689C35.1858 25.7914 34.7832 25.9139 34.3601 26.0057C33.8956 26.1078 33.3795 26.1895 32.8119 26.2303C30.9437 26.363 28.5698 26.0262 26.01 24.4542C25.5765 24.5971 25.1534 24.7707 24.7302 24.9646C23.2026 25.6995 22.1189 26.659 21.386 27.9043C19.4559 31.2217 20.0236 36.0701 22.7485 39.4385C24.4309 41.5208 26.588 42.6232 28.9 42.6334L28.8897 42.6436ZM1.83726 44.4605C2.68362 43.9501 3.87058 44.0114 5.1298 44.0726C5.67683 44.1032 6.23419 44.1339 6.77091 44.1134C8.57716 44.0522 9.45448 43.4704 9.4648 43.4602C9.59897 43.3683 9.77444 43.3989 9.86733 43.5316C9.96023 43.6643 9.92926 43.8378 9.79508 43.9297C9.75379 43.9603 8.78358 44.6238 6.78123 44.6953C6.21355 44.7157 5.64587 44.685 5.08851 44.6544C3.77769 44.583 2.53912 44.5217 1.87855 45.1444C1.6618 45.42 1.29023 46.0426 1.57923 46.8592C1.96112 47.9514 3.83962 48.5536 5.69748 48.1964C7.27665 47.8799 9.16547 47.8085 10.3524 47.982C11.1575 48.0637 11.9832 48.4107 12.0245 48.4311C12.169 48.4924 12.2413 48.6659 12.169 48.8088C12.1071 48.9517 11.9316 49.0231 11.7871 48.9619C11.7871 48.9619 11.4155 48.7986 10.9511 48.6863C9.34095 50.3399 9.62994 51.8301 9.83637 52.4017C10.0944 53.1061 10.6208 53.647 11.1369 53.6981C12.3651 53.8206 13.1392 53.1979 13.583 51.7383C14.0888 50.0847 14.6049 49.5131 15.9983 48.5026C16.9478 47.8187 17.2368 46.8694 17.3297 46.4509C17.2988 46.4509 17.2678 46.4305 17.2368 46.4203C16.1737 46.0834 15.5957 45.175 15.5648 45.1342C15.4822 45.0015 15.5235 44.8279 15.6577 44.7463C15.7918 44.6646 15.9673 44.7055 16.0602 44.8382C16.0602 44.8382 16.7104 45.8385 17.8045 45.961C18.6302 45.8589 19.6314 45.471 20.0752 44.879C20.2404 44.6544 20.3746 44.3482 20.4468 43.9909C19.941 44.0726 19.425 44.1543 18.8986 44.2155C18.816 44.2257 18.7438 44.2359 18.6612 44.2359C17.7736 44.2359 16.9891 43.5827 16.8756 42.6844C16.7414 41.7045 17.4433 40.8063 18.4238 40.6838C18.7644 40.643 19.105 40.5919 19.4456 40.5409C19.3631 40.4388 19.2805 40.347 19.1876 40.2449C17.5878 38.5811 15.9879 39.5406 15.3583 39.9285C14.7907 40.398 14.9145 41.6025 15.0074 42.0414C15.0384 42.1945 14.9455 42.3476 14.7907 42.3782C14.7391 42.3884 14.6875 42.3782 14.6462 42.3782C14.5533 42.3476 14.4707 42.2659 14.4501 42.1638C14.4397 42.0924 14.1301 40.6736 14.7184 39.806C14.0682 39.561 12.8193 39.316 11.5497 39.5202L11.302 39.561C9.78476 39.806 8.57716 39.9999 5.83166 39.4997C4.39698 39.2446 3.66416 39.6324 3.31323 39.9999C3.0552 40.2653 2.95198 40.5613 2.91069 40.7552C3.41644 40.7961 3.98412 40.9083 4.72726 41.0615C5.0369 41.1227 5.38784 41.1942 5.76972 41.2758C7.40051 41.5922 8.89711 41.3677 8.90744 41.3677C9.06226 41.3473 9.21708 41.4493 9.23772 41.6024C9.25837 41.7556 9.15515 41.9087 9.00033 41.9291C8.93841 41.9291 7.40051 42.1741 5.65619 41.827C5.2743 41.7556 4.92337 41.6841 4.61373 41.6127C3.55062 41.3881 2.84877 41.2452 2.26044 41.3166C2.26044 41.3166 2.25013 41.3166 2.2398 41.3166C1.76502 41.3779 0.970267 41.5922 0.712231 42.368C0.278731 43.6643 1.36248 44.2768 1.84759 44.4911L1.83726 44.4605Z" fill="#4B260C"/>
<path d="M41.2342 32.9671C41.3993 32.9365 41.5541 33.0487 41.5748 33.212C41.6058 33.3754 41.4922 33.5285 41.3271 33.5489C41.1619 33.5795 41.0071 33.4672 40.9865 33.3039C40.9555 33.1406 41.069 32.9875 41.2342 32.9671Z" fill="#4B260C"/>
<path d="M42.2973 31.834C42.4624 31.8034 42.6172 31.9157 42.6379 32.079C42.6688 32.2423 42.5553 32.3955 42.3902 32.4159C42.225 32.4465 42.0702 32.3342 42.0495 32.1709C42.0186 32.0076 42.1321 31.8545 42.2973 31.834Z" fill="#4B260C"/>
<path d="M43.6494 32.7324C43.8145 32.7018 43.9694 32.814 43.99 32.9774C44.021 33.1407 43.9074 33.2938 43.7423 33.3142C43.5772 33.3448 43.4223 33.2325 43.4017 33.0692C43.3707 32.9059 43.4843 32.7528 43.6494 32.7324Z" fill="#4B260C"/>
<path d="M54.9823 30.4255C55.1371 30.3642 55.3126 30.4459 55.3642 30.599C55.4261 30.7521 55.3436 30.9256 55.1887 30.9767C55.0339 31.0379 54.8585 30.9562 54.8068 30.8031C54.7449 30.65 54.8275 30.4765 54.9823 30.4255Z" fill="#4B260C"/>
<path d="M55.7874 29.1189C55.9422 29.0576 56.1177 29.1393 56.1693 29.2924C56.2312 29.4455 56.1486 29.619 55.9938 29.6701C55.839 29.7313 55.6635 29.6497 55.6119 29.4966C55.55 29.3434 55.6326 29.1699 55.7874 29.1189Z" fill="#4B260C"/>
<path d="M57.3047 29.7314C57.4595 29.6701 57.6349 29.7518 57.6866 29.9049C57.7485 30.058 57.6659 30.2315 57.5111 30.2826C57.3563 30.3438 57.1808 30.2621 57.1292 30.109C57.0673 29.9559 57.1498 29.7824 57.3047 29.7314Z" fill="#4B260C"/>
<path d="M47.3238 32.9569C47.458 32.8548 47.6541 32.8753 47.7573 32.9977C48.067 33.3448 48.5108 33.4367 48.8411 33.4571C49.3055 33.4877 49.7287 33.3754 49.9558 33.2325C49.9558 33.1304 49.9558 33.0284 49.9867 32.9365C49.9867 32.9263 49.9867 32.9161 49.9971 32.8957C50.0487 32.6099 50.1416 32.3241 50.2757 32.0587C49.9558 32.2628 49.5326 32.4057 49.0888 32.4363C48.5624 32.4772 48.0154 32.3547 47.6128 31.977C47.4993 31.8749 47.489 31.6912 47.5922 31.5687C47.6954 31.4564 47.8812 31.4462 48.005 31.5483C48.583 32.0791 49.6668 31.8545 50.1209 31.4564C50.379 31.2319 50.2757 31.0992 50.2345 31.0482C49.8422 30.5378 48.645 31.1502 48.2631 31.4054C48.1289 31.4973 47.9534 31.4564 47.8605 31.3237C47.7676 31.1911 47.8089 31.0175 47.9431 30.9257C48.0257 30.8746 49.9042 29.6498 50.6989 30.7011C50.8537 30.9053 50.9053 31.1298 50.8537 31.3544C51.0292 31.2319 51.215 31.14 51.4317 31.1196C52.8767 30.9563 53.7953 32.1505 54.1772 34.6615C54.3837 36.0293 53.9811 37.05 53.0935 37.3971C52.4639 37.6421 51.7207 37.4685 51.1944 36.9582C49.7597 37.3358 49.2023 38.2953 49.1713 38.3464C49.1301 38.428 49.0475 38.479 48.9649 38.4893C48.8927 38.4995 48.8204 38.4893 48.7585 38.4688C48.6037 38.3974 48.5521 38.2239 48.6243 38.081C48.6553 38.0299 49.2746 36.948 50.8331 36.4682C50.6783 36.1314 50.6989 35.8558 50.7092 35.8354C50.7299 35.6823 50.8744 35.57 51.0395 35.5802C51.2047 35.5904 51.3285 35.7333 51.3182 35.8864C51.3182 35.8966 51.2976 36.1926 51.5866 36.4988C51.9375 36.8765 52.4329 37.0296 52.8458 36.8663C53.4547 36.6213 53.7231 35.8252 53.558 34.7432C53.238 32.5997 52.5361 31.5789 51.4937 31.6912C50.9776 31.7423 50.5544 32.6711 50.5854 33.355C50.5957 33.6 50.6576 33.7939 50.6576 33.7939C50.6989 33.947 50.606 34.1001 50.4409 34.141C50.4409 34.141 50.4409 34.141 50.4306 34.141C50.2654 34.1716 50.1106 34.0899 50.0693 33.9368C50.0693 33.9368 50.059 33.8858 50.0384 33.8245C49.6874 33.9674 49.2436 34.0389 48.8101 34.0083C48.1805 33.9674 47.6438 33.7327 47.2929 33.3448C47.1793 33.2223 47.2 33.0386 47.3341 32.9467L47.3238 32.9569Z" fill="#4B260C"/>
<path d="M51.8962 32.7629C52.2368 32.7017 52.6599 33.4162 52.8457 34.3553C53.0315 35.2943 52.9077 36.1007 52.5671 36.162C52.2264 36.2232 51.8033 35.5087 51.6175 34.5696C51.4317 33.6306 51.5555 32.8242 51.8962 32.7629Z" fill="#4B260C"/>
<path d="M44.1139 20.3305C44.0519 20.3203 42.6482 19.9834 42.2354 21.3104C42.1941 21.4329 42.0806 21.5145 41.9567 21.5145C41.8328 21.5145 41.8948 21.5145 41.8741 21.5043C41.7193 21.4533 41.6367 21.3002 41.6883 21.1471C42.1425 19.6772 43.5668 19.616 44.2584 19.7793C44.4132 19.8201 44.5061 19.9732 44.4648 20.1263C44.4235 20.2794 44.2687 20.3713 44.1139 20.3305Z" fill="#4B260C"/>
<path d="M40.3878 31.2012C40.4394 31.1706 41.5645 30.5275 42.803 30.6092C42.3386 28.6698 41.3683 23.8622 42.5966 21.9024C42.8856 21.4533 43.2675 21.1675 43.7526 21.0654C44.2067 20.9735 44.6506 21.096 45.0221 21.4227C46.7045 22.9231 46.9729 28.6086 46.8387 30.7419C46.8903 30.7419 46.9522 30.7317 47.0038 30.7215C47.1587 30.7011 47.3135 30.8031 47.3341 30.9562C47.3548 31.0889 47.2825 31.2216 47.1587 31.2625C47.138 31.2625 47.1174 31.2727 47.0967 31.2829C45.8788 31.4666 44.6093 31.4462 42.9991 31.191C41.8535 31.0073 40.6975 31.6708 40.6871 31.681C40.553 31.7626 40.3775 31.7116 40.2949 31.5789C40.2124 31.4462 40.264 31.2727 40.3981 31.191L40.3878 31.2012ZM44.6299 21.8514C44.3925 21.637 44.1448 21.5656 43.8661 21.6268C43.5358 21.6982 43.2881 21.882 43.0817 22.2086C41.9051 24.0663 43.0507 29.2108 43.4017 30.65C43.5462 30.6704 43.6803 30.6909 43.8248 30.7113C43.4945 29.3741 42.3592 24.1582 44.3306 23.7397C44.826 23.6376 45.2182 23.9643 45.5176 24.5461C45.2492 24.6482 45.0737 24.9237 45.115 25.2198C45.1563 25.5668 45.4763 25.8118 45.8272 25.771C45.8685 25.771 45.8994 25.7607 45.9407 25.7505C46.0027 25.9955 46.0543 26.2507 46.1059 26.5161C45.8685 24.5053 45.404 22.5455 44.6299 21.8514Z" fill="#4B260C"/>
<path d="M52.2471 19.5854C52.1336 19.6364 51.9994 19.6058 51.9168 19.5037C51.0189 18.4422 49.8525 19.2792 49.8009 19.3098C49.6771 19.4016 49.4913 19.3812 49.3984 19.2485C49.3055 19.126 49.3261 18.9423 49.4603 18.8505C50.028 18.432 51.3698 17.9522 52.3607 19.1363C52.4639 19.2587 52.4432 19.4425 52.3194 19.5343C52.2987 19.5548 52.2678 19.565 52.2471 19.5752V19.5854Z" fill="#4B260C"/>
<path d="M51.1221 30.4969C51.1015 30.4969 51.0808 30.4969 51.0602 30.4969C50.926 30.4969 50.8125 30.405 50.7815 30.2723C50.7505 30.1192 50.8434 29.9661 50.9982 29.9355C50.1106 27.9859 48.325 22.5658 49.3675 20.5652C49.5945 20.1263 49.9661 19.8609 50.4202 19.7894C50.9054 19.718 51.3698 19.8405 51.8033 20.1671C53.6509 21.5553 54.4559 26.3833 54.714 28.3738C55.87 27.7613 57.2634 27.9655 57.3253 27.9757C57.4801 27.9961 57.5936 28.1492 57.5627 28.3023C57.542 28.4554 57.3872 28.5677 57.2324 28.5371C57.2221 28.5371 55.8906 28.3431 54.8997 28.9148C53.496 29.7313 52.3297 30.2213 51.1221 30.4867L51.1221 30.4969ZM51.4627 20.6264C51.1634 20.3917 50.8537 20.31 50.5235 20.3611C50.2448 20.4019 50.0384 20.555 49.8939 20.8408C49.0269 22.5046 50.5751 27.6797 51.5659 29.7926C51.7517 29.7415 51.9685 29.6599 52.2059 29.568C51.4317 27.8736 49.9042 22.9333 51.6485 22.6679C52.082 22.6067 52.4536 22.8108 52.7735 23.1885C52.5258 23.3008 52.3607 23.5661 52.3916 23.8519C52.4329 24.199 52.7529 24.444 53.1038 24.4031C53.1864 24.4031 53.2586 24.3725 53.3309 24.3317C52.8974 22.77 52.2884 21.2593 51.4524 20.6264L51.4627 20.6264Z" fill="#4B260C"/>
</svg>
