<svg width="54" height="72" viewBox="0 0 54 72" fill="none" xmlns="http://www.w3.org/2000/svg">
<path d="M14.8437 29.3282C15.0889 33.1388 15.1499 37.005 15.6865 40.8027C16.4178 45.9331 17.7438 48.7432 23.1553 49.734C24.3899 49.985 25.641 50.1366 26.8881 50.2983C27.2781 50.3341 27.6671 50.3886 28.0575 50.4273C28.0895 50.4329 28.0993 50.4507 28.0868 50.4807C27.7804 50.5682 27.4294 50.5524 27.1089 50.6123C23.9612 51.0461 19.8219 51.2769 17.7345 53.9992C15.8048 56.677 15.6442 60.4087 15.314 63.6091C15.085 66.2651 15.0076 68.9411 14.8513 71.596C14.6555 69.0583 14.6269 66.4457 14.396 63.8887C14.0805 60.7073 13.944 57.2437 12.267 54.4523C10.2782 51.3106 6.07688 51.1113 2.75562 50.627C2.55703 50.6127 2.35843 50.5808 2.15984 50.5553C1.96913 50.5324 1.77591 50.527 1.58628 50.4908C1.5809 50.4908 1.57373 50.4743 1.57337 50.465C1.57189 50.4412 1.583 50.4286 1.60671 50.427C1.84044 50.4022 2.07273 50.3779 2.30789 50.3488C3.09653 50.2617 3.88195 50.1642 4.66772 50.0488C7.86531 49.5957 11.3819 48.8497 12.7804 45.5388C13.8762 43.0424 14.097 40.2244 14.3576 37.5273C14.6003 34.8032 14.6656 32.0444 14.8437 29.3282Z" fill="black"/>
<path d="M14.7211 71.606C14.6322 70.4506 14.5777 69.2594 14.5229 68.1073C14.4584 66.7236 14.3917 65.2922 14.2659 63.9002C14.23 63.5418 14.1963 63.17 14.1633 62.8116C13.8999 59.9391 13.6256 56.9684 12.1559 54.519C10.4212 51.7784 6.93937 51.3174 3.8676 50.9106C3.47722 50.8586 3.10835 50.8098 2.74235 50.7564C2.60147 50.746 2.46059 50.727 2.32401 50.7087C2.26414 50.7009 2.20428 50.6926 2.14477 50.6854C2.07845 50.6776 2.00927 50.6715 1.94223 50.6657C1.81526 50.6568 1.68907 50.6414 1.56369 50.6195H1.55974C1.48507 50.5986 1.44695 50.5493 1.44539 50.4718V50.4618C1.44696 50.3616 1.49762 50.3073 1.59738 50.2986L1.6723 50.2908C1.87628 50.2689 2.08706 50.2467 2.29426 50.2191C3.16069 50.123 3.93105 50.0251 4.65087 49.9194C7.81082 49.4716 11.2955 48.7232 12.6624 45.4876C13.6909 43.1449 13.9436 40.5073 14.1881 37.9564C14.2024 37.8087 14.2166 37.6614 14.2307 37.5144C14.3766 35.8654 14.4594 34.1741 14.5394 32.5391C14.591 31.4813 14.6448 30.3883 14.7147 29.3186H14.9756C15.0445 30.3886 15.0997 31.4813 15.1531 32.538C15.2904 35.251 15.4323 38.0585 15.8173 40.7829C16.5425 45.8733 17.8807 48.6335 23.1804 49.6043C24.2895 49.8301 25.4295 49.9771 26.5318 50.119L26.9046 50.1671C27.1086 50.1868 27.3154 50.2108 27.514 50.2341C27.6968 50.2556 27.8854 50.2778 28.0707 50.2961H28.0829C28.1402 50.308 28.1813 50.3404 28.2062 50.3933C28.2301 50.4431 28.2287 50.4922 28.2019 50.5406L28.1757 50.5883L28.1234 50.6033C27.9359 50.6568 27.7366 50.675 27.5434 50.6894C27.4062 50.6981 27.2699 50.7141 27.1344 50.7374H27.1276C26.7913 50.784 26.4504 50.827 26.088 50.8729C23.08 51.2536 19.6713 51.6856 17.8384 54.073C16.1339 56.4389 15.8206 59.7061 15.5442 62.5882C15.5116 62.9284 15.4779 63.2801 15.4427 63.6185C15.2929 65.3567 15.2065 67.1347 15.123 68.854C15.0796 69.7548 15.0341 70.6861 14.9796 71.5999L14.7211 71.606ZM2.46095 50.4632C2.56239 50.4764 2.66492 50.4886 2.76529 50.4958H2.77461C3.14061 50.5492 3.5102 50.5983 3.9013 50.65C7.0297 51.0644 10.5754 51.534 12.3774 54.3802C13.883 56.8842 14.1569 59.8846 14.4232 62.7857C14.4559 63.1442 14.4899 63.5145 14.5258 63.8737C14.6519 65.2718 14.7186 66.7057 14.7835 68.0937C14.8021 68.4934 14.8193 68.8977 14.8412 69.3039C14.8489 69.1497 14.8564 68.9963 14.8638 68.8436C14.9473 67.1229 15.0337 65.3413 15.1843 63.5959C15.2201 63.2564 15.2513 62.9209 15.2854 62.5656C15.565 59.6498 15.8819 56.345 17.6287 53.9214L17.6312 53.9182C18.479 52.8123 19.7283 52.0136 21.45 51.4759C22.9413 51.0099 24.596 50.8012 26.0561 50.6155C26.4146 50.57 26.754 50.527 27.0881 50.4811C27.129 50.4732 27.1706 50.4668 27.2122 50.461C27.1 50.4481 26.9874 50.4363 26.8759 50.4252H26.8712L26.4966 50.3768C25.3897 50.2334 24.2451 50.0868 23.1291 49.8595C17.6757 48.8633 16.302 46.0339 15.5574 40.8202C15.1707 38.0822 15.0283 35.2707 14.891 32.552C14.8757 32.2483 14.8601 31.9423 14.8441 31.634C14.8287 31.9419 14.8136 32.2488 14.7986 32.5524C14.7186 34.1895 14.6358 35.8826 14.4895 37.5388C14.4752 37.6868 14.4609 37.8341 14.4469 37.9818C14.2003 40.5532 13.945 43.212 12.9008 45.5912C11.4819 48.9504 7.918 49.7201 4.68707 50.1796C4.0031 50.2789 3.27325 50.3725 2.46095 50.4632Z" fill="black"/>
<path d="M13.8612 29.3043C14.106 33.1145 14.1673 36.981 14.7039 40.7787C15.4349 45.9106 16.7612 48.7192 22.1727 49.7104C23.4073 49.9614 24.6584 50.1126 25.9055 50.2747C26.2952 50.3105 26.6845 50.365 27.0745 50.4034C27.0939 50.4073 27.1179 50.432 27.1043 50.4571C26.7974 50.5446 26.4468 50.5288 26.1264 50.5887C22.9786 51.0217 18.8393 51.2519 16.7519 53.9763C14.8219 56.6541 14.6616 60.3858 14.3315 63.5862C14.1024 66.2422 14.025 68.9178 13.8687 71.5731C13.6726 69.0354 13.6443 66.4229 13.4131 63.8659C13.098 60.6844 12.9614 57.2208 11.2844 54.429C9.29562 51.2877 5.09395 51.0884 1.77304 50.6041C1.57445 50.5898 1.3755 50.5575 1.1769 50.5324C0.986193 50.5095 0.793334 50.5041 0.603343 50.4679C0.598324 50.4679 0.591155 50.4514 0.590796 50.4421C0.58931 50.4186 0.600303 50.4059 0.623775 50.4041C0.857859 50.3793 1.09158 50.355 1.32531 50.3259C2.11395 50.2388 2.89937 50.1413 3.68515 50.0259C6.88238 49.5728 10.399 48.8268 11.7974 45.5156C12.8936 43.0195 13.1145 40.2015 13.3747 37.5044C13.6174 34.7793 13.683 32.0204 13.8612 29.3043Z" fill="#FFC764"/>
<path d="M13.6898 71.5859C13.6005 70.4295 13.5464 69.2379 13.4915 68.0858C13.427 66.7024 13.3603 65.2718 13.2345 63.8805C13.1987 63.5221 13.165 63.1507 13.132 62.7919C12.8689 59.9241 12.5968 56.9623 11.1317 54.5219C9.40709 51.7996 5.93813 51.34 2.87784 50.9346C2.48782 50.883 2.11931 50.8342 1.75367 50.7808C1.61207 50.7704 1.47083 50.7514 1.33461 50.7331C1.27474 50.7253 1.21488 50.717 1.15537 50.7098C1.09013 50.702 1.02417 50.6962 0.954626 50.6901C0.825969 50.6812 0.698114 50.6656 0.571059 50.6435H0.564965C0.46554 50.6173 0.414994 50.5528 0.41333 50.4499V50.4363C0.415854 50.3074 0.481335 50.2374 0.609774 50.2263L0.681469 50.2187C0.886516 50.1972 1.09873 50.1746 1.30665 50.147C2.17272 50.051 2.94272 49.9531 3.66218 49.8474C6.80887 49.4014 10.2789 48.6569 11.6357 45.4449C12.6613 43.1087 12.9137 40.475 13.1582 37.9281C13.1723 37.7804 13.1864 37.6329 13.2005 37.4857C13.3464 35.8367 13.4288 34.1476 13.5088 32.5133C13.5607 31.4551 13.6141 30.3625 13.6844 29.2917H14.0429C14.1117 30.3618 14.1669 31.4548 14.2221 32.5115C14.3591 35.2238 14.501 38.0281 14.886 40.7525C15.608 45.8185 16.9386 48.5672 22.2096 49.5326C23.3177 49.7585 24.4566 49.9051 25.5581 50.047L25.9302 50.0951C26.1346 50.1144 26.3414 50.1388 26.5397 50.1621C26.7218 50.1832 26.9103 50.2055 27.0949 50.2237L27.1114 50.2263C27.185 50.2412 27.2379 50.2826 27.2702 50.3503C27.3009 50.4153 27.2989 50.4792 27.2641 50.5421L27.2283 50.6073L27.1566 50.6281C26.9644 50.6826 26.7623 50.6998 26.5673 50.7156C26.4306 50.7245 26.2949 50.7408 26.16 50.7643H26.1507C25.8141 50.8106 25.4732 50.8539 25.1111 50.8995C22.1125 51.2795 18.7145 51.7096 16.8945 54.0806C15.1982 56.4361 14.8871 59.6957 14.61 62.5714C14.5774 62.9116 14.5437 63.2636 14.5085 63.602C14.3587 65.3385 14.2727 67.1151 14.1891 68.8357C14.1454 69.7369 14.1002 70.6682 14.0457 71.582L13.6898 71.5859ZM1.90243 50.4403C2.23438 50.4879 2.57063 50.5324 2.9248 50.5794C6.06396 50.9952 9.62182 51.4666 11.4357 54.3319L11.4378 54.3354C12.9463 56.8448 13.2223 59.8524 13.489 62.7596C13.522 63.1181 13.5561 63.488 13.5916 63.8472C13.7181 65.2474 13.7848 66.682 13.8497 68.0693C13.8525 68.1363 13.8558 68.2037 13.859 68.2708C13.9346 66.7207 14.0181 65.1313 14.1529 63.5701C14.1888 63.2299 14.22 62.8944 14.254 62.5388C14.5343 59.6172 14.852 56.3053 16.6063 53.8709L16.6096 53.8666C17.4638 52.7524 18.721 51.948 20.4528 51.4074C21.948 50.9414 23.6052 50.731 25.067 50.5471C25.333 50.5134 25.5883 50.4811 25.8381 50.4482L25.5076 50.4055C24.3999 50.2621 23.2542 50.1151 22.138 49.8875C19.4791 49.4007 17.6997 48.4536 16.5407 46.9061C15.537 45.5665 14.9541 43.7988 14.5275 40.8056C14.1429 38.0837 13.9999 35.2901 13.8633 32.5872C13.7841 34.2082 13.7013 35.8826 13.5564 37.5216C13.5421 37.67 13.5278 37.8173 13.5138 37.965C13.2668 40.5399 13.0119 43.2027 11.9637 45.589C10.5352 48.9712 6.95549 49.7452 3.71237 50.2048C3.14598 50.2858 2.55019 50.3639 1.90243 50.4403Z" fill="black"/>
<path d="M34.7403 0.0455171C35.0826 5.36528 35.1679 10.7639 35.9168 16.0654C36.9377 23.2284 38.7892 27.1516 46.3445 28.5353C48.0684 28.8862 49.8148 29.097 51.5563 29.3239C52.1005 29.3755 52.6436 29.4501 53.1884 29.5031C53.2333 29.511 53.247 29.536 53.2297 29.5781C52.8017 29.6999 52.312 29.6756 51.8646 29.7616C47.4701 30.3671 41.6904 30.6893 38.7763 34.4902C36.0821 38.2291 35.858 43.4388 35.397 47.9072C35.0772 51.6153 34.9693 55.3513 34.7518 59.0583C34.4782 55.5151 34.4381 51.8676 34.1158 48.2972C33.6756 43.8554 33.4849 39.0196 31.1437 35.1222C28.367 30.7359 22.5013 30.4578 17.8644 29.781C17.5869 29.7609 17.3095 29.7161 17.0324 29.682C16.766 29.6505 16.4965 29.643 16.233 29.5924C16.2258 29.5924 16.2158 29.5695 16.2154 29.5566C16.2143 29.5247 16.2296 29.5072 16.2613 29.5039C16.5879 29.468 16.9144 29.435 17.241 29.3945C18.3401 29.2726 19.4385 29.1364 20.5354 28.9755C24.9995 28.3428 29.9091 27.3014 31.8632 22.6785C33.3931 19.1938 33.7014 15.2581 34.0664 11.4941C34.4004 7.68962 34.4919 3.83746 34.7403 0.0455171Z" fill="black"/>
<path d="M34.5722 59.0712C34.4478 57.4581 34.3703 55.7951 34.2954 54.187C34.2051 52.2544 34.1122 50.2563 33.937 48.3127C33.8871 47.8108 33.8398 47.2932 33.7936 46.7924C33.4258 42.7828 33.0451 38.6367 30.9907 35.2137C28.5634 31.3862 23.7043 30.7428 19.4155 30.1746C18.8706 30.1029 18.3555 30.0341 17.8443 29.9595C17.6479 29.9448 17.45 29.9183 17.2607 29.8928C17.1768 29.8817 17.0933 29.8702 17.0098 29.8602C16.917 29.8491 16.8202 29.8405 16.7266 29.8326C16.5495 29.8203 16.3735 29.7989 16.1986 29.7684H16.1925C16.0895 29.7396 16.0372 29.6717 16.0355 29.5648V29.5512C16.0379 29.4133 16.1078 29.3383 16.2452 29.3261L16.3484 29.3153C16.6352 29.2849 16.9288 29.2537 17.2181 29.2178C18.4279 29.0838 19.5033 28.9468 20.5085 28.7991C24.921 28.1739 29.7873 27.1286 31.6958 22.6101C33.1322 19.339 33.4849 15.6557 33.8265 12.0946C33.8464 11.8886 33.8662 11.6828 33.886 11.4773C34.0893 9.17373 34.2051 6.81354 34.3162 4.53113C34.3879 3.05422 34.4632 1.52712 34.5611 0.0347901H34.9195C35.0156 1.52891 35.0927 3.05422 35.1672 4.5297C35.359 8.3177 35.5569 12.2347 36.095 16.0414C37.1077 23.1481 38.976 27.0046 46.3771 28.36C47.9257 28.6755 49.5173 28.8805 51.0562 29.0769L51.5767 29.144C51.8635 29.1712 52.1503 29.2049 52.4296 29.2375C52.6844 29.2673 52.9479 29.2981 53.2064 29.3236L53.2229 29.3261C53.302 29.3423 53.3589 29.3868 53.3935 29.4598C53.4264 29.5287 53.4243 29.5964 53.387 29.663L53.3512 29.7286L53.2795 29.7491C53.0182 29.8236 52.7418 29.8469 52.4708 29.8692C52.2784 29.8813 52.0872 29.9038 51.8972 29.9366H51.8879C51.4187 30.0014 50.9426 30.0617 50.4386 30.1255C46.238 30.6575 41.4767 31.2601 38.919 34.5949C36.5391 37.8994 36.1014 42.4606 35.7157 46.4845C35.6702 46.9594 35.6232 47.4523 35.5745 47.923C35.3651 50.3499 35.2447 52.832 35.1282 55.2323C35.0672 56.4902 35.0038 57.7907 34.9288 59.068L34.5722 59.0712ZM17.4285 29.5541C17.5776 29.5734 17.7289 29.5921 17.8766 29.6025H17.8895C18.4007 29.677 18.9165 29.7458 19.4628 29.8175C23.8316 30.3976 28.7785 31.0536 31.2943 35.0258L31.2968 35.0294C33.3942 38.5213 33.7785 42.7097 34.1502 46.7601C34.1961 47.262 34.2438 47.7775 34.2936 48.279C34.47 50.2323 34.5636 52.2344 34.6521 54.1705C34.679 54.7473 34.7062 55.3312 34.736 55.9173C34.7475 55.6827 34.7594 55.4493 34.7718 55.2172C34.8883 52.8133 35.0091 50.3276 35.2192 47.8915C35.2683 47.4172 35.3131 46.9487 35.3608 46.4525C35.7508 42.3821 36.1932 37.7685 38.6315 34.3852L38.6348 34.3809C39.8177 32.8373 41.5621 31.7225 43.9653 30.9722C46.0462 30.3216 48.3566 30.0301 50.3945 29.772C50.8964 29.7086 51.3696 29.6483 51.8356 29.5842C51.9005 29.572 51.9661 29.562 52.0317 29.553C51.8678 29.5347 51.7026 29.5171 51.5391 29.5014H51.533L51.0104 29.4336C49.4646 29.2347 47.8665 29.0289 46.3086 28.7117C38.6964 27.3168 36.7764 23.3672 35.7394 16.0901C35.1995 12.2674 35.0009 8.34207 34.8073 4.54726C34.7846 4.10514 34.7619 3.65944 34.7392 3.21015C34.7153 3.65896 34.6932 4.1049 34.6729 4.54798C34.5611 6.83397 34.4453 9.19775 34.2427 11.5095C34.223 11.7164 34.2033 11.9222 34.1832 12.1283C33.8391 15.718 33.4835 19.4297 32.0252 22.7509C31.1258 24.8806 29.5517 26.4303 27.2134 27.4871C25.1644 28.413 22.8042 28.8353 20.5598 29.1533C19.5983 29.2942 18.572 29.4254 17.4285 29.5541Z" fill="black"/>
<path d="M33.367 0.01179C33.709 5.33191 33.7946 10.7302 34.5435 16.0316C35.5644 23.1947 37.416 27.1182 44.9712 28.5015C46.6951 28.8525 48.4415 29.0633 50.1827 29.2902C50.7272 29.3418 51.2703 29.4164 51.8151 29.4694C51.842 29.4748 51.8754 29.5096 51.8564 29.5443C51.4284 29.6662 50.9387 29.6418 50.4913 29.7279C46.0964 30.3333 40.3171 30.656 37.4031 34.4565C34.7084 38.1954 34.4847 43.4055 34.0237 47.8735C33.7036 51.5815 33.5961 55.3176 33.3785 59.0245C33.1053 55.4814 33.0652 51.8339 32.7429 48.2635C32.3027 43.8216 32.1116 38.9862 29.7708 35.0885C26.994 30.7022 21.128 30.424 16.4915 29.7472C16.214 29.7275 15.9365 29.6823 15.6591 29.6487C15.3931 29.6167 15.1235 29.6092 14.8597 29.5587C14.8525 29.5569 14.8428 29.5357 14.8421 29.5228C14.8411 29.4908 14.8565 29.4732 14.8884 29.4701C15.2149 29.4343 15.5411 29.4013 15.8677 29.3626C16.9672 29.2407 18.0652 29.1045 19.1621 28.9435C23.6265 28.3112 28.5362 27.2695 30.4899 22.6469C32.0202 19.1618 32.3285 15.2265 32.6934 11.4625C33.0286 7.6559 33.12 3.80373 33.367 0.01179Z" fill="#EA713D"/>
<path d="M33.2003 59.0378C33.0759 57.4247 32.9981 55.7617 32.9232 54.1536C32.8332 52.2211 32.74 50.223 32.5647 48.2793C32.5149 47.7774 32.4672 47.2598 32.4213 46.759C32.0532 42.7495 31.6728 38.6034 29.6184 35.1803C27.193 31.3525 22.3324 30.7091 18.0436 30.1423C17.4984 30.0706 16.9836 30.0018 16.4724 29.9272C16.276 29.9125 16.0781 29.8864 15.8885 29.8605C15.805 29.8494 15.7214 29.838 15.6375 29.8279C15.5451 29.8168 15.4483 29.8086 15.3547 29.8003C15.1775 29.7882 15.0013 29.7668 14.8263 29.7362H14.8202C14.7175 29.7072 14.6653 29.6393 14.6636 29.5325V29.5189C14.6658 29.3811 14.7356 29.3062 14.8729 29.2942L14.9772 29.282C15.264 29.2515 15.5573 29.2203 15.8469 29.1845C17.0564 29.049 18.1318 28.912 19.1355 28.7647C23.548 28.1392 28.4143 27.0938 30.3228 22.5753C31.7589 19.3042 32.1119 15.6209 32.4536 12.0602C32.4734 11.8537 32.4931 11.6478 32.5127 11.4425C32.7163 9.13894 32.8318 6.77875 32.9429 4.49634C33.0146 3.01943 33.0899 1.49233 33.1877 0H33.5462C33.6423 1.49376 33.7193 3.01943 33.7939 4.49455C33.9857 8.28255 34.1836 12.1996 34.7213 16.0062C35.734 23.113 37.6023 26.9695 45.0038 28.3248C46.552 28.6403 48.1436 28.8454 49.6829 29.0436L50.2031 29.1106C50.4898 29.1379 50.7766 29.1716 51.0559 29.2042C51.3107 29.2339 51.5742 29.2648 51.833 29.2906L51.8495 29.2927C51.9286 29.3092 51.9855 29.3539 52.0202 29.4268C52.0529 29.4955 52.0507 29.5632 52.0137 29.6297L51.9779 29.6953L51.9062 29.7161C51.6449 29.7906 51.3663 29.8136 51.0971 29.8358C50.9055 29.8482 50.715 29.8707 50.5257 29.9032H50.5164C50.0468 29.9681 49.5711 30.0283 49.0671 30.0921C44.8668 30.6241 40.1052 31.2274 37.5475 34.5616C35.1669 37.866 34.7299 42.4269 34.3442 46.4515C34.2986 46.9264 34.2513 47.4193 34.2008 47.8896C33.9914 50.3165 33.871 52.7986 33.7545 55.1989C33.6935 56.4568 33.6305 57.7574 33.5555 59.0346L33.2003 59.0378ZM16.0566 29.5204C16.2054 29.5401 16.357 29.5584 16.5047 29.5691H16.5176C17.0284 29.6437 17.5446 29.7125 18.0906 29.7842C22.4579 30.3628 27.4077 31.0184 29.9224 34.9907L29.9245 34.9943C32.022 38.4862 32.4066 42.6746 32.7784 46.725C32.8242 47.225 32.8716 47.7423 32.9217 48.2442C33.0981 50.1971 33.1913 52.1992 33.2802 54.1353C33.3071 54.7121 33.3343 55.2961 33.3641 55.8822C33.3756 55.6475 33.3875 55.4141 33.3999 55.1821C33.5164 52.7782 33.6369 50.2925 33.8473 47.8563C33.8961 47.3824 33.9412 46.9135 33.9886 46.4174C34.3789 42.3469 34.8213 37.7337 37.2596 34.3501L37.2629 34.3458C38.4458 32.8043 40.1898 31.6873 42.5934 30.9374C44.6747 30.2875 46.985 29.995 49.0233 29.7369C49.5252 29.6734 49.9984 29.6132 50.4644 29.549C50.5293 29.5368 50.5949 29.5268 50.6605 29.5182C50.4963 29.4996 50.3314 29.4824 50.1679 29.4662H50.1618L49.6388 29.3988C48.0934 29.1995 46.4954 28.9938 44.9374 28.6765C37.3252 27.2824 35.4052 23.3327 34.3682 16.0582C33.8283 12.2354 33.6297 8.31014 33.4361 4.51534C33.4139 4.07322 33.3912 3.62751 33.368 3.17823C33.3456 3.62751 33.3236 4.07346 33.3021 4.51605C33.1902 6.80204 33.0744 9.16582 32.8719 11.4776C32.8518 11.6845 32.8321 11.8902 32.8124 12.0963C32.4683 15.6861 32.1123 19.3978 30.654 22.7194C29.7546 24.8487 28.1806 26.3984 25.8426 27.4552C23.7935 28.3815 21.4334 28.8034 19.1889 29.1214C18.2261 29.2605 17.1998 29.392 16.0566 29.5204Z" fill="black"/>
</svg>
